<?xml version="1.0" encoding="UTF-8"?>
<svg xmlns="http://www.w3.org/2000/svg" xmlns:xlink="http://www.w3.org/1999/xlink" version="1.2" >
<font id="Burford Base">
<font-face  font-family="Burford" units-per-em="1000" ascent="730" descent="-270" font-style="normal" font-weight="400" font-stretch="normal" cap-height="900" x-height="450" underline-position="-75" underline-thickness="50" />
<missing-glyph  horiz-adv-x="427" d="" />
<glyph glyph-name="NULL" d="" />
<glyph glyph-name="CR" unicode="&#xd;" horiz-adv-x="299" d="" />
<glyph glyph-name="space" unicode="&#x20;" horiz-adv-x="299" d="" />
<glyph glyph-name="exclam" unicode="&#x21;" horiz-adv-x="382" d="M208 158 C212 158 215 161 215 165 L236 522 C236 525 234 529 229 529 L98 529 C95 529 91 528 91 522 L113 165 C113 161 116 158 120 158 L208 158 Z M167 134 C129 134 98 103 98 64 C98 25 129 -7 167 -7 C207 -7 238 25 238 64 C238 103 207 134 167 134 L167 134 Z " />
<glyph glyph-name="quotedbl" unicode="&#x22;" horiz-adv-x="289" d="M99 549 C93 549 90 546 91 541 L101 470 C102 466 104 465 108 465 L137 465 C141 465 143 468 143 470 L153 541 C154 545 151 549 146 549 L99 549 Z M219 541 C220 545 217 549 212 549 L165 549 C161 549 157 546 158 541 L167 470 C168 466 171 465 175 465 L202 465 C207 465 209 466 210 470 L219 541 Z " />
<glyph glyph-name="numbersign" unicode="&#x23;" horiz-adv-x="605" d="M306 9 C305 4 309 0 313 0 L405 0 C408 0 410 3 411 6 L427 104 L477 104 C481 104 483 106 484 109 L499 200 C500 205 496 209 491 209 L445 209 L464 322 L512 322 C516 322 519 325 520 329 L534 420 C534 425 531 428 527 428 L481 428 L496 520 C496 525 492 528 489 528 L397 528 C394 528 390 525 390 522 L375 428 L294 428 L311 520 C312 525 307 528 303 528 L212 528 C209 528 205 526 204 522 L189 428 L149 428 C144 428 142 426 142 423 L127 331 C126 326 131 322 134 322 L172 322 L154 209 L114 209 C110 209 107 207 106 203 L91 112 C91 106 95 104 99 104 L136 104 L121 9 C120 4 123 0 127 0 L218 0 C223 0 225 1 226 6 L242 104 L321 104 L306 9 Z M259 209 L277 322 L357 322 L338 209 L259 209 Z " />
<glyph glyph-name="dollar" unicode="&#x24;" horiz-adv-x="532" d="M209 397 C211 423 250 430 269 430 C302 430 328 410 346 387 L343 369 C342 362 349 358 353 362 L440 419 C444 421 445 423 443 427 C434 446 422 470 402 490 C379 512 351 525 318 532 L318 576 C318 579 317 582 311 582 L242 582 C237 582 235 579 235 576 L235 531 C158 517 93 469 91 388 C89 297 185 245 253 221 C287 209 345 186 340 146 C335 111 307 99 277 99 C243 99 214 124 199 149 L203 172 C203 179 196 182 192 178 L102 107 C99 105 98 103 99 100 C109 65 136 37 166 20 C186 9 209 0 235 -5 L235 -48 C235 -53 237 -56 242 -56 L311 -56 C314 -56 318 -53 318 -48 L318 -5 C411 12 461 80 461 164 C461 253 379 295 310 325 C282 337 205 358 209 397 L209 397 Z " />
<glyph glyph-name="percent" unicode="&#x25;" horiz-adv-x="823" d="M389 398 C389 482 317 534 240 534 C156 534 91 473 91 397 C91 315 158 249 240 249 C280 249 318 264 346 293 C373 321 389 358 389 398 L389 398 Z M602 278 C518 278 454 217 454 142 C454 59 521 -8 602 -8 C685 -8 751 63 751 142 C751 225 678 278 602 278 L602 278 Z M468 531 C465 531 463 529 462 526 L266 -2 C264 -7 269 -11 273 -11 L363 -11 C366 -11 369 -10 370 -7 L566 521 C568 527 564 531 560 531 L468 531 Z M240 356 C218 356 199 375 199 398 C199 422 218 436 240 436 C264 436 282 421 282 398 C282 375 263 356 240 356 L240 356 Z M602 100 C579 100 560 119 560 142 C560 165 583 180 602 180 C625 180 645 164 645 142 C645 119 626 100 602 100 L602 100 Z " />
<glyph glyph-name="ampersand" unicode="&#x26;" horiz-adv-x="655" d="M479 112 C494 149 503 194 503 239 L503 330 C503 337 497 339 492 336 L381 266 C376 263 377 256 381 254 L393 246 L393 226 C393 217 393 205 393 195 L256 326 C242 340 232 354 227 369 C223 380 222 391 226 401 C234 418 254 428 279 428 L300 428 C327 428 343 412 351 378 L351 363 L345 346 C343 339 349 334 354 337 L456 398 C458 399 459 402 459 409 C459 427 456 445 448 459 C440 474 429 488 415 500 C386 522 344 535 294 535 C235 535 189 523 159 501 C128 479 113 446 113 402 C113 363 124 329 152 294 C130 278 115 261 106 241 C96 219 91 194 91 159 C91 106 104 66 129 40 C143 24 163 12 186 4 C212 -5 243 -9 278 -9 L303 -9 C349 -9 389 5 420 30 L428 22 L417 11 C413 7 414 -1 420 -1 L578 -1 C584 -1 586 8 582 11 L479 112 Z M336 110 C322 104 307 99 291 99 L263 99 C222 99 200 130 200 166 C200 195 221 212 226 216 L336 110 Z " />
<glyph glyph-name="quotesingle" unicode="&#x27;" horiz-adv-x="222" d="M99 557 C94 557 90 553 91 548 L101 479 C102 474 104 472 108 472 L137 472 C141 472 142 474 143 479 L153 547 C154 554 150 557 146 557 L99 557 Z " />
<glyph glyph-name="parenleft" unicode="&#x28;" horiz-adv-x="380" d="M282 40 C216 101 179 185 179 271 C179 335 200 391 231 441 C254 478 277 501 282 505 L303 505 C308 505 312 512 309 516 L254 602 C251 607 247 608 243 605 C136 529 92 396 92 274 C92 148 138 9 243 -60 C247 -62 252 -63 254 -58 L309 29 C312 34 308 40 303 40 L282 40 Z " />
<glyph glyph-name="parenright" unicode="&#x29;" horiz-adv-x="380" d="M99 40 C92 40 90 34 93 29 L148 -58 C150 -61 155 -62 158 -60 C269 13 310 158 310 274 C310 308 306 374 279 446 C253 516 211 568 158 605 C154 608 150 605 148 602 L93 516 C89 509 95 505 99 505 L119 505 C182 439 223 359 223 271 C223 207 202 152 171 103 C147 66 123 45 120 40 L99 40 Z " />
<glyph glyph-name="asterisk" unicode="&#x2a;" horiz-adv-x="303" d="M139 560 L139 538 L121 551 C117 554 112 553 110 549 L93 523 C91 520 91 517 95 514 L122 495 L95 476 C91 473 89 470 92 466 L110 441 C113 437 116 438 120 440 L139 452 L139 429 C139 425 142 423 146 423 L177 423 C181 423 183 425 183 429 L183 451 L202 439 C205 437 210 437 212 440 L230 465 C233 469 232 473 228 476 L200 495 L228 513 C232 516 232 519 230 523 L213 549 C211 552 205 553 202 551 L183 538 L183 560 C183 564 182 568 177 568 L146 568 C141 568 139 564 139 560 L139 560 Z " />
<glyph glyph-name="plus" unicode="&#x2b;" horiz-adv-x="368" d="M151 180 C151 176 155 173 159 173 L231 173 C235 173 237 176 237 180 L237 235 L291 235 C294 235 297 237 297 241 L297 311 C297 314 296 317 291 317 L237 317 L237 371 C237 375 235 378 231 378 L159 378 C155 378 151 375 151 371 L151 317 L97 317 C93 317 91 315 91 311 L91 241 C91 237 95 235 99 235 L151 235 L151 180 L151 180 Z " />
<glyph glyph-name="comma" unicode="&#x2c;" horiz-adv-x="303" d="M161 134 C122 134 89 103 89 64 C89 32 113 5 140 -4 L115 -68 C113 -73 115 -78 122 -78 L176 -78 C179 -78 182 -76 183 -73 L228 46 C230 51 232 59 232 66 C232 105 199 134 161 134 L161 134 Z " />
<glyph glyph-name="hyphen" unicode="&#x2d;" horiz-adv-x="367" d="M99 317 C95 317 91 315 91 311 L91 241 C91 237 95 235 99 235 L291 235 C294 235 297 237 297 241 L297 311 C297 313 294 317 291 317 L99 317 Z " />
<glyph glyph-name="period" unicode="&#x2e;" horiz-adv-x="303" d="M161 -7 C200 -7 233 25 233 64 C233 103 200 134 161 134 C123 134 91 103 91 64 C91 25 123 -7 161 -7 L161 -7 Z " />
<glyph glyph-name="slash" unicode="&#x2f;" horiz-adv-x="463" d="M392 521 C394 526 391 531 386 531 L294 531 C292 531 290 531 288 526 L92 -2 C90 -7 93 -11 97 -11 L190 -11 C192 -11 196 -10 197 -7 L392 521 Z " />
<glyph glyph-name="zero" unicode="0" horiz-adv-x="565" d="M294 -8 C434 -8 496 110 496 233 L496 294 C496 433 425 535 294 535 C201 535 130 481 105 397 C96 367 91 332 91 294 L91 233 C91 102 158 -8 294 -8 L294 -8 Z M294 428 C382 428 389 328 389 263 C389 193 378 99 294 99 C212 99 198 204 198 263 C198 328 214 428 294 428 L294 428 Z " />
<glyph glyph-name="one" unicode="1" horiz-adv-x="343" d="M120 362 L153 396 L153 25 L141 12 C137 7 141 0 145 0 L266 0 C272 0 275 8 271 12 L258 25 L258 503 L271 516 C276 521 272 527 266 527 L158 527 C156 527 153 527 150 523 L93 443 C92 442 91 440 91 439 L95 346 C95 338 104 337 108 343 L120 362 Z " />
<glyph glyph-name="two" unicode="2" horiz-adv-x="510" d="M196 328 C200 326 208 330 205 337 L198 352 C198 393 223 428 261 428 C285 428 305 416 317 398 C351 348 284 312 252 294 C174 250 95 195 95 98 L95 7 C95 4 98 0 102 0 L413 0 C418 0 420 4 420 7 L420 113 C420 119 412 122 408 118 L395 106 L218 106 C222 144 307 179 337 200 C409 249 444 306 440 371 C436 421 417 462 385 491 C352 520 310 535 260 535 C178 535 89 479 92 393 C92 389 94 387 97 385 L196 328 Z " />
<glyph glyph-name="three" unicode="3" horiz-adv-x="490" d="M251 -8 C353 -8 420 68 420 165 C420 244 363 294 294 317 L403 423 C404 424 405 425 405 427 L405 520 C405 523 405 528 397 528 L104 528 C99 528 96 525 96 522 L96 415 C96 409 103 406 107 410 L121 423 L250 423 L130 315 C129 314 128 313 128 311 L128 220 C128 217 134 213 138 215 C145 219 176 228 218 228 L222 228 C259 228 308 199 308 159 C308 122 276 99 243 99 C221 99 181 120 183 145 L184 158 C185 165 180 168 177 166 L94 103 C92 101 90 98 92 95 C124 30 179 -8 251 -8 L251 -8 Z " />
<glyph glyph-name="four" unicode="4" horiz-adv-x="528" d="M290 142 L290 25 L277 12 C273 8 277 0 282 0 L403 0 C410 0 413 7 408 12 L395 25 L395 142 L433 142 L446 130 C451 126 458 130 458 135 L458 235 C458 239 456 242 451 242 L395 242 L395 504 L408 517 C412 521 408 528 403 528 L294 528 C291 528 290 527 288 525 L93 242 C92 241 91 239 91 236 L91 149 C91 145 95 142 99 142 L290 142 Z M211 242 L290 363 L290 242 L211 242 Z " />
<glyph glyph-name="five" unicode="5" horiz-adv-x="496" d="M93 105 C121 25 177 -9 256 -9 C362 -9 426 79 426 175 L426 189 C429 297 368 353 263 353 C249 353 233 352 217 351 L217 428 L356 428 L370 415 C374 412 381 415 381 421 L381 522 C381 526 378 528 374 528 L104 528 C97 528 95 520 98 517 L111 504 L111 243 C111 239 115 236 120 237 C160 245 201 256 240 256 C289 256 311 224 311 180 C311 135 297 99 252 99 C216 99 195 125 187 156 L191 167 C194 175 185 178 180 175 L95 116 C92 115 91 111 92 108 L93 105 Z " />
<glyph glyph-name="six" unicode="6" horiz-adv-x="526" d="M445 93 C453 115 457 141 457 167 L457 186 C457 290 378 361 282 361 C253 361 226 357 203 351 C208 399 230 427 275 427 C313 427 326 410 336 396 L333 380 C332 374 339 369 344 372 L444 422 C446 423 448 427 447 431 C425 503 341 535 275 535 L270 535 C162 535 91 466 91 369 L91 173 C91 55 162 -8 272 -8 L277 -8 C350 -8 420 26 445 93 L445 93 Z M351 178 C351 135 317 99 275 99 C227 99 198 133 198 178 C198 224 231 256 275 256 C321 256 351 221 351 178 L351 178 Z " />
<glyph glyph-name="seven" unicode="7" horiz-adv-x="447" d="M116 428 L261 428 L95 11 C93 6 95 0 101 0 L222 0 C229 0 232 8 227 12 L216 25 L377 429 L377 522 C377 526 374 528 370 528 L99 528 C95 528 91 525 91 520 L91 421 C91 415 101 412 104 415 L116 428 Z " />
<glyph glyph-name="eight" unicode="8" horiz-adv-x="526" d="M275 -8 C303 -8 329 -4 351 4 C396 20 429 51 445 92 C453 114 457 139 457 166 L457 175 C457 233 436 281 397 313 C414 338 423 369 423 398 C423 419 420 438 412 455 C405 471 393 485 380 498 C352 522 315 535 275 535 C195 535 125 478 125 398 C125 370 134 341 149 317 C112 286 91 237 91 178 L91 171 C91 54 164 -8 275 -8 L275 -8 Z M198 175 C198 195 204 215 218 227 C233 241 252 249 275 249 C319 249 351 217 351 175 C351 132 316 99 275 99 C228 99 198 131 198 175 L198 175 Z M233 398 C233 424 252 437 275 437 C298 437 316 419 316 398 C316 375 297 356 275 356 C252 356 233 375 233 398 L233 398 Z " />
<glyph glyph-name="nine" unicode="9" horiz-adv-x="526" d="M142 212 C178 180 222 166 267 166 C295 166 322 170 346 176 C341 128 319 101 275 101 C235 101 223 117 213 132 L216 148 C216 153 210 157 205 155 L105 106 C101 104 101 100 102 97 C128 24 205 -8 275 -8 L278 -8 C390 -8 457 60 457 159 L457 354 C457 471 389 535 277 535 L272 535 C164 535 91 461 91 360 L91 341 C91 288 109 243 142 212 L142 212 Z M274 272 C228 272 197 307 197 350 C197 395 233 427 275 427 C322 427 351 392 351 350 C351 305 317 272 274 272 L274 272 Z " />
<glyph glyph-name="colon" unicode="&#x3a;" horiz-adv-x="303" d="M162 134 C123 134 92 103 92 64 C92 25 123 -7 162 -7 C200 -7 233 25 233 64 C233 103 200 134 162 134 L162 134 Z M162 338 C123 338 92 307 92 269 C92 229 123 198 162 198 C200 198 233 229 233 269 C233 307 200 338 162 338 L162 338 Z " />
<glyph glyph-name="semicolon" unicode="&#x3b;" horiz-adv-x="313" d="M161 198 C200 198 232 229 232 269 C232 307 200 338 161 338 C123 338 90 307 90 269 C90 229 123 198 161 198 L161 198 Z M152 134 C113 134 80 103 80 64 C80 32 104 5 131 -4 L106 -68 C104 -73 106 -78 113 -78 L167 -78 C170 -78 173 -76 174 -73 L219 46 C221 51 223 59 223 66 C223 105 190 134 152 134 L152 134 Z " />
<glyph glyph-name="less" unicode="&#x3c;" horiz-adv-x="376" d="M96 192 L295 97 C300 94 306 98 306 104 L306 196 C306 199 304 200 302 201 L178 253 L303 325 C305 326 306 329 306 331 L306 423 C306 429 299 431 295 428 L95 302 C93 301 91 298 91 295 L91 199 C91 196 93 193 96 192 L96 192 Z " />
<glyph glyph-name="equal" unicode="&#x3d;" horiz-adv-x="367" d="M291 363 L99 363 C95 363 91 359 91 354 L91 286 C91 282 95 278 99 278 L291 278 C294 278 297 282 297 286 L297 354 C297 359 294 363 291 363 L291 363 Z M291 257 L99 257 C95 257 91 254 91 250 L91 181 C91 177 95 174 99 174 L291 174 C294 174 297 177 297 181 L297 250 C297 254 294 257 291 257 L291 257 Z " />
<glyph glyph-name="greater" unicode="&#x3e;" horiz-adv-x="376" d="M305 199 L305 295 C305 298 305 301 301 303 L102 428 C97 431 91 426 91 423 L91 331 C91 329 92 327 95 325 L219 253 L96 201 C93 200 91 199 91 196 L91 104 C91 97 97 95 101 97 L302 192 C304 193 305 196 305 199 L305 199 Z " />
<glyph glyph-name="question" unicode="&#x3f;" horiz-adv-x="507" d="M419 316 C433 340 440 367 437 395 C429 488 336 535 258 535 C174 535 85 466 93 380 C93 377 94 374 97 373 L196 322 C201 320 208 324 205 332 L197 353 C197 392 221 428 261 428 C303 428 326 398 311 361 C297 328 245 302 218 281 C194 265 180 243 173 217 C168 198 167 180 169 166 C170 162 173 160 177 160 L273 160 C277 160 280 163 280 166 C279 181 281 193 291 206 C301 220 320 235 356 256 C385 274 406 294 419 316 L419 316 Z M227 134 C189 134 158 103 158 64 C158 25 189 -7 227 -7 C267 -7 298 25 298 64 C298 103 267 134 227 134 L227 134 Z " />
<glyph glyph-name="at" unicode="&#x40;" horiz-adv-x="633" d="M383 14 C396 22 404 29 406 33 C408 37 408 40 406 43 L356 102 C353 105 349 105 346 103 C337 95 312 77 280 77 C264 77 234 81 209 102 C184 123 172 158 172 201 L172 277 C172 343 184 389 211 416 C234 440 266 451 313 451 L330 451 C379 451 414 443 438 427 C465 408 477 377 477 333 L477 218 C477 187 469 175 452 175 C435 175 431 183 431 219 C431 252 433 370 434 392 C434 397 431 399 427 399 L369 399 C365 399 362 397 362 392 L362 375 C360 378 357 380 354 383 C337 396 314 399 298 399 C272 399 250 389 235 371 C220 354 214 332 214 307 L214 219 C214 167 234 118 288 118 C323 118 341 134 359 158 C365 134 375 118 390 106 C407 95 428 89 458 89 C494 89 522 103 540 127 C555 149 563 180 563 218 L563 333 C563 413 537 470 484 502 C465 515 440 523 413 528 C391 533 369 534 342 534 L311 534 C232 534 180 518 145 484 C126 465 114 442 105 412 C96 382 91 347 91 303 L91 232 C91 143 109 81 145 43 C176 9 221 -8 283 -8 C312 -8 352 -5 383 14 L383 14 Z M315 200 C284 200 277 234 277 257 L277 270 C277 312 296 316 313 316 C324 316 353 306 353 293 L353 237 C348 221 333 200 315 200 L315 200 Z " />
<glyph glyph-name="A" unicode="A" horiz-adv-x="571" d="M99 0 L218 0 C226 0 227 9 224 12 L212 24 L237 117 L354 117 L380 24 L368 12 C363 7 367 0 372 0 L493 0 C500 0 502 9 499 12 L485 25 L356 504 L365 517 C368 521 365 528 359 528 L234 528 C226 528 224 522 227 517 L235 504 L106 25 L94 12 C89 7 93 0 99 0 L99 0 Z M263 216 L295 337 L329 216 L263 216 Z " />
<glyph glyph-name="B" unicode="B" horiz-adv-x="506" d="M94 12 C89 7 93 0 99 0 L269 0 C313 0 357 5 388 30 C421 55 435 104 435 173 C435 238 422 284 392 313 C403 333 408 360 408 391 C408 438 397 481 359 505 C329 525 284 528 241 528 L99 528 C92 528 90 522 94 517 L106 503 L106 25 L94 12 Z M260 244 C281 244 297 237 309 226 C321 214 328 197 328 175 C328 150 320 132 303 121 C290 110 269 105 242 105 L212 105 L212 244 L241 244 C248 244 254 244 260 244 L260 244 Z M212 351 L212 423 L244 423 C262 423 276 423 286 417 C298 410 300 397 300 387 C300 359 286 351 261 351 L212 351 Z " />
<glyph glyph-name="C" unicode="C" horiz-adv-x="526" d="M275 -8 C394 -8 457 42 457 159 L457 209 C457 213 454 217 449 217 L345 217 C336 217 335 207 339 204 L352 192 L352 185 C352 158 346 138 336 123 C324 107 305 100 279 100 L269 100 C237 100 198 115 198 185 L198 343 C198 370 202 390 213 405 C225 421 243 428 269 428 L279 428 C318 428 346 405 351 370 L338 358 C334 354 337 346 344 346 L449 346 C454 346 457 349 457 353 L457 370 C457 492 388 535 275 535 C156 535 91 488 91 370 L91 159 C91 36 164 -8 275 -8 L275 -8 Z " />
<glyph glyph-name="D" unicode="D" horiz-adv-x="542" d="M106 503 L106 25 L94 12 C89 7 93 0 99 0 L313 0 C415 0 471 61 471 158 L471 370 C471 418 459 457 435 483 C408 513 367 528 313 528 L99 528 C92 528 90 521 94 517 L106 503 Z M284 428 C340 428 366 396 366 346 L366 182 C366 131 332 100 284 100 L212 100 L212 428 L284 428 Z " />
<glyph glyph-name="E" unicode="E" horiz-adv-x="463" d="M385 0 C389 0 392 4 392 7 L392 106 C392 113 385 117 380 112 L368 100 L212 100 L212 218 L329 218 L341 207 C345 203 353 206 353 212 L353 327 C353 335 344 336 341 332 L329 319 L212 319 L212 428 L368 428 L380 416 C386 410 392 416 392 422 L392 522 C392 525 389 528 385 528 L99 528 C92 528 90 521 94 517 L106 503 L106 25 L94 12 C90 7 93 0 99 0 L385 0 Z " />
<glyph glyph-name="F" unicode="F" horiz-adv-x="463" d="M212 25 L212 218 L329 218 L341 207 C345 203 353 206 353 212 L353 327 C353 333 344 336 341 332 L329 319 L212 319 L212 428 L368 428 L380 416 C386 410 392 416 392 422 L392 522 C392 525 389 528 385 528 L99 528 C92 528 90 521 94 517 L106 503 L106 25 L94 12 C90 7 93 0 99 0 L218 0 C226 0 228 8 224 12 L212 25 Z " />
<glyph glyph-name="G" unicode="G" horiz-adv-x="527" d="M457 370 C457 492 387 535 275 535 C156 535 91 486 91 370 L91 159 C91 36 164 -8 275 -8 C394 -8 457 42 457 159 L457 285 C457 288 454 292 449 292 L269 292 C264 292 260 288 260 283 L260 185 C260 180 269 176 273 180 L286 192 L351 192 L351 185 C351 134 328 100 279 100 L269 100 C236 100 198 115 198 185 L198 343 C198 370 202 390 213 405 C225 421 243 428 269 428 L279 428 C320 428 343 405 351 370 L338 358 C333 353 337 346 344 346 L449 346 C454 346 457 349 457 353 L457 370 Z " />
<glyph glyph-name="H" unicode="H" horiz-adv-x="532" d="M106 25 L94 12 C90 7 93 0 99 0 L218 0 C225 0 227 9 224 12 L211 25 L211 220 L341 220 L341 25 L329 12 C325 7 329 0 334 0 L454 0 C460 0 463 8 459 12 L446 25 L446 503 L459 517 C463 522 459 528 454 528 L334 528 C328 528 325 521 329 517 L341 503 L341 320 L211 320 L211 503 L224 517 C228 521 224 528 218 528 L99 528 C92 528 90 521 94 517 L106 503 L106 25 Z " />
<glyph glyph-name="I" unicode="I" horiz-adv-x="296" d="M94 12 C90 7 93 0 99 0 L218 0 C225 0 227 9 224 12 L211 25 L211 503 L224 517 C228 521 224 528 218 528 L99 528 C92 528 90 521 94 517 L106 503 L106 25 L94 12 Z " />
<glyph glyph-name="J" unicode="J" horiz-adv-x="498" d="M420 528 L300 528 C293 528 291 520 294 517 L307 504 L307 189 C307 155 300 100 260 100 C227 100 209 119 198 166 L199 183 C199 190 194 194 188 190 L94 123 C91 121 90 117 92 114 C107 81 130 51 154 29 C183 6 216 -7 249 -7 L269 -7 C351 -7 413 60 413 138 L413 504 L425 517 C429 521 427 528 420 528 L420 528 Z " />
<glyph glyph-name="K" unicode="K" horiz-adv-x="537" d="M451 25 L322 343 L437 503 L449 517 C453 522 449 528 445 528 L316 528 C310 528 308 522 312 517 L322 504 L211 355 L211 503 L224 517 C228 521 224 528 218 528 L99 528 C92 528 90 521 94 517 L106 503 L106 25 L94 12 C90 7 93 0 99 0 L218 0 C225 0 227 9 224 12 L211 25 L211 188 L252 244 L328 24 L315 12 C311 9 314 0 320 0 L459 0 C465 0 468 10 465 12 L451 25 Z " />
<glyph glyph-name="L" unicode="L" horiz-adv-x="463" d="M367 101 L211 101 L211 504 L224 517 C228 521 225 528 218 528 L99 528 C92 528 90 522 94 517 L106 504 L106 25 L94 12 C90 7 93 0 99 0 L385 0 C389 0 391 4 391 7 L391 107 C391 114 383 116 380 113 L367 101 Z " />
<glyph glyph-name="M" unicode="M" horiz-adv-x="596" d="M94 12 C90 7 93 0 99 0 L218 0 C225 0 227 9 224 12 L211 25 L211 331 L303 214 C306 210 311 210 314 214 L406 344 L406 25 L393 12 C389 8 392 0 398 0 L518 0 C525 0 527 8 523 12 L511 25 L511 503 L523 517 C528 522 524 528 518 528 L410 528 C408 528 406 527 405 525 L313 389 L212 525 C211 527 209 528 207 528 L99 528 C92 528 90 521 94 517 L106 503 L106 25 L94 12 Z " />
<glyph glyph-name="N" unicode="N" horiz-adv-x="517" d="M106 25 L94 12 C90 7 93 0 99 0 L218 0 C225 0 227 9 224 12 L211 25 L211 267 L321 21 L313 12 C309 8 312 0 318 0 L438 0 C445 0 447 8 443 12 L431 25 L431 503 L443 517 C447 522 444 528 438 528 L318 528 C312 528 309 521 313 517 L325 503 L325 266 L213 524 C212 527 209 528 206 528 L99 528 C92 528 90 521 94 517 L106 503 L106 25 Z " />
<glyph glyph-name="O" unicode="O" horiz-adv-x="527" d="M275 -8 C344 -8 391 8 422 40 C446 66 457 104 457 159 L457 370 C457 423 446 461 422 487 C392 520 344 535 275 535 C205 535 158 520 127 488 C104 461 91 423 91 370 L91 159 C91 104 104 66 127 40 C157 8 204 -8 275 -8 L275 -8 Z M351 343 L351 185 C351 159 346 138 336 123 C324 107 305 100 279 100 L269 100 C236 100 198 115 198 185 L198 343 C198 370 202 390 213 406 C225 421 243 428 269 428 L279 428 C313 428 351 414 351 343 L351 343 Z " />
<glyph glyph-name="P" unicode="P" horiz-adv-x="483" d="M211 140 L268 140 C358 140 411 198 411 283 L411 384 C411 478 357 528 268 528 L99 528 C92 528 90 521 94 517 L106 503 L106 25 L94 12 C89 7 93 0 99 0 L218 0 C226 0 227 9 224 12 L211 25 L211 140 Z M211 239 L211 427 L224 427 C280 427 306 415 306 360 L306 307 C306 253 268 239 224 239 L211 239 Z " />
<glyph glyph-name="Q" unicode="Q" horiz-adv-x="526" d="M289 -8 L313 -43 C314 -45 316 -46 318 -46 L408 -46 C414 -46 417 -38 414 -34 L382 12 C409 25 429 44 441 70 C451 93 457 123 457 159 L457 370 C457 423 446 461 422 487 C392 520 345 535 275 535 C205 535 158 520 127 488 C104 461 91 423 91 370 L91 159 C91 104 104 66 127 40 C157 8 204 -8 275 -8 L289 -8 Z M351 343 L351 185 C351 159 346 138 336 123 C324 107 305 100 279 100 L269 100 C236 100 198 115 198 185 L198 343 C198 370 202 390 213 406 C225 421 243 428 269 428 L279 428 C313 428 351 414 351 343 L351 343 Z " />
<glyph glyph-name="R" unicode="R" horiz-adv-x="495" d="M106 503 L106 25 L94 12 C90 7 93 0 99 0 L220 0 C227 0 231 5 224 12 L211 25 L211 140 L242 140 L294 25 L284 12 C279 6 284 0 289 0 L415 0 C422 0 426 9 421 12 L407 26 L347 158 C369 168 385 186 396 209 C406 229 411 255 411 283 L411 384 C411 478 357 528 268 528 L99 528 C92 528 90 521 94 517 L106 503 Z M211 239 L211 428 L224 428 C257 428 276 424 288 414 C301 405 306 388 306 360 L306 308 C306 281 301 265 288 255 C275 244 256 239 224 239 L211 239 Z " />
<glyph glyph-name="S" unicode="S" horiz-adv-x="517" d="M143 281 C176 254 215 235 253 221 C286 209 339 188 339 151 C339 113 304 99 277 99 C244 99 214 123 200 149 L203 171 C204 180 196 181 192 178 L102 107 C99 105 98 103 99 100 C124 23 208 -8 282 -8 C349 -8 398 14 429 58 C457 97 461 143 461 167 C461 250 378 295 313 324 C279 339 210 358 210 394 C210 423 251 430 269 430 C303 430 328 411 346 387 L343 369 C342 362 348 359 353 362 L440 419 C444 421 445 424 443 427 C408 497 355 535 281 535 C188 535 91 485 91 385 C91 345 108 311 143 281 L143 281 Z " />
<glyph glyph-name="T" unicode="T" horiz-adv-x="508" d="M116 428 L212 428 L212 25 L200 12 C196 8 199 0 205 0 L325 0 C332 0 334 8 330 12 L318 25 L318 428 L414 428 L427 416 C431 412 439 416 439 422 L439 520 C439 525 436 528 431 528 L99 528 C95 528 91 524 91 520 L91 422 C91 416 100 412 104 416 L116 428 Z " />
<glyph glyph-name="U" unicode="U" horiz-adv-x="556" d="M106 503 L106 159 C106 37 176 -8 289 -8 C408 -8 471 44 471 159 L471 503 L484 517 C488 521 484 528 479 528 L358 528 C351 528 350 520 353 517 L366 503 L366 185 C366 134 343 100 294 100 L284 100 C251 100 212 115 212 185 L212 503 L224 517 C228 521 226 528 218 528 L99 528 C92 528 90 522 94 517 L106 503 Z " />
<glyph glyph-name="V" unicode="V" horiz-adv-x="570" d="M106 503 L235 24 L226 11 C223 7 226 0 233 0 L358 0 C365 0 367 6 364 11 L356 24 L485 503 L498 517 C502 522 499 528 492 528 L372 528 C366 528 364 522 368 517 L380 504 L295 192 L212 504 L224 517 C228 521 224 528 218 528 L99 528 C92 528 90 521 94 517 L106 503 Z " />
<glyph glyph-name="W" unicode="W" horiz-adv-x="785" d="M571 24 L700 503 L713 517 C717 521 713 528 708 528 L587 528 C581 528 579 520 582 517 L594 504 L512 197 L444 503 L456 517 C460 521 457 528 450 528 L323 528 C317 528 315 521 318 517 L331 503 L363 385 L297 184 L212 504 L224 517 C228 521 224 528 218 528 L99 528 C92 528 90 521 94 517 L106 503 L235 24 L227 11 C224 6 227 0 234 0 L331 0 C333 0 336 2 337 4 L410 207 L465 5 C465 3 468 0 472 0 L574 0 C579 0 581 7 579 11 L571 24 Z " />
<glyph glyph-name="X" unicode="X" horiz-adv-x="560" d="M99 0 L218 0 C225 0 227 9 224 12 L212 24 L287 183 L291 190 L294 183 L369 24 L356 12 C352 8 356 0 362 0 L483 0 C488 0 491 9 487 12 L474 26 L355 283 L452 503 L465 517 C469 522 465 528 459 528 L339 528 C332 528 330 521 334 517 L346 504 L291 382 L235 504 L246 517 C251 523 246 528 241 528 L122 528 C115 528 112 521 116 517 L128 503 L225 283 L106 26 L94 12 C90 7 93 0 99 0 L99 0 Z " />
<glyph glyph-name="Y" unicode="Y" horiz-adv-x="519" d="M106 503 L218 250 L218 25 L207 12 C202 6 206 0 212 0 L332 0 C339 0 340 9 337 12 L325 25 L325 250 L434 503 L447 517 C451 521 447 528 442 528 L321 528 C315 528 313 520 316 517 L329 504 L271 390 L212 504 L224 517 C228 521 224 528 218 528 L99 528 C92 528 90 521 94 517 L106 503 Z " />
<glyph glyph-name="Z" unicode="Z" horiz-adv-x="486" d="M116 428 L287 428 L94 99 C93 97 93 96 93 96 L93 7 C93 2 97 0 100 0 L409 0 C414 0 416 4 416 7 L416 106 C416 114 409 115 405 112 L392 100 L221 100 L414 429 C415 430 415 431 415 432 L415 522 C415 523 414 528 409 528 C406 528 410 528 99 528 C95 528 91 525 91 521 L91 422 C91 415 99 411 104 416 L116 428 Z " />
<glyph glyph-name="bracketleft" unicode="&#x5b;" horiz-adv-x="358" d="M280 588 L99 588 C91 587 90 580 94 576 L106 563 L106 -35 L94 -48 C89 -52 93 -59 99 -59 L280 -59 C285 -60 288 -56 288 -52 L288 53 C288 58 280 61 276 58 L263 47 L211 47 L211 483 L263 483 L276 471 C281 466 288 470 288 475 L288 581 C288 585 285 588 280 588 L280 588 Z " />
<glyph glyph-name="backslash" unicode="&#x5c;" horiz-adv-x="464" d="M392 3 L197 531 C196 534 193 535 190 535 L99 535 C94 535 90 530 92 525 L288 -2 C289 -5 290 -7 294 -7 L387 -7 C392 -7 394 -2 392 3 L392 3 Z " />
<glyph glyph-name="bracketright" unicode="&#x5d;" horiz-adv-x="358" d="M276 -34 L276 563 L288 577 C292 581 288 588 283 588 L101 588 C97 588 94 585 94 581 L94 475 C94 467 102 468 106 471 L119 483 L170 483 L170 47 L119 47 L106 58 C101 62 94 58 94 53 L94 -52 C94 -56 97 -60 101 -60 L283 -60 C290 -60 291 -51 288 -48 L276 -34 Z " />
<glyph glyph-name="asciicircum" unicode="&#x5e;" horiz-adv-x="494" d="M323 528 L225 528 C223 528 220 528 218 525 L93 325 C89 320 94 313 99 313 L191 313 C194 313 195 316 197 318 L268 443 L319 319 C320 316 323 313 326 313 L418 313 C423 313 426 319 424 324 L329 525 C328 527 326 528 323 528 L323 528 Z " />
<glyph glyph-name="underscore" unicode="&#x5f;" horiz-adv-x="559" d="M489 -75 L489 -6 C489 -2 486 1 482 1 L99 1 C95 1 91 -3 91 -6 L91 -75 C91 -80 95 -82 99 -82 L482 -82 C485 -82 489 -80 489 -75 L489 -75 Z " />
<glyph glyph-name="grave" unicode="&#x60;" horiz-adv-x="238" d="M130 471 C131 469 133 467 136 467 L161 467 C166 467 169 470 168 475 L158 542 C157 546 155 549 151 549 L99 549 C94 549 91 543 93 539 L130 471 L130 471 Z " />
<glyph glyph-name="a" unicode="a" horiz-adv-x="571" d="M99 0 L218 0 C226 0 227 9 224 12 L212 24 L237 117 L354 117 L380 24 L368 12 C363 7 367 0 372 0 L493 0 C500 0 502 9 499 12 L485 25 L356 504 L365 517 C368 521 365 528 359 528 L234 528 C226 528 224 522 227 517 L235 504 L106 25 L94 12 C89 7 93 0 99 0 L99 0 Z M263 216 L295 337 L329 216 L263 216 Z " />
<glyph glyph-name="b" unicode="b" horiz-adv-x="506" d="M94 12 C89 7 93 0 99 0 L269 0 C294 0 316 2 334 6 C355 11 372 19 388 30 C420 57 435 104 435 173 C435 238 422 284 392 313 C403 333 408 360 408 391 C408 421 404 445 395 464 C388 482 375 495 359 505 C329 525 284 528 241 528 L99 528 C92 528 90 522 94 517 L106 503 L106 25 L94 12 Z M260 244 C281 244 297 237 309 226 C321 214 328 197 328 175 C328 150 320 132 303 121 C290 110 269 105 242 105 L212 105 L212 244 L241 244 C248 244 254 244 260 244 L260 244 Z M212 351 L212 423 L244 423 C262 423 276 423 286 417 C298 410 300 397 300 387 C300 359 286 351 261 351 L212 351 Z " />
<glyph glyph-name="c" unicode="c" horiz-adv-x="526" d="M275 -8 C344 -8 391 8 422 40 C446 66 457 104 457 159 L457 209 C457 213 454 217 449 217 L345 217 C336 217 335 207 339 204 L352 192 L352 185 C352 158 346 138 336 123 C324 107 305 100 279 100 L269 100 C237 100 198 115 198 185 L198 343 C198 370 202 390 213 405 C225 421 243 428 269 428 L279 428 C302 428 320 423 332 409 C341 400 348 387 351 370 L338 358 C334 354 337 346 344 346 L449 346 C454 346 457 349 457 353 L457 370 C457 424 446 462 422 488 C392 520 345 535 275 535 C205 535 157 521 127 488 C103 462 91 423 91 370 L91 159 C91 104 104 66 127 40 C157 8 205 -8 275 -8 L275 -8 Z " />
<glyph glyph-name="d" unicode="d" horiz-adv-x="542" d="M106 503 L106 25 L94 12 C89 7 93 0 99 0 L313 0 C363 0 403 13 430 41 C457 67 471 107 471 158 L471 370 C471 418 459 457 435 483 C408 513 367 528 313 528 L99 528 C92 528 90 521 94 517 L106 503 Z M284 428 C313 428 333 422 346 408 C360 395 366 375 366 346 L366 182 C366 157 359 136 345 122 C331 107 310 100 284 100 L212 100 L212 428 L284 428 Z " />
<glyph glyph-name="e" unicode="e" horiz-adv-x="463" d="M385 0 C389 0 392 4 392 7 L392 106 C392 113 385 117 380 112 L368 100 L212 100 L212 218 L329 218 L341 207 C345 203 353 206 353 212 L353 327 C353 335 344 336 341 332 L329 319 L212 319 L212 428 L368 428 L380 416 C386 410 392 416 392 422 L392 522 C392 525 389 528 385 528 L99 528 C92 528 90 521 94 517 L106 503 L106 25 L94 12 C90 7 93 0 99 0 L385 0 Z " />
<glyph glyph-name="f" unicode="f" horiz-adv-x="463" d="M212 25 L212 218 L329 218 L341 207 C345 203 353 206 353 212 L353 327 C353 333 344 336 341 332 L329 319 L212 319 L212 428 L368 428 L380 416 C386 410 392 416 392 422 L392 522 C392 525 389 528 385 528 L99 528 C92 528 90 521 94 517 L106 503 L106 25 L94 12 C90 7 93 0 99 0 L218 0 C226 0 228 8 224 12 L212 25 Z " />
<glyph glyph-name="g" unicode="g" horiz-adv-x="527" d="M457 370 C457 424 446 461 422 488 C392 520 344 535 275 535 C205 535 158 520 127 488 C104 461 91 423 91 370 L91 159 C91 104 104 66 127 40 C157 8 204 -8 275 -8 C344 -8 391 8 422 40 C446 66 457 104 457 159 L457 285 C457 288 454 292 449 292 L269 292 C264 292 260 288 260 283 L260 185 C260 180 269 176 273 180 L286 192 L351 192 L351 185 C351 158 346 138 336 123 C324 107 305 100 279 100 L269 100 C236 100 198 115 198 185 L198 343 C198 370 202 390 213 405 C225 421 243 428 269 428 L279 428 C302 428 319 423 332 409 C341 400 347 387 351 370 L338 358 C333 353 337 346 344 346 L449 346 C454 346 457 349 457 353 L457 370 Z " />
<glyph glyph-name="h" unicode="h" horiz-adv-x="532" d="M106 25 L94 12 C90 7 93 0 99 0 L218 0 C225 0 227 9 224 12 L211 25 L211 220 L341 220 L341 25 L329 12 C325 7 329 0 334 0 L454 0 C460 0 463 8 459 12 L446 25 L446 503 L459 517 C463 522 459 528 454 528 L334 528 C328 528 325 521 329 517 L341 503 L341 320 L211 320 L211 503 L224 517 C228 521 224 528 218 528 L99 528 C92 528 90 521 94 517 L106 503 L106 25 Z " />
<glyph glyph-name="i" unicode="i" horiz-adv-x="296" d="M94 12 C90 7 93 0 99 0 L218 0 C225 0 227 9 224 12 L211 25 L211 503 L224 517 C228 521 224 528 218 528 L99 528 C92 528 90 521 94 517 L106 503 L106 25 L94 12 Z " />
<glyph glyph-name="j" unicode="j" horiz-adv-x="498" d="M420 528 L300 528 C293 528 291 520 294 517 L307 504 L307 189 C307 161 303 139 294 123 C286 108 275 100 260 100 C227 100 209 119 198 166 L199 183 C199 190 194 194 188 190 L94 123 C91 121 90 117 92 114 C107 81 130 51 154 29 C183 6 216 -7 249 -7 L269 -7 C307 -7 343 9 370 36 C397 64 413 99 413 138 L413 504 L425 517 C429 521 427 528 420 528 L420 528 Z " />
<glyph glyph-name="k" unicode="k" horiz-adv-x="537" d="M451 25 L322 343 L437 503 L449 517 C453 522 449 528 445 528 L316 528 C310 528 308 522 312 517 L322 504 L211 355 L211 503 L224 517 C228 521 224 528 218 528 L99 528 C92 528 90 521 94 517 L106 503 L106 25 L94 12 C90 7 93 0 99 0 L218 0 C225 0 227 9 224 12 L211 25 L211 188 L252 244 L328 24 L315 12 C311 9 314 0 320 0 L459 0 C465 0 468 10 465 12 L451 25 Z " />
<glyph glyph-name="l" unicode="l" horiz-adv-x="463" d="M367 101 L211 101 L211 504 L224 517 C228 521 225 528 218 528 L99 528 C92 528 90 522 94 517 L106 504 L106 25 L94 12 C90 7 93 0 99 0 L385 0 C389 0 391 4 391 7 L391 107 C391 114 383 116 380 113 L367 101 Z " />
<glyph glyph-name="m" unicode="m" horiz-adv-x="596" d="M94 12 C90 7 93 0 99 0 L218 0 C225 0 227 9 224 12 L211 25 L211 331 L303 214 C306 210 311 210 314 214 L406 344 L406 25 L393 12 C389 8 392 0 398 0 L518 0 C525 0 527 8 523 12 L511 25 L511 503 L523 517 C528 522 524 528 518 528 L410 528 C408 528 406 527 405 525 L313 389 L212 525 C211 527 209 528 207 528 L99 528 C92 528 90 521 94 517 L106 503 L106 25 L94 12 Z " />
<glyph glyph-name="n" unicode="n" horiz-adv-x="517" d="M106 25 L94 12 C90 7 93 0 99 0 L218 0 C225 0 227 9 224 12 L211 25 L211 267 L321 21 L313 12 C309 8 312 0 318 0 L438 0 C445 0 447 8 443 12 L431 25 L431 503 L443 517 C447 522 444 528 438 528 L318 528 C312 528 309 521 313 517 L325 503 L325 266 L213 524 C212 527 209 528 206 528 L99 528 C92 528 90 521 94 517 L106 503 L106 25 Z " />
<glyph glyph-name="o" unicode="o" horiz-adv-x="527" d="M275 -8 C344 -8 391 8 422 40 C446 66 457 104 457 159 L457 370 C457 423 446 461 422 487 C392 520 344 535 275 535 C205 535 158 520 127 488 C104 461 91 423 91 370 L91 159 C91 104 104 66 127 40 C157 8 204 -8 275 -8 L275 -8 Z M351 343 L351 185 C351 159 346 138 336 123 C324 107 305 100 279 100 L269 100 C236 100 198 115 198 185 L198 343 C198 370 202 390 213 406 C225 421 243 428 269 428 L279 428 C313 428 351 414 351 343 L351 343 Z " />
<glyph glyph-name="p" unicode="p" horiz-adv-x="483" d="M211 140 L268 140 C358 140 411 198 411 283 L411 384 C411 478 357 528 268 528 L99 528 C92 528 90 521 94 517 L106 503 L106 25 L94 12 C89 7 93 0 99 0 L218 0 C226 0 227 9 224 12 L211 25 L211 140 Z M211 239 L211 427 L224 427 C280 427 306 415 306 360 L306 307 C306 253 268 239 224 239 L211 239 Z " />
<glyph glyph-name="q" unicode="q" horiz-adv-x="526" d="M289 -8 L313 -43 C314 -45 316 -46 318 -46 L408 -46 C414 -46 417 -38 414 -34 L382 12 C409 25 429 44 441 70 C451 93 457 123 457 159 L457 370 C457 423 446 461 422 487 C392 520 345 535 275 535 C205 535 158 520 127 488 C104 461 91 423 91 370 L91 159 C91 104 104 66 127 40 C157 8 204 -8 275 -8 L289 -8 Z M351 343 L351 185 C351 159 346 138 336 123 C324 107 305 100 279 100 L269 100 C236 100 198 115 198 185 L198 343 C198 370 202 390 213 406 C225 421 243 428 269 428 L279 428 C313 428 351 414 351 343 L351 343 Z " />
<glyph glyph-name="r" unicode="r" horiz-adv-x="495" d="M106 503 L106 25 L94 12 C90 7 93 0 99 0 L220 0 C227 0 231 5 224 12 L211 25 L211 140 L242 140 L294 25 L284 12 C279 6 284 0 289 0 L415 0 C422 0 426 9 421 12 L407 26 L347 158 C369 168 385 186 396 209 C406 229 411 255 411 283 L411 384 C411 427 401 462 380 485 C356 514 318 528 268 528 L99 528 C92 528 90 521 94 517 L106 503 Z M211 239 L211 428 L224 428 C257 428 276 424 288 414 C301 405 306 388 306 360 L306 308 C306 281 301 265 288 255 C275 244 256 239 224 239 L211 239 Z " />
<glyph glyph-name="s" unicode="s" horiz-adv-x="517" d="M143 281 C176 254 215 235 253 221 C287 209 344 186 339 146 C334 111 307 99 277 99 C244 99 214 123 200 149 L203 171 C204 180 196 181 192 178 L102 107 C99 105 98 103 99 100 C124 23 208 -8 282 -8 C349 -8 398 14 429 58 C456 96 460 141 461 163 C464 249 379 295 313 324 C278 339 206 359 210 397 C212 422 250 430 269 430 C303 430 328 411 346 387 L343 369 C342 362 348 359 353 362 L440 419 C444 421 445 424 443 427 C408 497 355 534 281 534 C189 534 93 486 91 388 C90 347 107 312 143 281 L143 281 Z " />
<glyph glyph-name="t" unicode="t" horiz-adv-x="508" d="M116 428 L212 428 L212 25 L200 12 C196 8 199 0 205 0 L325 0 C332 0 334 8 330 12 L318 25 L318 428 L414 428 L427 416 C431 412 439 416 439 422 L439 520 C439 525 436 528 431 528 L99 528 C95 528 91 524 91 520 L91 422 C91 416 100 412 104 416 L116 428 Z " />
<glyph glyph-name="u" unicode="u" horiz-adv-x="556" d="M106 503 L106 159 C106 104 117 66 142 40 C171 8 218 -8 289 -8 C358 -8 406 8 435 40 C460 66 471 104 471 159 L471 503 L484 517 C488 521 484 528 479 528 L358 528 C351 528 350 520 353 517 L366 503 L366 185 C366 158 361 138 351 123 C338 107 320 100 294 100 L284 100 C251 100 212 115 212 185 L211 503 L224 517 C228 521 226 528 218 528 L99 528 C92 528 90 522 94 517 L106 503 Z " />
<glyph glyph-name="v" unicode="v" horiz-adv-x="570" d="M106 503 L235 24 L226 11 C223 7 226 0 233 0 L358 0 C365 0 367 6 364 11 L356 24 L485 503 L498 517 C502 522 499 528 492 528 L372 528 C366 528 364 522 368 517 L380 504 L295 192 L212 504 L224 517 C228 521 224 528 218 528 L99 528 C92 528 90 521 94 517 L106 503 Z " />
<glyph glyph-name="w" unicode="w" horiz-adv-x="785" d="M571 24 L700 503 L713 517 C717 521 713 528 708 528 L587 528 C581 528 579 520 582 517 L594 504 L512 197 L444 503 L456 517 C460 521 457 528 450 528 L323 528 C317 528 315 521 318 517 L331 503 L363 385 L297 184 L212 504 L224 517 C228 521 224 528 218 528 L99 528 C92 528 90 521 94 517 L106 503 L235 24 L227 11 C224 6 227 0 234 0 L331 0 C333 0 336 2 337 4 L410 207 L465 5 C465 3 468 0 472 0 L574 0 C579 0 581 7 579 11 L571 24 Z " />
<glyph glyph-name="x" unicode="x" horiz-adv-x="560" d="M99 0 L218 0 C225 0 227 9 224 12 L212 24 L287 183 L291 190 L294 183 L369 24 L356 12 C352 8 356 0 362 0 L483 0 C488 0 491 9 487 12 L474 26 L355 283 L452 503 L465 517 C469 522 465 528 459 528 L339 528 C332 528 330 521 334 517 L346 504 L291 382 L235 504 L246 517 C251 523 246 528 241 528 L122 528 C115 528 112 521 116 517 L128 503 L225 283 L106 26 L94 12 C90 7 93 0 99 0 L99 0 Z " />
<glyph glyph-name="y" unicode="y" horiz-adv-x="519" d="M106 503 L218 250 L218 25 L207 12 C202 6 206 0 212 0 L332 0 C339 0 340 9 337 12 L325 25 L325 250 L434 503 L447 517 C451 521 447 528 442 528 L321 528 C315 528 313 520 316 517 L329 504 L271 390 L212 504 L224 517 C228 521 224 528 218 528 L99 528 C92 528 90 521 94 517 L106 503 Z " />
<glyph glyph-name="z" unicode="z" horiz-adv-x="486" d="M116 428 L287 428 L94 99 C93 97 93 96 93 96 L93 7 C93 2 97 0 100 0 L409 0 C414 0 416 4 416 7 L416 106 C416 114 409 115 405 112 L392 100 L221 100 L414 429 C415 430 415 431 415 432 L415 522 C415 523 414 528 409 528 C406 528 410 528 99 528 C95 528 91 525 91 521 L91 422 C91 415 99 411 104 416 L116 428 Z " />
<glyph glyph-name="braceleft" unicode="&#x7b;" horiz-adv-x="351" d="M205 592 C154 590 113 561 105 512 C96 460 121 394 119 341 C118 303 108 278 94 265 C91 262 91 256 95 253 C111 241 118 216 119 178 C120 146 114 107 106 63 C102 43 102 24 105 6 C114 -44 157 -73 205 -73 L274 -73 C277 -73 281 -70 281 -66 L281 43 C281 48 273 51 269 47 L256 36 L241 36 C212 36 206 67 210 88 C216 123 227 150 227 181 C227 210 218 236 200 259 C218 283 227 309 227 337 C227 372 214 400 210 430 C206 454 214 483 241 483 L256 483 L269 470 C274 465 281 470 281 475 L281 585 C281 588 277 592 274 592 L205 592 Z " />
<glyph glyph-name="bar" unicode="&#x7c;" horiz-adv-x="267" d="M98 563 C95 563 91 560 91 557 L91 360 L91 -37 C91 -40 95 -44 98 -44 L191 -44 C194 -44 198 -40 198 -37 L198 360 L198 557 L198 558 C197 560 193 563 191 563 L99 563 L98 563 Z " />
<glyph glyph-name="braceright" unicode="&#x7d;" horiz-adv-x="351" d="M170 592 L101 592 C97 592 94 588 94 585 L94 475 C94 468 103 467 106 470 L119 483 L133 483 C163 483 169 453 165 430 C157 385 148 363 148 337 C148 309 157 283 174 259 C157 236 148 210 148 181 C148 147 159 117 165 88 C171 62 160 36 133 36 L119 36 L106 47 C102 51 94 48 94 43 L94 -66 C94 -70 97 -73 101 -73 L170 -73 C203 -73 231 -62 249 -39 C259 -27 266 -11 269 6 C279 54 256 126 256 178 C256 216 265 241 281 254 C286 258 284 262 281 265 C266 278 256 303 256 341 C256 399 281 459 269 512 C266 530 259 544 249 558 C231 579 203 592 170 592 L170 592 Z " />
<glyph glyph-name="asciitilde" unicode="&#x7e;" horiz-adv-x="507" d="M304 221 C316 221 325 216 335 191 C336 187 338 185 342 185 L429 185 C432 185 436 187 436 192 C436 218 426 247 412 269 C397 291 371 317 325 317 C295 317 268 307 248 289 C240 282 234 277 222 277 C201 277 196 295 192 310 C192 313 189 316 185 316 L98 316 C94 316 91 313 91 310 C92 284 102 254 116 233 C131 210 158 183 205 183 C243 183 261 195 274 207 C284 215 294 221 304 221 L304 221 Z " />
<glyph glyph-name="exclamdown" unicode="&#xa1;" horiz-adv-x="382" d="M122 245 C118 245 115 242 115 238 L94 -119 C94 -122 96 -126 101 -126 L232 -126 C235 -126 239 -125 239 -119 L217 238 C217 242 214 245 210 245 L122 245 Z M163 269 C201 269 232 300 232 339 C232 378 201 410 163 410 C123 410 92 378 92 339 C92 300 123 269 163 269 L163 269 Z " />
<glyph glyph-name="cent" unicode="&#xa2;" horiz-adv-x="464" d="M393 312 C393 351 387 380 371 401 C353 426 325 440 284 446 L284 505 C284 509 281 512 277 512 L208 512 C204 512 200 509 200 505 L200 446 C160 440 132 426 114 401 C99 379 91 351 91 312 L91 209 C91 169 98 141 114 120 C132 94 160 80 200 73 L200 12 C200 9 204 5 208 5 L277 5 C281 5 284 9 284 12 L284 73 C364 89 393 132 393 209 L393 249 C393 253 389 256 387 256 L302 256 C294 256 292 246 296 243 L306 235 L306 230 C306 188 287 161 247 161 L238 161 C211 161 180 173 180 230 L180 291 C180 313 183 331 194 343 C203 354 218 360 238 360 L247 360 C278 360 298 344 303 312 L296 304 C292 299 295 293 302 293 L387 293 C389 293 393 295 393 299 L393 312 Z " />
<glyph glyph-name="sterling" unicode="&#xa3;" horiz-adv-x="544" d="M362 216 C354 216 352 207 356 203 L370 191 L370 184 C370 158 363 138 353 123 C341 106 322 99 297 99 L231 99 L231 207 L301 207 C304 207 308 210 308 215 L308 306 C308 310 304 313 301 313 L231 313 L231 339 C231 367 235 389 243 405 C252 420 263 427 277 427 L278 427 C293 427 304 427 314 422 C326 415 334 403 341 382 L338 365 C337 359 345 355 350 359 L444 426 C446 428 447 431 446 435 C421 503 359 534 289 534 L269 534 C231 534 195 520 167 492 C141 465 125 429 125 390 L125 313 L98 313 C95 313 91 310 91 306 L91 215 C91 210 95 207 98 207 L125 207 L125 7 C125 4 128 0 132 0 L292 0 C362 0 409 14 439 44 C463 69 474 105 474 158 L474 209 C474 213 471 216 467 216 L362 216 Z " />
<glyph glyph-name="currency" unicode="&#xa4;" horiz-adv-x="577" d="M397 86 L446 38 C449 35 453 35 456 38 L504 86 C507 89 507 94 504 97 L461 140 C474 164 482 196 482 237 L482 287 C482 329 475 360 461 385 L504 428 C507 431 507 435 504 438 L456 486 C452 490 449 489 446 486 L397 439 C371 448 337 453 299 453 C260 453 226 448 200 439 L152 486 C148 490 145 489 143 487 C137 481 124 468 94 438 C90 435 91 431 94 428 L137 385 C123 360 116 329 116 287 L116 237 C116 196 123 164 137 140 L94 97 C90 94 90 90 94 86 L142 38 C144 35 150 36 152 38 L200 86 C226 76 260 71 299 71 C337 71 371 76 397 86 L397 86 Z M376 264 L376 260 C376 211 351 179 304 179 L294 179 C244 179 222 217 221 260 L221 264 C223 313 246 346 294 346 L304 346 C355 346 374 308 376 264 L376 264 Z " />
<glyph glyph-name="yen" unicode="&#xa5;" horiz-adv-x="518" d="M442 528 L321 528 C314 528 312 521 316 517 L329 504 L271 390 L212 504 L224 517 C228 521 225 528 218 528 L98 528 C91 528 89 521 93 517 L106 503 L198 297 L176 297 C172 297 168 295 168 291 L168 221 C168 216 173 215 176 215 L218 215 L218 192 L176 192 C172 192 168 190 168 185 L168 116 C168 112 173 109 176 109 L218 109 L218 25 L207 12 C202 6 206 0 211 0 L332 0 C337 0 342 7 337 12 L324 25 L324 109 L368 109 C371 109 374 113 374 116 L374 185 C374 190 370 192 368 192 L324 192 L324 215 L368 215 C371 215 374 218 374 221 L374 291 C374 294 372 297 368 297 L346 297 L434 503 L446 517 C450 521 448 528 442 528 L442 528 Z " />
<glyph glyph-name="brokenbar" unicode="&#xa6;" horiz-adv-x="267" d="M190 286 C194 286 198 289 198 293 L198 556 C198 561 196 564 190 564 L98 564 C95 564 91 560 91 558 L91 293 C91 288 94 286 98 286 L190 286 Z M91 -36 C91 -39 94 -43 98 -43 L190 -43 C194 -43 198 -40 198 -36 L198 229 C198 234 194 236 190 236 L98 236 C95 236 91 234 91 229 L91 -36 Z " />
<glyph glyph-name="section" unicode="&#xa7;" horiz-adv-x="542" d="M371 4 C393 35 397 72 397 91 C397 101 397 108 396 116 C424 130 446 151 458 181 C468 207 471 232 471 244 C472 270 465 293 448 312 L439 322 C419 342 389 361 350 378 C309 395 286 406 275 414 C263 424 262 429 263 438 C265 453 291 465 312 465 C334 465 351 453 364 442 C370 436 373 431 374 428 L372 416 C371 411 378 404 383 408 L453 455 C457 457 458 462 456 465 C447 480 438 499 422 515 C420 517 417 519 414 521 C390 542 361 551 322 551 C277 551 237 541 210 519 C181 498 166 466 165 430 C165 414 167 399 174 386 C149 377 129 363 115 345 C100 326 92 303 91 276 C90 247 103 220 125 197 L135 188 C155 171 183 156 218 141 C248 130 268 120 285 105 C294 96 296 87 295 77 C291 48 270 38 246 38 C235 38 220 42 209 49 C198 56 186 68 182 80 L184 96 C185 102 179 107 174 103 L100 47 C97 45 98 41 98 38 C108 2 142 -23 172 -37 C194 -47 219 -50 249 -50 C305 -50 346 -32 371 4 L371 4 Z M370 231 C368 217 354 200 332 200 C312 200 210 249 202 257 C192 265 189 274 190 285 C192 299 218 312 238 312 C282 312 330 286 358 258 C367 250 371 240 370 231 L370 231 Z " />
<glyph glyph-name="dieresis" unicode="&#xa8;" horiz-adv-x="330" d="M91 505 C91 484 109 465 131 465 C152 465 169 484 169 505 C169 526 152 543 131 543 C109 543 91 526 91 505 L91 505 Z M221 465 C243 465 260 484 260 505 C260 526 243 543 221 543 C200 543 183 526 183 505 C183 484 200 465 221 465 L221 465 Z " />
<glyph glyph-name="copyright" unicode="&#xa9;" horiz-adv-x="538" d="M294 465 L264 465 C169 465 91 384 91 294 L91 243 C91 148 173 70 264 70 L294 70 C390 70 466 152 466 243 L466 294 C466 389 384 465 294 465 L294 465 Z M399 293 L399 249 C399 186 348 139 289 139 L269 139 C208 139 159 191 159 249 L159 293 C159 353 212 403 269 403 L289 403 C350 403 399 351 399 293 L399 293 Z M279 384 C218 384 180 353 180 294 L180 247 C180 183 222 157 279 157 C338 157 379 179 379 240 L379 265 C379 269 374 272 371 272 L321 272 C314 272 313 264 320 257 L320 254 C320 227 310 218 282 218 L276 218 C250 218 239 239 239 261 L239 279 C239 306 251 324 276 324 L282 324 C297 324 306 322 312 316 C315 313 317 309 318 303 C312 295 316 288 321 288 L371 288 C375 288 379 292 379 295 C378 366 344 384 279 384 L279 384 Z " />
<glyph glyph-name="ordfeminine" unicode="&#xaa;" horiz-adv-x="274" d="M49 336 L109 336 C113 336 113 340 112 342 L106 348 L118 394 L177 394 L190 348 L184 342 C181 339 183 336 186 336 L246 336 C250 336 251 340 249 342 L242 348 L178 588 L182 594 C184 596 182 600 179 600 L117 600 C113 600 112 597 113 594 L117 588 L53 348 L47 342 C44 339 46 336 49 336 L49 336 Z M131 444 L147 504 L164 444 L131 444 Z " />
<glyph glyph-name="guillemotleft" unicode="&#xab;" horiz-adv-x="568" d="M95 230 L294 99 C299 96 306 99 306 105 L306 197 C306 199 305 201 302 202 L167 264 L302 326 C304 327 306 329 306 332 L306 423 C306 429 299 431 294 429 L95 298 C93 296 91 294 91 293 L91 236 C91 235 92 233 94 231 C94 231 94 230 95 230 L95 230 Z M287 298 C286 296 284 294 284 293 L284 236 C284 235 286 230 287 230 L487 99 C491 96 499 99 499 105 L499 197 C499 199 497 201 494 202 L360 264 L494 326 C497 327 499 329 499 332 L499 423 C499 430 491 431 487 429 L287 298 Z " />
<glyph glyph-name="logicalnot" unicode="&#xac;" horiz-adv-x="433" d="M356 346 L99 346 C95 346 91 342 91 338 L91 269 C91 265 95 262 99 262 L280 262 L280 206 C280 202 284 199 287 199 L356 199 C361 199 363 202 363 206 L363 338 C363 342 361 346 356 346 L356 346 Z " />
<glyph glyph-name="uni00AD" unicode="&#xad;" horiz-adv-x="367" d="M99 317 C95 317 91 315 91 311 L91 241 C91 237 95 235 99 235 L291 235 C294 235 297 237 297 241 L297 311 C297 313 294 317 291 317 L99 317 Z " />
<glyph glyph-name="registered" unicode="&#xae;" horiz-adv-x="474" d="M248 210 C338 210 405 291 405 374 C405 465 336 540 248 540 C158 540 91 457 91 374 C91 286 162 210 248 210 L248 210 Z M188 471 C206 484 226 491 248 491 C277 491 303 478 321 459 C341 438 352 410 352 381 L352 372 C352 346 342 318 324 297 C303 276 277 262 248 262 C220 262 199 274 175 294 C155 318 144 346 144 372 L144 381 C144 416 161 451 188 471 L188 471 Z M193 452 L193 302 C191 297 192 291 198 291 L231 291 C238 291 238 299 235 302 L235 332 L249 332 L262 302 C259 296 261 291 268 291 L303 291 C310 291 312 298 309 302 L308 303 L289 343 C302 352 308 368 308 388 L308 408 C308 427 303 440 294 449 C285 459 271 464 253 464 L198 464 C192 464 189 456 193 452 L193 452 Z M235 376 L235 426 L237 426 C250 426 257 424 261 420 C265 416 266 411 266 403 L266 399 C266 381 259 376 237 376 L235 376 Z " />
<glyph glyph-name="macron" unicode="&#xaf;" horiz-adv-x="367" d="M91 532 L91 478 C91 474 95 471 99 471 L291 471 C294 471 297 474 297 478 L297 532 C297 536 294 539 291 539 L99 539 C95 539 91 536 91 532 L91 532 Z " />
<glyph glyph-name="degree" unicode="&#xb0;" horiz-adv-x="322" d="M253 505 C250 557 221 579 173 579 C122 579 91 555 91 505 L91 484 C94 431 125 410 173 410 C223 410 253 435 253 484 L253 505 L253 505 Z M199 495 C199 483 196 466 175 466 L170 466 C153 467 146 480 146 495 C146 507 149 523 170 523 L175 523 C193 522 199 510 199 495 L199 495 Z " />
<glyph glyph-name="plusminus" unicode="&#xb1;" horiz-adv-x="367" d="M297 124 L297 194 C297 199 294 200 291 200 L99 200 C95 200 91 199 91 194 L91 124 C91 122 95 118 99 118 L291 118 C294 118 297 122 297 124 L297 124 Z M91 355 L91 286 C91 283 95 279 99 279 L151 279 L151 226 C151 221 155 218 159 218 L231 218 C235 218 237 221 237 226 L237 279 L291 279 C294 279 297 283 297 286 L297 355 C297 360 294 363 291 363 L237 363 L237 417 C237 421 235 424 231 424 L159 424 C155 424 151 421 151 417 L151 363 L99 363 C95 363 91 360 91 355 L91 355 Z " />
<glyph glyph-name="twosuperior" unicode="&#xb2;" horiz-adv-x="274" d="M98 500 C100 499 104 501 102 504 L99 512 C99 532 111 550 130 550 C142 550 152 544 158 535 C175 510 142 492 126 483 C87 461 47 433 47 385 L47 339 C47 338 49 336 51 336 L206 336 C209 336 210 338 210 339 L210 392 C210 395 206 397 204 395 L197 389 L109 389 C111 408 153 425 168 436 C204 460 222 489 220 521 C218 546 208 567 192 581 C176 596 155 603 130 603 C89 603 44 575 46 532 C46 530 47 529 48 528 L98 500 Z " />
<glyph glyph-name="threesuperior" unicode="&#xb3;" horiz-adv-x="263" d="M125 332 C176 332 210 370 210 418 C210 458 181 483 147 494 L201 547 C202 548 202 548 202 549 L202 596 C202 597 202 600 198 600 L52 600 C49 600 48 598 48 597 L48 543 C48 540 51 539 53 541 L60 547 L125 547 L65 493 C64 493 64 492 64 491 L64 446 C64 444 67 442 69 443 C72 445 88 450 109 450 L111 450 C129 450 154 435 154 415 C154 397 138 385 121 385 C110 385 90 396 91 408 L92 415 C92 418 90 420 88 419 L47 387 C46 386 45 385 46 383 C62 351 89 332 125 332 L125 332 Z " />
<glyph glyph-name="acute" unicode="&#xb4;" horiz-adv-x="251" d="M92 475 C91 470 96 467 99 467 L130 467 C132 467 135 468 138 473 L180 534 C185 541 181 545 174 545 L112 545 C108 545 106 543 105 540 L92 475 Z " />
<glyph glyph-name="mu" unicode="&#xb5;" horiz-adv-x="596" d="M94 12 C90 7 93 0 99 0 L218 0 C225 0 227 9 224 12 L211 25 L211 331 L303 214 C306 210 311 210 314 214 L406 344 L406 25 L393 12 C389 8 392 0 398 0 L518 0 C525 0 527 8 523 12 L511 25 L511 503 L523 517 C528 522 524 528 518 528 L410 528 C408 528 406 527 405 525 L313 389 L212 525 C211 527 209 528 207 528 L99 528 C92 528 90 521 94 517 L106 503 L106 25 L94 12 Z " />
<glyph glyph-name="paragraph" unicode="&#xb6;" horiz-adv-x="583" d="M500 503 L511 517 C515 522 511 528 506 528 L222 528 C176 528 142 510 120 483 C101 459 91 426 91 384 L91 283 C91 194 152 140 236 140 L241 140 L241 25 L228 12 C224 8 229 0 234 0 L353 0 C360 0 362 8 358 12 L346 25 L346 428 L393 428 L393 25 L381 12 C378 7 381 0 387 0 L506 0 C513 0 516 8 511 12 L500 25 L500 503 Z " />
<glyph glyph-name="periodcentered" unicode="&#xb7;" horiz-adv-x="303" d="M161 206 C200 206 233 238 233 277 C233 316 200 347 161 347 C123 347 91 316 91 277 C91 238 123 206 161 206 L161 206 Z " />
<glyph glyph-name="cedilla" unicode="&#xb8;" horiz-adv-x="304" d="M171 -12 L164 -12 L164 17 C164 21 161 24 157 24 L99 24 C95 24 91 21 91 17 L91 -20 C91 -47 93 -63 102 -73 C109 -82 123 -84 145 -84 L149 -84 C158 -84 161 -86 161 -92 C161 -104 147 -103 124 -103 C118 -103 107 -102 107 -109 L107 -167 C107 -171 110 -175 115 -175 L155 -175 C207 -175 234 -148 234 -98 L234 -83 C234 -60 232 -42 223 -30 C211 -13 189 -12 171 -12 L171 -12 Z " />
<glyph glyph-name="onesuperior" unicode="&#xb9;" horiz-adv-x="189" d="M60 517 L76 534 L76 348 L70 342 C68 339 70 336 72 336 L133 336 C136 336 137 340 135 342 L129 348 L129 587 L135 594 C138 596 136 599 133 599 L79 599 C78 599 76 599 75 597 L46 557 C46 557 45 556 45 555 L47 509 C47 505 52 504 54 507 L60 517 Z " />
<glyph glyph-name="ordmasculine" unicode="&#xba;" horiz-adv-x="322" d="M253 505 C253 556 221 579 173 579 C122 579 91 555 91 505 L91 484 C94 432 125 410 173 410 C225 410 253 435 253 484 L253 505 L253 505 Z M199 495 C199 483 196 466 175 466 L170 466 C153 467 146 480 146 495 C146 507 149 523 170 523 L175 523 C193 522 199 510 199 495 L199 495 Z " />
<glyph glyph-name="guillemotright" unicode="&#xbb;" horiz-adv-x="568" d="M306 236 L306 293 C306 296 304 298 303 298 L103 429 C98 433 91 430 91 423 L91 332 C91 329 94 327 96 326 L230 264 L96 202 C93 201 91 199 91 197 L91 105 C91 98 99 96 103 99 L303 230 C305 231 306 234 306 236 L306 236 Z M288 202 C286 201 284 199 284 197 L284 105 C284 98 291 97 294 99 L495 230 C498 232 499 234 499 236 L499 292 C499 295 497 297 495 298 L294 429 C290 432 284 427 284 423 L284 332 C284 330 284 329 286 328 C288 327 287 327 423 264 L288 202 Z " />
<glyph glyph-name="onequarter" unicode="&#xbc;" horiz-adv-x="876" d="M561 521 C563 526 560 531 555 531 L463 531 C461 531 459 531 457 526 L261 -2 C259 -7 262 -11 266 -11 L359 -11 C361 -11 365 -10 366 -7 L561 521 Z M90 404 L115 430 L115 152 L106 142 C103 138 106 133 109 133 L199 133 C204 133 206 139 203 142 L193 152 L193 510 L203 520 C207 524 204 528 199 528 L118 528 C117 528 115 528 112 525 L70 465 C69 464 68 463 68 462 L71 392 C71 386 78 386 81 390 L90 404 Z M688 106 L688 19 L679 9 C676 6 679 0 682 0 L773 0 C778 0 781 5 777 9 L767 19 L767 106 L796 106 L805 97 C809 94 814 97 814 101 L814 176 C814 179 813 181 809 181 L767 181 L767 378 L777 388 C780 391 777 396 773 396 L691 396 C689 396 688 395 687 394 L541 181 C540 181 539 179 539 177 L539 112 C539 109 542 106 545 106 L688 106 Z M629 181 L688 272 L688 181 L629 181 Z " />
<glyph glyph-name="onehalf" unicode="&#xbd;" horiz-adv-x="908" d="M561 521 C563 526 560 531 555 531 L463 531 C461 531 459 531 457 526 L261 -2 C259 -7 262 -11 266 -11 L359 -11 C361 -11 365 -10 366 -7 L561 521 Z M90 404 L115 430 L115 152 L106 142 C103 138 106 133 109 133 L199 133 C204 133 206 139 203 142 L193 152 L193 510 L203 520 C207 524 204 528 199 528 L118 528 C117 528 115 528 112 525 L70 465 C69 464 68 463 68 462 L71 392 C71 386 78 386 81 390 L90 404 Z M664 246 C667 244 673 247 671 253 L665 264 C665 295 684 321 713 321 C731 321 746 312 755 298 C780 261 730 234 706 220 C647 187 588 146 588 73 L588 5 C588 3 590 0 593 0 L827 0 C830 0 832 3 832 5 L832 85 C832 89 826 91 823 88 L813 79 L680 79 C683 108 747 134 770 150 C824 187 850 229 847 278 C844 316 830 346 806 368 C781 390 749 401 712 401 C650 401 584 359 586 295 C586 292 587 290 590 289 L664 246 Z " />
<glyph glyph-name="threequarters" unicode="&#xbe;" horiz-adv-x="947" d="M635 521 C637 526 634 531 629 531 L537 531 C535 531 533 531 531 526 L335 -2 C333 -7 336 -11 340 -11 L433 -11 C435 -11 439 -10 440 -7 L635 521 Z M188 127 C265 127 315 184 315 257 C315 316 272 353 220 371 L302 450 C303 451 304 452 304 453 L304 523 C304 525 304 529 298 529 L78 529 C74 529 72 527 72 524 L72 444 C72 440 77 437 80 440 L91 450 L187 450 L97 369 C97 368 96 368 96 366 L96 298 C96 296 100 293 103 294 C109 297 132 304 163 304 L166 304 C194 304 231 282 231 252 C231 224 207 207 182 207 C166 207 136 223 137 242 L138 251 C139 257 135 259 133 257 L70 210 C69 209 67 206 69 204 C93 155 134 127 188 127 L188 127 Z M759 106 L759 19 L750 9 C747 6 750 0 753 0 L844 0 C849 0 852 5 848 9 L838 19 L838 106 L867 106 L876 97 C880 94 885 97 885 101 L885 176 C885 179 884 181 880 181 L838 181 L838 378 L848 388 C851 391 848 396 844 396 L762 396 C760 396 759 395 758 394 L612 181 C611 181 610 179 610 177 L610 112 C610 109 613 106 616 106 L759 106 Z M700 181 L759 272 L759 181 L700 181 Z " />
<glyph glyph-name="questiondown" unicode="&#xbf;" horiz-adv-x="507" d="M112 60 C98 36 91 9 94 -19 C102 -112 195 -159 273 -159 C357 -159 446 -90 438 -4 C438 -1 437 2 434 3 L335 54 C330 56 323 52 326 44 L334 23 C334 -16 310 -52 270 -52 C228 -52 205 -22 220 15 C234 48 286 74 313 95 C337 111 351 133 358 159 C363 178 364 196 362 210 C361 214 358 216 354 216 L258 216 C254 216 251 213 251 210 C252 195 250 183 240 170 C230 156 211 141 175 120 C146 102 125 82 112 60 L112 60 Z M304 242 C342 242 373 273 373 312 C373 351 342 383 304 383 C264 383 233 351 233 312 C233 273 264 242 304 242 L304 242 Z " />
<glyph glyph-name="Agrave" unicode="&#xc0;" horiz-adv-x="571" d="M99 0 L218 0 C226 0 227 9 224 12 L212 24 L237 117 L354 117 L380 24 L368 12 C363 7 367 0 372 0 L493 0 C500 0 502 9 499 12 L485 25 L356 504 L365 517 C368 521 365 528 359 528 L234 528 C226 528 224 522 227 517 L235 504 L106 25 L94 12 C89 7 93 0 99 0 L99 0 Z M263 216 L295 337 L329 216 L263 216 Z M279 615 C280 612 282 611 285 611 L310 611 C314 611 318 613 317 619 L307 686 C306 690 304 693 300 693 L248 693 C244 693 239 688 242 683 L279 615 L279 615 Z " />
<glyph glyph-name="Aacute" unicode="&#xc1;" horiz-adv-x="571" d="M99 0 L218 0 C226 0 227 9 224 12 L212 24 L237 117 L354 117 L380 24 L368 12 C363 7 367 0 372 0 L493 0 C500 0 502 9 499 12 L485 25 L356 504 L365 517 C368 521 365 528 359 528 L234 528 C226 528 224 522 227 517 L235 504 L106 25 L94 12 C89 7 93 0 99 0 L99 0 Z M263 216 L295 337 L329 216 L263 216 Z M269 619 C268 615 273 611 276 611 L305 611 C311 611 311 613 314 616 C314 616 315 617 357 678 C362 685 354 689 351 689 L289 689 C284 689 282 686 282 684 L269 619 Z " />
<glyph glyph-name="Acircumflex" unicode="&#xc2;" horiz-adv-x="571" d="M99 0 L218 0 C226 0 227 9 224 12 L212 24 L237 117 L354 117 L380 24 L368 12 C363 7 367 0 372 0 L493 0 C500 0 502 9 499 12 L485 25 L356 504 L365 517 C368 521 365 528 359 528 L234 528 C226 528 224 522 227 517 L235 504 L106 25 L94 12 C89 7 93 0 99 0 L99 0 Z M263 216 L295 337 L329 216 L263 216 Z M193 612 L255 612 C257 612 259 613 260 615 L302 664 L331 616 C332 614 334 612 337 612 L401 612 C408 612 409 620 407 623 L354 700 C353 702 350 704 348 704 L263 704 C261 704 259 703 258 701 L188 624 C183 619 187 612 193 612 L193 612 Z " />
<glyph glyph-name="Atilde" unicode="&#xc3;" horiz-adv-x="571" d="M99 0 L218 0 C226 0 227 9 224 12 L212 24 L237 117 L354 117 L380 24 L368 12 C363 7 367 0 372 0 L493 0 C500 0 502 9 499 12 L485 25 L356 504 L365 517 C368 521 365 528 359 528 L234 528 C226 528 224 522 227 517 L235 504 L106 25 L94 12 C89 7 93 0 99 0 L99 0 Z M263 216 L295 337 L329 216 L263 216 Z M334 703 C301 701 284 670 270 670 C256 670 252 685 252 689 C252 693 249 695 245 695 L193 695 C188 695 185 691 185 687 C185 646 209 602 257 602 C290 602 304 633 321 633 C331 633 339 625 339 616 C339 612 344 610 346 610 L399 610 C404 610 406 614 406 618 C406 659 375 703 334 703 L334 703 Z " />
<glyph glyph-name="Adieresis" unicode="&#xc4;" horiz-adv-x="571" d="M99 0 L218 0 C226 0 227 9 224 12 L212 24 L237 117 L354 117 L380 24 L368 12 C363 7 367 0 372 0 L493 0 C500 0 502 9 499 12 L485 25 L356 504 L365 517 C368 521 365 528 359 528 L234 528 C226 528 224 522 227 517 L235 504 L106 25 L94 12 C89 7 93 0 99 0 L99 0 Z M263 216 L295 337 L329 216 L263 216 Z M212 649 C212 628 230 609 252 609 C273 609 290 628 290 649 C290 670 273 687 252 687 C230 687 212 670 212 649 L212 649 Z M342 609 C364 609 381 628 381 649 C381 670 364 687 342 687 C321 687 304 670 304 649 C304 628 321 609 342 609 L342 609 Z " />
<glyph glyph-name="Aring" unicode="&#xc5;" horiz-adv-x="570" d="M486 25 L360 494 C374 507 377 530 377 547 L377 568 C377 621 342 642 296 642 C244 642 217 615 217 568 L217 547 C217 524 224 504 233 493 L106 25 L94 12 C89 8 94 0 99 0 L219 0 C226 0 228 9 225 12 L213 24 L237 117 L355 117 L380 24 L369 12 C364 8 369 0 373 0 L493 0 C500 0 503 9 499 12 L486 25 Z M264 217 L296 337 L329 217 L264 217 Z M294 586 L298 586 C316 586 322 573 322 559 C322 546 320 529 298 529 L294 529 C276 529 271 544 271 559 C271 570 273 586 294 586 L294 586 Z " />
<glyph glyph-name="AE" unicode="&#xc6;" horiz-adv-x="733" d="M377 117 L377 25 L364 12 C360 8 364 0 370 0 L655 0 C659 0 662 4 662 7 L662 106 C662 114 655 116 651 112 L637 100 L483 100 L483 218 L599 218 L611 207 C617 202 623 204 623 212 L623 327 C623 334 614 335 611 332 L599 319 L483 319 L483 428 L637 428 L651 416 C655 411 662 415 662 422 L662 522 C662 525 659 528 655 528 L297 528 C292 528 289 520 293 517 L305 503 L106 25 L93 12 C89 8 93 0 98 0 L218 0 C225 0 227 9 224 12 L212 24 L251 117 L377 117 Z M377 421 L377 217 L292 217 L377 421 Z " />
<glyph glyph-name="Ccedilla" unicode="&#xc7;" horiz-adv-x="526" d="M418 495 C389 525 341 539 275 539 C205 539 157 523 127 491 C103 465 91 427 91 372 L91 162 C91 60 140 11 235 -3 L235 -31 C235 -85 241 -96 288 -96 L293 -96 C300 -96 304 -99 304 -103 C304 -107 304 -110 294 -113 C286 -115 275 -115 268 -115 L257 -115 C253 -115 251 -118 251 -122 L251 -180 C251 -184 254 -186 257 -186 L296 -186 C327 -186 346 -181 359 -167 C371 -156 376 -138 376 -110 L376 -96 C376 -73 374 -55 366 -43 L363 -39 C350 -26 330 -24 313 -24 L306 -24 L306 -4 C359 1 397 16 421 44 C446 70 457 107 457 162 L457 213 C457 217 453 219 449 219 L345 219 C337 219 335 212 339 208 L351 195 L351 189 C351 138 329 104 279 104 L269 104 C217 104 197 144 197 189 L197 346 C197 397 221 431 269 431 L279 431 C321 431 342 409 351 373 L338 362 C333 358 337 350 344 350 L449 350 C454 350 457 353 457 356 L457 372 C457 427 446 465 422 491 C420 492 419 494 418 495 L418 495 Z " />
<glyph glyph-name="Egrave" unicode="&#xc8;" horiz-adv-x="463" d="M385 0 C389 0 392 4 392 7 L392 106 C392 113 385 117 380 112 L368 100 L212 100 L212 218 L329 218 L341 207 C345 203 353 206 353 212 L353 327 C353 335 344 336 341 332 L329 319 L212 319 L212 428 L368 428 L380 416 C386 410 392 416 392 422 L392 522 C392 525 389 528 385 528 L99 528 C92 528 90 521 94 517 L106 503 L106 25 L94 12 C90 7 93 0 99 0 L385 0 Z M225 615 C226 612 228 611 231 611 L256 611 C260 611 264 613 263 619 L253 686 C252 690 250 693 246 693 L194 693 C190 693 185 688 188 683 L225 615 L225 615 Z " />
<glyph glyph-name="Eacute" unicode="&#xc9;" horiz-adv-x="463" d="M385 0 C389 0 392 4 392 7 L392 106 C392 113 385 117 380 112 L368 100 L212 100 L212 218 L329 218 L341 207 C345 203 353 206 353 212 L353 327 C353 335 344 336 341 332 L329 319 L212 319 L212 428 L368 428 L380 416 C386 410 392 416 392 422 L392 522 C392 525 389 528 385 528 L99 528 C92 528 90 521 94 517 L106 503 L106 25 L94 12 C90 7 93 0 99 0 L385 0 Z M215 619 C214 615 219 611 222 611 L251 611 C257 611 257 613 260 616 C260 616 261 617 303 678 C308 685 300 689 297 689 L235 689 C230 689 228 686 228 684 L215 619 Z " />
<glyph glyph-name="Ecircumflex" unicode="&#xca;" horiz-adv-x="463" d="M385 0 C389 0 392 4 392 7 L392 106 C392 113 385 117 380 112 L368 100 L212 100 L212 218 L329 218 L341 207 C345 203 353 206 353 212 L353 327 C353 335 344 336 341 332 L329 319 L212 319 L212 428 L368 428 L380 416 C386 410 392 416 392 422 L392 522 C392 525 389 528 385 528 L99 528 C92 528 90 521 94 517 L106 503 L106 25 L94 12 C90 7 93 0 99 0 L385 0 Z M138 612 L200 612 C202 612 204 613 205 615 L247 664 L276 616 C277 614 279 612 282 612 L346 612 C353 612 354 620 352 623 L299 700 C298 702 295 704 293 704 L208 704 C206 704 204 703 203 701 L133 624 C128 619 132 612 138 612 L138 612 Z " />
<glyph glyph-name="Edieresis" unicode="&#xcb;" horiz-adv-x="463" d="M385 0 C389 0 392 4 392 7 L392 106 C392 113 385 117 380 112 L368 100 L212 100 L212 218 L329 218 L341 207 C345 203 353 206 353 212 L353 327 C353 335 344 336 341 332 L329 319 L212 319 L212 428 L368 428 L380 416 C386 410 392 416 392 422 L392 522 C392 525 389 528 385 528 L99 528 C92 528 90 521 94 517 L106 503 L106 25 L94 12 C90 7 93 0 99 0 L385 0 Z M157 649 C157 628 175 609 197 609 C218 609 235 628 235 649 C235 670 218 687 197 687 C175 687 157 670 157 649 L157 649 Z M287 609 C309 609 326 628 326 649 C326 670 309 687 287 687 C266 687 249 670 249 649 C249 628 266 609 287 609 L287 609 Z " />
<glyph glyph-name="Igrave" unicode="&#xcc;" horiz-adv-x="296" d="M94 12 C90 7 93 0 99 0 L218 0 C225 0 227 9 224 12 L211 25 L211 503 L224 517 C228 521 224 528 218 528 L99 528 C92 528 90 521 94 517 L106 503 L106 25 L94 12 Z M142 615 C143 612 145 611 148 611 L173 611 C177 611 181 613 180 619 L170 686 C169 690 167 693 163 693 L111 693 C107 693 102 688 105 683 L142 615 L142 615 Z " />
<glyph glyph-name="Iacute" unicode="&#xcd;" horiz-adv-x="296" d="M94 12 C90 7 93 0 99 0 L218 0 C225 0 227 9 224 12 L211 25 L211 503 L224 517 C228 521 224 528 218 528 L99 528 C92 528 90 521 94 517 L106 503 L106 25 L94 12 Z M132 619 C131 615 136 611 139 611 L168 611 C174 611 174 613 177 616 C177 616 178 617 220 678 C225 685 217 689 214 689 L152 689 C147 689 145 686 145 684 L132 619 Z " />
<glyph glyph-name="Icircumflex" unicode="&#xce;" horiz-adv-x="384" d="M94 12 C90 7 93 0 99 0 L218 0 C225 0 227 9 224 12 L211 25 L211 503 L224 517 C228 521 224 528 218 528 L99 528 C92 528 90 521 94 517 L106 503 L106 25 L94 12 Z M56 612 L118 612 C120 612 122 613 123 615 L165 664 L194 616 C195 614 197 612 200 612 L264 612 C271 612 272 620 270 623 L217 700 C216 702 213 704 211 704 L126 704 C124 704 122 703 121 701 L51 624 C46 619 50 612 56 612 L56 612 Z " />
<glyph glyph-name="Idieresis" unicode="&#xcf;" horiz-adv-x="330" d="M94 12 C90 7 93 0 99 0 L218 0 C225 0 227 9 224 12 L211 25 L211 503 L224 517 C228 521 224 528 218 528 L99 528 C92 528 90 521 94 517 L106 503 L106 25 L94 12 Z M74 649 C74 628 92 609 114 609 C135 609 152 628 152 649 C152 670 135 687 114 687 C92 687 74 670 74 649 L74 649 Z M204 609 C226 609 243 628 243 649 C243 670 226 687 204 687 C183 687 166 670 166 649 C166 628 183 609 204 609 L204 609 Z " />
<glyph glyph-name="Eth" unicode="&#xd0;" horiz-adv-x="566" d="M338 0 C440 0 497 61 497 158 L497 370 C497 474 435 528 338 528 L123 528 C117 528 115 521 119 517 L131 503 L131 312 L98 312 C95 312 91 308 91 304 L91 235 C91 231 96 228 98 228 L131 228 L131 25 L119 12 C115 8 118 0 123 0 L338 0 Z M332 235 L332 304 C332 309 329 312 326 312 L237 312 L237 428 L310 428 C365 428 390 395 390 346 L390 182 C390 131 357 100 310 100 L237 100 L237 228 L326 228 C330 228 332 231 332 235 L332 235 Z " />
<glyph glyph-name="Ntilde" unicode="&#xd1;" horiz-adv-x="517" d="M106 25 L94 12 C90 7 93 0 99 0 L218 0 C225 0 227 9 224 12 L211 25 L211 267 L321 21 L313 12 C309 8 312 0 318 0 L438 0 C445 0 447 8 443 12 L431 25 L431 503 L443 517 C447 522 444 528 438 528 L318 528 C312 528 309 521 313 517 L325 503 L325 266 L213 524 C212 527 209 528 206 528 L99 528 C92 528 90 521 94 517 L106 503 L106 25 Z M306 712 C273 710 256 679 242 679 C228 679 224 694 224 698 C224 702 221 704 217 704 L165 704 C160 704 157 700 157 696 C157 655 181 611 229 611 C262 611 276 642 293 642 C303 642 311 634 311 625 C311 621 316 619 318 619 L371 619 C376 619 378 623 378 627 C378 668 347 712 306 712 L306 712 Z " />
<glyph glyph-name="Ograve" unicode="&#xd2;" horiz-adv-x="527" d="M275 -8 C344 -8 391 8 422 40 C446 66 457 104 457 159 L457 370 C457 423 446 461 422 487 C392 520 344 535 275 535 C205 535 158 520 127 488 C104 461 91 423 91 370 L91 159 C91 104 104 66 127 40 C157 8 204 -8 275 -8 L275 -8 Z M351 343 L351 185 C351 159 346 138 336 123 C324 107 305 100 279 100 L269 100 C236 100 198 115 198 185 L198 343 C198 370 202 390 213 406 C225 421 243 428 269 428 L279 428 C313 428 351 414 351 343 L351 343 Z M257 615 C258 612 260 611 263 611 L288 611 C292 611 296 613 295 619 L285 686 C284 690 282 693 278 693 L226 693 C222 693 217 688 220 683 L257 615 L257 615 Z " />
<glyph glyph-name="Oacute" unicode="&#xd3;" horiz-adv-x="527" d="M275 -8 C344 -8 391 8 422 40 C446 66 457 104 457 159 L457 370 C457 423 446 461 422 487 C392 520 344 535 275 535 C205 535 158 520 127 488 C104 461 91 423 91 370 L91 159 C91 104 104 66 127 40 C157 8 204 -8 275 -8 L275 -8 Z M351 343 L351 185 C351 159 346 138 336 123 C324 107 305 100 279 100 L269 100 C236 100 198 115 198 185 L198 343 C198 370 202 390 213 406 C225 421 243 428 269 428 L279 428 C313 428 351 414 351 343 L351 343 Z M248 619 C247 615 252 611 255 611 L284 611 C290 611 290 613 293 616 C293 616 294 617 336 678 C341 685 333 689 330 689 L268 689 C263 689 261 686 261 684 L248 619 Z " />
<glyph glyph-name="Ocircumflex" unicode="&#xd4;" horiz-adv-x="527" d="M275 -8 C344 -8 391 8 422 40 C446 66 457 104 457 159 L457 370 C457 423 446 461 422 487 C392 520 344 535 275 535 C205 535 158 520 127 488 C104 461 91 423 91 370 L91 159 C91 104 104 66 127 40 C157 8 204 -8 275 -8 L275 -8 Z M351 343 L351 185 C351 159 346 138 336 123 C324 107 305 100 279 100 L269 100 C236 100 198 115 198 185 L198 343 C198 370 202 390 213 406 C225 421 243 428 269 428 L279 428 C313 428 351 414 351 343 L351 343 Z M171 620 L233 620 C235 620 237 621 238 623 L280 672 L309 624 C310 622 312 620 315 620 L379 620 C386 620 387 628 385 631 L332 708 C331 710 328 712 326 712 L241 712 C239 712 237 711 236 709 L166 632 C161 627 165 620 171 620 L171 620 Z " />
<glyph glyph-name="Otilde" unicode="&#xd5;" horiz-adv-x="527" d="M275 -8 C344 -8 391 8 422 40 C446 66 457 104 457 159 L457 370 C457 423 446 461 422 487 C392 520 344 535 275 535 C205 535 158 520 127 488 C104 461 91 423 91 370 L91 159 C91 104 104 66 127 40 C157 8 204 -8 275 -8 L275 -8 Z M351 343 L351 185 C351 159 346 138 336 123 C324 107 305 100 279 100 L269 100 C236 100 198 115 198 185 L198 343 C198 370 202 390 213 406 C225 421 243 428 269 428 L279 428 C313 428 351 414 351 343 L351 343 Z M312 712 C279 710 262 679 248 679 C234 679 230 694 230 698 C230 702 227 704 223 704 L171 704 C166 704 163 700 163 696 C163 655 187 611 235 611 C268 611 282 642 299 642 C309 642 317 634 317 625 C317 621 322 619 324 619 L377 619 C382 619 384 623 384 627 C384 668 353 712 312 712 L312 712 Z " />
<glyph glyph-name="Odieresis" unicode="&#xd6;" horiz-adv-x="527" d="M275 -8 C344 -8 391 8 422 40 C446 66 457 104 457 159 L457 370 C457 423 446 461 422 487 C392 520 344 535 275 535 C205 535 158 520 127 488 C104 461 91 423 91 370 L91 159 C91 104 104 66 127 40 C157 8 204 -8 275 -8 L275 -8 Z M351 343 L351 185 C351 159 346 138 336 123 C324 107 305 100 279 100 L269 100 C236 100 198 115 198 185 L198 343 C198 370 202 390 213 406 C225 421 243 428 269 428 L279 428 C313 428 351 414 351 343 L351 343 Z M189 658 C189 637 207 618 229 618 C250 618 267 637 267 658 C267 679 250 696 229 696 C207 696 189 679 189 658 L189 658 Z M319 618 C341 618 358 637 358 658 C358 679 341 696 319 696 C298 696 281 679 281 658 C281 637 298 618 319 618 L319 618 Z " />
<glyph glyph-name="multiply" unicode="&#xd7;" horiz-adv-x="363" d="M154 372 C150 376 146 375 143 372 L95 324 C92 321 92 316 95 313 L132 276 L94 238 C91 235 91 231 94 228 L144 177 C148 173 152 174 155 177 L193 216 L230 179 C234 175 237 176 240 179 L289 227 C292 230 291 235 289 237 L252 275 L290 313 C293 316 293 319 290 322 L239 373 C236 376 232 376 229 373 L191 335 L154 372 Z " />
<glyph glyph-name="Oslash" unicode="&#xd8;" horiz-adv-x="526" d="M228 -48 L242 -6 C252 -7 263 -8 275 -8 C394 -8 457 45 457 159 L457 370 C457 431 442 474 408 500 L425 549 C426 553 423 559 418 559 L328 559 C324 559 321 556 320 553 L313 534 C302 535 288 536 275 536 C157 536 91 486 91 370 L91 159 C91 107 105 53 146 24 L123 -44 C122 -48 126 -53 131 -53 L221 -53 C225 -53 227 -50 228 -48 L228 -48 Z M277 101 L351 327 L351 270 L351 185 C351 133 328 101 277 101 L277 101 Z M198 270 L198 344 C198 370 202 391 213 406 C225 421 243 429 269 429 L279 429 L198 180 C198 181 198 183 198 185 L198 270 Z " />
<glyph glyph-name="Ugrave" unicode="&#xd9;" horiz-adv-x="556" d="M106 503 L106 159 C106 37 176 -8 289 -8 C408 -8 471 44 471 159 L471 503 L484 517 C488 521 484 528 479 528 L358 528 C351 528 350 520 353 517 L366 503 L366 185 C366 134 343 100 294 100 L284 100 C251 100 212 115 212 185 L212 503 L224 517 C228 521 226 528 218 528 L99 528 C92 528 90 522 94 517 L106 503 Z M272 615 C273 612 275 611 278 611 L303 611 C307 611 311 613 310 619 L300 686 C299 690 297 693 293 693 L241 693 C237 693 232 688 235 683 L272 615 L272 615 Z " />
<glyph glyph-name="Uacute" unicode="&#xda;" horiz-adv-x="556" d="M106 503 L106 159 C106 37 176 -8 289 -8 C408 -8 471 44 471 159 L471 503 L484 517 C488 521 484 528 479 528 L358 528 C351 528 350 520 353 517 L366 503 L366 185 C366 134 343 100 294 100 L284 100 C251 100 212 115 212 185 L212 503 L224 517 C228 521 226 528 218 528 L99 528 C92 528 90 522 94 517 L106 503 Z M261 619 C260 615 265 611 268 611 L297 611 C303 611 303 613 306 616 C306 616 307 617 349 678 C354 685 346 689 343 689 L281 689 C276 689 274 686 274 684 L261 619 Z " />
<glyph glyph-name="Ucircumflex" unicode="&#xdb;" horiz-adv-x="556" d="M106 503 L106 159 C106 37 176 -8 289 -8 C408 -8 471 44 471 159 L471 503 L484 517 C488 521 484 528 479 528 L358 528 C351 528 350 520 353 517 L366 503 L366 185 C366 134 343 100 294 100 L284 100 C251 100 212 115 212 185 L212 503 L224 517 C228 521 226 528 218 528 L99 528 C92 528 90 522 94 517 L106 503 Z M185 612 L247 612 C249 612 251 613 252 615 L294 664 L323 616 C324 614 326 612 329 612 L393 612 C400 612 401 620 399 623 L346 700 C345 702 342 704 340 704 L255 704 C253 704 251 703 250 701 L180 624 C175 619 179 612 185 612 L185 612 Z " />
<glyph glyph-name="Udieresis" unicode="&#xdc;" horiz-adv-x="556" d="M106 503 L106 159 C106 37 176 -8 289 -8 C408 -8 471 44 471 159 L471 503 L484 517 C488 521 484 528 479 528 L358 528 C351 528 350 520 353 517 L366 503 L366 185 C366 134 343 100 294 100 L284 100 C251 100 212 115 212 185 L212 503 L224 517 C228 521 226 528 218 528 L99 528 C92 528 90 522 94 517 L106 503 Z M204 649 C204 628 222 609 244 609 C265 609 282 628 282 649 C282 670 265 687 244 687 C222 687 204 670 204 649 L204 649 Z M334 609 C356 609 373 628 373 649 C373 670 356 687 334 687 C313 687 296 670 296 649 C296 628 313 609 334 609 L334 609 Z " />
<glyph glyph-name="Yacute" unicode="&#xdd;" horiz-adv-x="519" d="M106 503 L218 250 L218 25 L207 12 C202 6 206 0 212 0 L332 0 C339 0 340 9 337 12 L325 25 L325 250 L434 503 L447 517 C451 521 447 528 442 528 L321 528 C315 528 313 520 316 517 L329 504 L271 390 L212 504 L224 517 C228 521 224 528 218 528 L99 528 C92 528 90 521 94 517 L106 503 Z M243 619 C242 615 247 611 250 611 L279 611 C285 611 285 613 288 616 C288 616 289 617 331 678 C336 685 328 689 325 689 L263 689 C258 689 256 686 256 684 L243 619 Z " />
<glyph glyph-name="Thorn" unicode="&#xde;" horiz-adv-x="483" d="M212 25 L212 92 L268 92 C358 92 411 152 411 237 L411 337 C411 430 358 482 268 482 L212 482 L212 503 L224 517 C228 521 225 528 218 528 L99 528 C92 528 89 520 94 517 L106 503 L106 25 L94 12 C89 8 93 0 99 0 L218 0 C226 0 228 8 224 12 L212 25 Z M306 260 C306 206 269 192 224 192 L212 192 L212 381 L224 381 C278 381 306 365 306 313 L306 260 Z " />
<glyph glyph-name="germandbls" unicode="&#xdf;" horiz-adv-x="526" d="M454 156 C450 210 423 250 380 276 C368 283 362 288 362 294 C362 298 365 304 372 310 C387 323 408 341 408 401 C408 495 319 527 241 527 L99 527 C92 527 89 519 94 516 L106 503 L106 24 L94 11 C89 7 93 -1 99 -1 L204 -1 C209 -1 211 3 211 6 L211 423 L247 423 C273 423 302 414 304 387 C306 362 292 343 269 337 C239 329 226 300 229 272 C234 247 244 226 269 224 C313 220 338 203 338 160 C338 122 315 105 281 105 C276 105 269 106 263 106 C258 106 255 104 255 99 L255 5 C255 2 257 -1 260 -2 C283 -6 304 -8 322 -8 C426 -8 462 64 454 156 L454 156 Z " />
<glyph glyph-name="agrave" unicode="&#xe0;" horiz-adv-x="571" d="M99 0 L218 0 C226 0 227 9 224 12 L212 24 L237 117 L354 117 L380 24 L368 12 C363 7 367 0 372 0 L493 0 C500 0 502 9 499 12 L485 25 L356 504 L365 517 C368 521 365 528 359 528 L234 528 C226 528 224 522 227 517 L235 504 L106 25 L94 12 C89 7 93 0 99 0 L99 0 Z M263 216 L295 337 L329 216 L263 216 Z M279 615 C280 612 282 611 285 611 L310 611 C314 611 318 613 317 619 L307 686 C306 690 304 693 300 693 L248 693 C244 693 239 688 242 683 L279 615 L279 615 Z " />
<glyph glyph-name="aacute" unicode="&#xe1;" horiz-adv-x="571" d="M99 0 L218 0 C226 0 227 9 224 12 L212 24 L237 117 L354 117 L380 24 L368 12 C363 7 367 0 372 0 L493 0 C500 0 502 9 499 12 L485 25 L356 504 L365 517 C368 521 365 528 359 528 L234 528 C226 528 224 522 227 517 L235 504 L106 25 L94 12 C89 7 93 0 99 0 L99 0 Z M263 216 L295 337 L329 216 L263 216 Z M269 619 C268 615 273 611 276 611 L305 611 C311 611 311 613 314 616 C314 616 315 617 357 678 C362 685 354 689 351 689 L289 689 C284 689 282 686 282 684 L269 619 Z " />
<glyph glyph-name="acircumflex" unicode="&#xe2;" horiz-adv-x="571" d="M99 0 L218 0 C226 0 227 9 224 12 L212 24 L237 117 L354 117 L380 24 L368 12 C363 7 367 0 372 0 L493 0 C500 0 502 9 499 12 L485 25 L356 504 L365 517 C368 521 365 528 359 528 L234 528 C226 528 224 522 227 517 L235 504 L106 25 L94 12 C89 7 93 0 99 0 L99 0 Z M263 216 L295 337 L329 216 L263 216 Z M193 612 L255 612 C257 612 259 613 260 615 L302 664 L331 616 C332 614 334 612 337 612 L401 612 C408 612 409 620 407 623 L354 700 C353 702 350 704 348 704 L263 704 C261 704 259 703 258 701 L188 624 C183 619 187 612 193 612 L193 612 Z " />
<glyph glyph-name="atilde" unicode="&#xe3;" horiz-adv-x="571" d="M99 0 L218 0 C226 0 227 9 224 12 L212 24 L237 117 L354 117 L380 24 L368 12 C363 7 367 0 372 0 L493 0 C500 0 502 9 499 12 L485 25 L356 504 L365 517 C368 521 365 528 359 528 L234 528 C226 528 224 522 227 517 L235 504 L106 25 L94 12 C89 7 93 0 99 0 L99 0 Z M263 216 L295 337 L329 216 L263 216 Z M334 703 C301 701 284 670 270 670 C256 670 252 685 252 689 C252 693 249 695 245 695 L193 695 C188 695 185 691 185 687 C185 646 209 602 257 602 C290 602 304 633 321 633 C331 633 339 625 339 616 C339 612 344 610 346 610 L399 610 C404 610 406 614 406 618 C406 659 375 703 334 703 L334 703 Z " />
<glyph glyph-name="adieresis" unicode="&#xe4;" horiz-adv-x="571" d="M99 0 L218 0 C226 0 227 9 224 12 L212 24 L237 117 L354 117 L380 24 L368 12 C363 7 367 0 372 0 L493 0 C500 0 502 9 499 12 L485 25 L356 504 L365 517 C368 521 365 528 359 528 L234 528 C226 528 224 522 227 517 L235 504 L106 25 L94 12 C89 7 93 0 99 0 L99 0 Z M263 216 L295 337 L329 216 L263 216 Z M212 649 C212 628 230 609 252 609 C273 609 290 628 290 649 C290 670 273 687 252 687 C230 687 212 670 212 649 L212 649 Z M342 609 C364 609 381 628 381 649 C381 670 364 687 342 687 C321 687 304 670 304 649 C304 628 321 609 342 609 L342 609 Z " />
<glyph glyph-name="aring" unicode="&#xe5;" horiz-adv-x="570" d="M486 25 L360 494 C374 507 377 530 377 547 L377 568 C377 621 342 642 296 642 C244 642 217 615 217 568 L217 547 C217 524 224 504 233 493 L106 25 L94 12 C89 8 94 0 99 0 L219 0 C226 0 228 9 225 12 L213 24 L237 117 L355 117 L380 24 L369 12 C364 8 369 0 373 0 L493 0 C500 0 503 9 499 12 L486 25 Z M264 217 L296 337 L329 217 L264 217 Z M294 586 L298 586 C316 586 322 573 322 559 C322 546 320 529 298 529 L294 529 C276 529 271 544 271 559 C271 570 273 586 294 586 L294 586 Z " />
<glyph glyph-name="ae" unicode="&#xe6;" horiz-adv-x="733" d="M377 117 L377 25 L364 12 C360 8 364 0 370 0 L655 0 C659 0 662 4 662 7 L662 106 C662 114 655 116 651 112 L637 100 L483 100 L483 218 L599 218 L611 207 C617 202 623 204 623 212 L623 327 C623 334 614 335 611 332 L599 319 L483 319 L483 428 L637 428 L651 416 C655 411 662 415 662 422 L662 522 C662 525 659 528 655 528 L297 528 C292 528 289 520 293 517 L305 503 L106 25 L93 12 C89 8 93 0 98 0 L218 0 C225 0 227 9 224 12 L212 24 L251 117 L377 117 Z M377 421 L377 217 L292 217 L377 421 Z " />
<glyph glyph-name="ccedilla" unicode="&#xe7;" horiz-adv-x="526" d="M418 495 C389 525 341 539 275 539 C205 539 157 523 127 491 C103 465 91 427 91 372 L91 162 C91 60 140 11 235 -3 L235 -31 C235 -85 241 -96 288 -96 L293 -96 C300 -96 304 -99 304 -103 C304 -107 304 -110 294 -113 C286 -115 275 -115 268 -115 L257 -115 C253 -115 251 -118 251 -122 L251 -180 C251 -184 254 -186 257 -186 L296 -186 C327 -186 346 -181 359 -167 C371 -156 376 -138 376 -110 L376 -96 C376 -73 374 -55 366 -43 L363 -39 C350 -26 330 -24 313 -24 L306 -24 L306 -4 C359 1 397 16 421 44 C446 70 457 107 457 162 L457 213 C457 217 453 219 449 219 L345 219 C337 219 335 212 339 208 L351 195 L351 189 C351 138 329 104 279 104 L269 104 C217 104 197 144 197 189 L197 346 C197 397 221 431 269 431 L279 431 C321 431 342 409 351 373 L338 362 C333 358 337 350 344 350 L449 350 C454 350 457 353 457 356 L457 372 C457 427 446 465 422 491 C420 492 419 494 418 495 L418 495 Z " />
<glyph glyph-name="egrave" unicode="&#xe8;" horiz-adv-x="463" d="M385 0 C389 0 392 4 392 7 L392 106 C392 113 385 117 380 112 L368 100 L212 100 L212 218 L329 218 L341 207 C345 203 353 206 353 212 L353 327 C353 335 344 336 341 332 L329 319 L212 319 L212 428 L368 428 L380 416 C386 410 392 416 392 422 L392 522 C392 525 389 528 385 528 L99 528 C92 528 90 521 94 517 L106 503 L106 25 L94 12 C90 7 93 0 99 0 L385 0 Z M225 615 C226 612 228 611 231 611 L256 611 C260 611 264 613 263 619 L253 686 C252 690 250 693 246 693 L194 693 C190 693 185 688 188 683 L225 615 L225 615 Z " />
<glyph glyph-name="eacute" unicode="&#xe9;" horiz-adv-x="463" d="M385 0 C389 0 392 4 392 7 L392 106 C392 113 385 117 380 112 L368 100 L212 100 L212 218 L329 218 L341 207 C345 203 353 206 353 212 L353 327 C353 335 344 336 341 332 L329 319 L212 319 L212 428 L368 428 L380 416 C386 410 392 416 392 422 L392 522 C392 525 389 528 385 528 L99 528 C92 528 90 521 94 517 L106 503 L106 25 L94 12 C90 7 93 0 99 0 L385 0 Z M215 619 C214 615 219 611 222 611 L251 611 C257 611 257 613 260 616 C260 616 261 617 303 678 C308 685 300 689 297 689 L235 689 C230 689 228 686 228 684 L215 619 Z " />
<glyph glyph-name="ecircumflex" unicode="&#xea;" horiz-adv-x="463" d="M385 0 C389 0 392 4 392 7 L392 106 C392 113 385 117 380 112 L368 100 L212 100 L212 218 L329 218 L341 207 C345 203 353 206 353 212 L353 327 C353 335 344 336 341 332 L329 319 L212 319 L212 428 L368 428 L380 416 C386 410 392 416 392 422 L392 522 C392 525 389 528 385 528 L99 528 C92 528 90 521 94 517 L106 503 L106 25 L94 12 C90 7 93 0 99 0 L385 0 Z M138 612 L200 612 C202 612 204 613 205 615 L247 664 L276 616 C277 614 279 612 282 612 L346 612 C353 612 354 620 352 623 L299 700 C298 702 295 704 293 704 L208 704 C206 704 204 703 203 701 L133 624 C128 619 132 612 138 612 L138 612 Z " />
<glyph glyph-name="edieresis" unicode="&#xeb;" horiz-adv-x="463" d="M385 0 C389 0 392 4 392 7 L392 106 C392 113 385 117 380 112 L368 100 L212 100 L212 218 L329 218 L341 207 C345 203 353 206 353 212 L353 327 C353 335 344 336 341 332 L329 319 L212 319 L212 428 L368 428 L380 416 C386 410 392 416 392 422 L392 522 C392 525 389 528 385 528 L99 528 C92 528 90 521 94 517 L106 503 L106 25 L94 12 C90 7 93 0 99 0 L385 0 Z M157 649 C157 628 175 609 197 609 C218 609 235 628 235 649 C235 670 218 687 197 687 C175 687 157 670 157 649 L157 649 Z M287 609 C309 609 326 628 326 649 C326 670 309 687 287 687 C266 687 249 670 249 649 C249 628 266 609 287 609 L287 609 Z " />
<glyph glyph-name="igrave" unicode="&#xec;" horiz-adv-x="296" d="M94 12 C90 7 93 0 99 0 L218 0 C225 0 227 9 224 12 L211 25 L211 503 L224 517 C228 521 224 528 218 528 L99 528 C92 528 90 521 94 517 L106 503 L106 25 L94 12 Z M142 615 C143 612 145 611 148 611 L173 611 C177 611 181 613 180 619 L170 686 C169 690 167 693 163 693 L111 693 C107 693 102 688 105 683 L142 615 L142 615 Z " />
<glyph glyph-name="iacute" unicode="&#xed;" horiz-adv-x="296" d="M94 12 C90 7 93 0 99 0 L218 0 C225 0 227 9 224 12 L211 25 L211 503 L224 517 C228 521 224 528 218 528 L99 528 C92 528 90 521 94 517 L106 503 L106 25 L94 12 Z M132 619 C131 615 136 611 139 611 L168 611 C174 611 174 613 177 616 C177 616 178 617 220 678 C225 685 217 689 214 689 L152 689 C147 689 145 686 145 684 L132 619 Z " />
<glyph glyph-name="icircumflex" unicode="&#xee;" horiz-adv-x="384" d="M94 12 C90 7 93 0 99 0 L218 0 C225 0 227 9 224 12 L211 25 L211 503 L224 517 C228 521 224 528 218 528 L99 528 C92 528 90 521 94 517 L106 503 L106 25 L94 12 Z M56 612 L118 612 C120 612 122 613 123 615 L165 664 L194 616 C195 614 197 612 200 612 L264 612 C271 612 272 620 270 623 L217 700 C216 702 213 704 211 704 L126 704 C124 704 122 703 121 701 L51 624 C46 619 50 612 56 612 L56 612 Z " />
<glyph glyph-name="idieresis" unicode="&#xef;" horiz-adv-x="330" d="M94 12 C90 7 93 0 99 0 L218 0 C225 0 227 9 224 12 L211 25 L211 503 L224 517 C228 521 224 528 218 528 L99 528 C92 528 90 521 94 517 L106 503 L106 25 L94 12 Z M74 649 C74 628 92 609 114 609 C135 609 152 628 152 649 C152 670 135 687 114 687 C92 687 74 670 74 649 L74 649 Z M204 609 C226 609 243 628 243 649 C243 670 226 687 204 687 C183 687 166 670 166 649 C166 628 183 609 204 609 L204 609 Z " />
<glyph glyph-name="eth" unicode="&#xf0;" horiz-adv-x="566" d="M338 0 C440 0 497 61 497 158 L497 370 C497 474 435 528 338 528 L123 528 C117 528 115 521 119 517 L131 503 L131 312 L98 312 C95 312 91 308 91 304 L91 235 C91 231 96 228 98 228 L131 228 L131 25 L119 12 C115 8 118 0 123 0 L338 0 Z M332 235 L332 304 C332 309 329 312 326 312 L237 312 L237 428 L310 428 C365 428 390 395 390 346 L390 182 C390 131 357 100 310 100 L237 100 L237 228 L326 228 C330 228 332 231 332 235 L332 235 Z " />
<glyph glyph-name="ntilde" unicode="&#xf1;" horiz-adv-x="517" d="M106 25 L94 12 C90 7 93 0 99 0 L218 0 C225 0 227 9 224 12 L211 25 L211 267 L321 21 L313 12 C309 8 312 0 318 0 L438 0 C445 0 447 8 443 12 L431 25 L431 503 L443 517 C447 522 444 528 438 528 L318 528 C312 528 309 521 313 517 L325 503 L325 266 L213 524 C212 527 209 528 206 528 L99 528 C92 528 90 521 94 517 L106 503 L106 25 Z M306 712 C273 710 256 679 242 679 C228 679 224 694 224 698 C224 702 221 704 217 704 L165 704 C160 704 157 700 157 696 C157 655 181 611 229 611 C262 611 276 642 293 642 C303 642 311 634 311 625 C311 621 316 619 318 619 L371 619 C376 619 378 623 378 627 C378 668 347 712 306 712 L306 712 Z " />
<glyph glyph-name="ograve" unicode="&#xf2;" horiz-adv-x="527" d="M275 -8 C344 -8 391 8 422 40 C446 66 457 104 457 159 L457 370 C457 423 446 461 422 487 C392 520 344 535 275 535 C205 535 158 520 127 488 C104 461 91 423 91 370 L91 159 C91 104 104 66 127 40 C157 8 204 -8 275 -8 L275 -8 Z M351 343 L351 185 C351 159 346 138 336 123 C324 107 305 100 279 100 L269 100 C236 100 198 115 198 185 L198 343 C198 370 202 390 213 406 C225 421 243 428 269 428 L279 428 C313 428 351 414 351 343 L351 343 Z M257 615 C258 612 260 611 263 611 L288 611 C292 611 296 613 295 619 L285 686 C284 690 282 693 278 693 L226 693 C222 693 217 688 220 683 L257 615 L257 615 Z " />
<glyph glyph-name="oacute" unicode="&#xf3;" horiz-adv-x="527" d="M275 -8 C344 -8 391 8 422 40 C446 66 457 104 457 159 L457 370 C457 423 446 461 422 487 C392 520 344 535 275 535 C205 535 158 520 127 488 C104 461 91 423 91 370 L91 159 C91 104 104 66 127 40 C157 8 204 -8 275 -8 L275 -8 Z M351 343 L351 185 C351 159 346 138 336 123 C324 107 305 100 279 100 L269 100 C236 100 198 115 198 185 L198 343 C198 370 202 390 213 406 C225 421 243 428 269 428 L279 428 C313 428 351 414 351 343 L351 343 Z M248 619 C247 615 252 611 255 611 L284 611 C290 611 290 613 293 616 C293 616 294 617 336 678 C341 685 333 689 330 689 L268 689 C263 689 261 686 261 684 L248 619 Z " />
<glyph glyph-name="ocircumflex" unicode="&#xf4;" horiz-adv-x="527" d="M275 -8 C344 -8 391 8 422 40 C446 66 457 104 457 159 L457 370 C457 423 446 461 422 487 C392 520 344 535 275 535 C205 535 158 520 127 488 C104 461 91 423 91 370 L91 159 C91 104 104 66 127 40 C157 8 204 -8 275 -8 L275 -8 Z M351 343 L351 185 C351 159 346 138 336 123 C324 107 305 100 279 100 L269 100 C236 100 198 115 198 185 L198 343 C198 370 202 390 213 406 C225 421 243 428 269 428 L279 428 C313 428 351 414 351 343 L351 343 Z M171 620 L233 620 C235 620 237 621 238 623 L280 672 L309 624 C310 622 312 620 315 620 L379 620 C386 620 387 628 385 631 L332 708 C331 710 328 712 326 712 L241 712 C239 712 237 711 236 709 L166 632 C161 627 165 620 171 620 L171 620 Z " />
<glyph glyph-name="otilde" unicode="&#xf5;" horiz-adv-x="527" d="M275 -8 C344 -8 391 8 422 40 C446 66 457 104 457 159 L457 370 C457 423 446 461 422 487 C392 520 344 535 275 535 C205 535 158 520 127 488 C104 461 91 423 91 370 L91 159 C91 104 104 66 127 40 C157 8 204 -8 275 -8 L275 -8 Z M351 343 L351 185 C351 159 346 138 336 123 C324 107 305 100 279 100 L269 100 C236 100 198 115 198 185 L198 343 C198 370 202 390 213 406 C225 421 243 428 269 428 L279 428 C313 428 351 414 351 343 L351 343 Z M312 712 C279 710 262 679 248 679 C234 679 230 694 230 698 C230 702 227 704 223 704 L171 704 C166 704 163 700 163 696 C163 655 187 611 235 611 C268 611 282 642 299 642 C309 642 317 634 317 625 C317 621 322 619 324 619 L377 619 C382 619 384 623 384 627 C384 668 353 712 312 712 L312 712 Z " />
<glyph glyph-name="odieresis" unicode="&#xf6;" horiz-adv-x="527" d="M275 -8 C344 -8 391 8 422 40 C446 66 457 104 457 159 L457 370 C457 423 446 461 422 487 C392 520 344 535 275 535 C205 535 158 520 127 488 C104 461 91 423 91 370 L91 159 C91 104 104 66 127 40 C157 8 204 -8 275 -8 L275 -8 Z M351 343 L351 185 C351 159 346 138 336 123 C324 107 305 100 279 100 L269 100 C236 100 198 115 198 185 L198 343 C198 370 202 390 213 406 C225 421 243 428 269 428 L279 428 C313 428 351 414 351 343 L351 343 Z M189 658 C189 637 207 618 229 618 C250 618 267 637 267 658 C267 679 250 696 229 696 C207 696 189 679 189 658 L189 658 Z M319 618 C341 618 358 637 358 658 C358 679 341 696 319 696 C298 696 281 679 281 658 C281 637 298 618 319 618 L319 618 Z " />
<glyph glyph-name="divide" unicode="&#xf7;" horiz-adv-x="367" d="M237 375 C237 398 218 418 195 418 C171 418 152 398 152 375 C152 352 171 332 195 332 C218 332 237 352 237 375 L237 375 Z M237 175 C237 199 218 218 195 218 C171 218 152 199 152 175 C152 152 171 133 195 133 C218 133 237 152 237 175 L237 175 Z M297 241 L297 311 C297 313 294 317 291 317 L99 317 C95 317 91 313 91 311 L91 241 C91 237 95 235 99 235 L291 235 C294 235 297 237 297 241 L297 241 Z " />
<glyph glyph-name="oslash" unicode="&#xf8;" horiz-adv-x="526" d="M228 -48 L242 -6 C252 -7 263 -8 275 -8 C394 -8 457 45 457 159 L457 370 C457 431 442 474 408 500 L425 549 C426 553 423 559 418 559 L328 559 C324 559 321 556 320 553 L313 534 C302 535 288 536 275 536 C157 536 91 486 91 370 L91 159 C91 107 105 53 146 24 L123 -44 C122 -48 126 -53 131 -53 L221 -53 C225 -53 227 -50 228 -48 L228 -48 Z M277 101 L351 327 L351 270 L351 185 C351 133 328 101 277 101 L277 101 Z M198 270 L198 344 C198 370 202 391 213 406 C225 421 243 429 269 429 L279 429 L198 180 C198 181 198 183 198 185 L198 270 Z " />
<glyph glyph-name="ugrave" unicode="&#xf9;" horiz-adv-x="556" d="M106 503 L106 159 C106 37 176 -8 289 -8 C408 -8 471 44 471 159 L471 503 L484 517 C488 521 484 528 479 528 L358 528 C351 528 350 520 353 517 L366 503 L366 185 C366 134 343 100 294 100 L284 100 C251 100 212 115 212 185 L212 503 L224 517 C228 521 226 528 218 528 L99 528 C92 528 90 522 94 517 L106 503 Z M272 615 C273 612 275 611 278 611 L303 611 C307 611 311 613 310 619 L300 686 C299 690 297 693 293 693 L241 693 C237 693 232 688 235 683 L272 615 L272 615 Z " />
<glyph glyph-name="uacute" unicode="&#xfa;" horiz-adv-x="556" d="M106 503 L106 159 C106 37 176 -8 289 -8 C408 -8 471 44 471 159 L471 503 L484 517 C488 521 484 528 479 528 L358 528 C351 528 350 520 353 517 L366 503 L366 185 C366 134 343 100 294 100 L284 100 C251 100 212 115 212 185 L212 503 L224 517 C228 521 226 528 218 528 L99 528 C92 528 90 522 94 517 L106 503 Z M261 619 C260 615 265 611 268 611 L297 611 C303 611 303 613 306 616 C306 616 307 617 349 678 C354 685 346 689 343 689 L281 689 C276 689 274 686 274 684 L261 619 Z " />
<glyph glyph-name="ucircumflex" unicode="&#xfb;" horiz-adv-x="556" d="M106 503 L106 159 C106 37 176 -8 289 -8 C408 -8 471 44 471 159 L471 503 L484 517 C488 521 484 528 479 528 L358 528 C351 528 350 520 353 517 L366 503 L366 185 C366 134 343 100 294 100 L284 100 C251 100 212 115 212 185 L212 503 L224 517 C228 521 226 528 218 528 L99 528 C92 528 90 522 94 517 L106 503 Z M203 612 L265 612 C267 612 269 613 270 615 L312 664 L341 616 C342 614 344 612 347 612 L411 612 C418 612 419 620 417 623 L364 700 C363 702 360 704 358 704 L273 704 C271 704 269 703 268 701 L198 624 C193 619 197 612 203 612 L203 612 Z " />
<glyph glyph-name="udieresis" unicode="&#xfc;" horiz-adv-x="556" d="M106 503 L106 159 C106 37 176 -8 289 -8 C408 -8 471 44 471 159 L471 503 L484 517 C488 521 484 528 479 528 L358 528 C351 528 350 520 353 517 L366 503 L366 185 C366 134 343 100 294 100 L284 100 C251 100 212 115 212 185 L212 503 L224 517 C228 521 226 528 218 528 L99 528 C92 528 90 522 94 517 L106 503 Z M221 649 C221 628 239 609 261 609 C282 609 299 628 299 649 C299 670 282 687 261 687 C239 687 221 670 221 649 L221 649 Z M351 609 C373 609 390 628 390 649 C390 670 373 687 351 687 C330 687 313 670 313 649 C313 628 330 609 351 609 L351 609 Z " />
<glyph glyph-name="yacute" unicode="&#xfd;" horiz-adv-x="519" d="M106 503 L218 250 L218 25 L207 12 C202 6 206 0 212 0 L332 0 C339 0 340 9 337 12 L325 25 L325 250 L434 503 L447 517 C451 521 447 528 442 528 L321 528 C315 528 313 520 316 517 L329 504 L271 390 L212 504 L224 517 C228 521 224 528 218 528 L99 528 C92 528 90 521 94 517 L106 503 Z M243 619 C242 615 247 611 250 611 L279 611 C285 611 285 613 288 616 C288 616 289 617 331 678 C336 685 328 689 325 689 L263 689 C258 689 256 686 256 684 L243 619 Z " />
<glyph glyph-name="thorn" unicode="&#xfe;" horiz-adv-x="483" d="M212 25 L212 92 L268 92 C358 92 411 152 411 237 L411 337 C411 430 358 482 268 482 L212 482 L212 503 L224 517 C228 521 225 528 218 528 L99 528 C92 528 89 520 94 517 L106 503 L106 25 L94 12 C89 8 93 0 99 0 L218 0 C226 0 228 8 224 12 L212 25 Z M306 260 C306 206 269 192 224 192 L212 192 L212 381 L224 381 C278 381 306 365 306 313 L306 260 Z " />
<glyph glyph-name="ydieresis" unicode="&#xff;" horiz-adv-x="519" d="M106 503 L218 250 L218 25 L207 12 C202 6 206 0 212 0 L332 0 C339 0 340 9 337 12 L325 25 L325 250 L434 503 L447 517 C451 521 447 528 442 528 L321 528 C315 528 313 520 316 517 L329 504 L271 390 L212 504 L224 517 C228 521 224 528 218 528 L99 528 C92 528 90 521 94 517 L106 503 Z M186 649 C186 628 204 609 226 609 C247 609 264 628 264 649 C264 670 247 687 226 687 C204 687 186 670 186 649 L186 649 Z M316 609 C338 609 355 628 355 649 C355 670 338 687 316 687 C295 687 278 670 278 649 C278 628 295 609 316 609 L316 609 Z " />
<glyph glyph-name="Amacron" unicode="&#x100;" horiz-adv-x="571" d="M99 0 L218 0 C226 0 227 9 224 12 L212 24 L237 117 L354 117 L380 24 L368 12 C363 7 367 0 372 0 L493 0 C500 0 502 9 499 12 L485 25 L356 504 L365 517 C368 521 365 528 359 528 L234 528 C226 528 224 522 227 517 L235 504 L106 25 L94 12 C89 7 93 0 99 0 L99 0 Z M263 216 L295 337 L329 216 L263 216 Z M192 676 L192 622 C192 618 196 615 200 615 L392 615 C395 615 398 618 398 622 L398 676 C398 680 395 683 392 683 L200 683 C196 683 192 680 192 676 L192 676 Z " />
<glyph glyph-name="amacron" unicode="&#x101;" horiz-adv-x="571" d="M99 0 L218 0 C226 0 227 9 224 12 L212 24 L237 117 L354 117 L380 24 L368 12 C363 7 367 0 372 0 L493 0 C500 0 502 9 499 12 L485 25 L356 504 L365 517 C368 521 365 528 359 528 L234 528 C226 528 224 522 227 517 L235 504 L106 25 L94 12 C89 7 93 0 99 0 L99 0 Z M263 216 L295 337 L329 216 L263 216 Z M192 676 L192 622 C192 618 196 615 200 615 L392 615 C395 615 398 618 398 622 L398 676 C398 680 395 683 392 683 L200 683 C196 683 192 680 192 676 L192 676 Z " />
<glyph glyph-name="Abreve" unicode="&#x102;" horiz-adv-x="571" d="M99 0 L218 0 C226 0 227 9 224 12 L212 24 L237 117 L354 117 L380 24 L368 12 C363 7 367 0 372 0 L493 0 C500 0 502 9 499 12 L485 25 L356 504 L365 517 C368 521 365 528 359 528 L234 528 C226 528 224 522 227 517 L235 504 L106 25 L94 12 C89 7 93 0 99 0 L99 0 Z M263 216 L295 337 L329 216 L263 216 Z M319 698 C316 698 312 695 312 691 C312 680 304 673 295 673 C282 673 277 682 277 691 C277 695 274 698 270 698 L206 698 C202 698 199 696 199 690 C199 678 205 645 228 622 C244 605 267 596 295 596 C324 596 346 605 363 622 C385 645 390 678 390 690 C390 694 386 698 383 698 L319 698 Z " />
<glyph glyph-name="abreve" unicode="&#x103;" horiz-adv-x="571" d="M99 0 L218 0 C226 0 227 9 224 12 L212 24 L237 117 L354 117 L380 24 L368 12 C363 7 367 0 372 0 L493 0 C500 0 502 9 499 12 L485 25 L356 504 L365 517 C368 521 365 528 359 528 L234 528 C226 528 224 522 227 517 L235 504 L106 25 L94 12 C89 7 93 0 99 0 L99 0 Z M263 216 L295 337 L329 216 L263 216 Z M319 698 C316 698 312 695 312 691 C312 680 304 673 295 673 C282 673 277 682 277 691 C277 695 274 698 270 698 L206 698 C202 698 199 696 199 690 C199 678 205 645 228 622 C244 605 267 596 295 596 C324 596 346 605 363 622 C385 645 390 678 390 690 C390 694 386 698 383 698 L319 698 Z " />
<glyph glyph-name="Aogonek" unicode="&#x104;" horiz-adv-x="570" d="M485 25 L356 504 L365 517 C367 522 365 528 359 528 L233 528 C226 528 223 521 226 517 L235 504 L106 25 L93 12 C89 8 93 0 98 0 L218 0 C225 0 227 9 224 12 L212 24 L237 117 L354 117 L380 24 L368 12 C363 8 368 0 372 0 L400 0 L400 -24 L393 -24 C377 -24 357 -26 345 -38 L341 -42 C332 -54 331 -72 331 -95 L331 -109 C331 -164 361 -186 410 -186 L449 -186 C454 -186 457 -182 457 -180 L457 -122 C457 -117 453 -115 449 -115 L440 -115 C427 -115 403 -114 403 -105 C403 -98 409 -96 419 -96 C440 -96 453 -94 462 -86 L463 -85 C471 -75 473 -58 473 -31 L473 0 L493 0 C500 0 502 9 498 12 L485 25 Z M263 217 L295 337 L329 217 L263 217 Z " />
<glyph glyph-name="aogonek" unicode="&#x105;" horiz-adv-x="570" d="M485 25 L356 504 L365 517 C367 522 365 528 359 528 L233 528 C226 528 223 521 226 517 L235 504 L106 25 L93 12 C89 8 93 0 98 0 L218 0 C225 0 227 9 224 12 L212 24 L237 117 L354 117 L380 24 L368 12 C363 8 368 0 372 0 L400 0 L400 -24 L393 -24 C377 -24 357 -26 345 -38 L341 -42 C332 -54 331 -72 331 -95 L331 -109 C331 -164 361 -186 410 -186 L449 -186 C454 -186 457 -182 457 -180 L457 -122 C457 -117 453 -115 449 -115 L440 -115 C427 -115 403 -114 403 -105 C403 -98 409 -96 419 -96 C440 -96 453 -94 462 -86 L463 -85 C471 -75 473 -58 473 -31 L473 0 L493 0 C500 0 502 9 498 12 L485 25 Z M263 217 L295 337 L329 217 L263 217 Z " />
<glyph glyph-name="Cacute" unicode="&#x106;" horiz-adv-x="526" d="M275 -8 C394 -8 457 42 457 159 L457 209 C457 213 454 217 449 217 L345 217 C336 217 335 207 339 204 L352 192 L352 185 C352 158 346 138 336 123 C324 107 305 100 279 100 L269 100 C237 100 198 115 198 185 L198 343 C198 370 202 390 213 405 C225 421 243 428 269 428 L279 428 C318 428 346 405 351 370 L338 358 C334 354 337 346 344 346 L449 346 C454 346 457 349 457 353 L457 370 C457 492 388 535 275 535 C156 535 91 488 91 370 L91 159 C91 36 164 -8 275 -8 L275 -8 Z M243 619 C242 615 247 611 250 611 L279 611 C285 611 285 613 288 616 C288 616 289 617 331 678 C336 685 328 689 325 689 L263 689 C258 689 256 686 256 684 L243 619 Z " />
<glyph glyph-name="cacute" unicode="&#x107;" horiz-adv-x="526" d="M275 -8 C394 -8 457 42 457 159 L457 209 C457 213 454 217 449 217 L345 217 C336 217 335 207 339 204 L352 192 L352 185 C352 158 346 138 336 123 C324 107 305 100 279 100 L269 100 C237 100 198 115 198 185 L198 343 C198 370 202 390 213 405 C225 421 243 428 269 428 L279 428 C318 428 346 405 351 370 L338 358 C334 354 337 346 344 346 L449 346 C454 346 457 349 457 353 L457 370 C457 492 388 535 275 535 C156 535 91 488 91 370 L91 159 C91 36 164 -8 275 -8 L275 -8 Z M243 619 C242 615 247 611 250 611 L279 611 C285 611 285 613 288 616 C288 616 289 617 331 678 C336 685 328 689 325 689 L263 689 C258 689 256 686 256 684 L243 619 Z " />
<glyph glyph-name="Ccircumflex" unicode="&#x108;" horiz-adv-x="526" d="M275 -8 C394 -8 457 42 457 159 L457 209 C457 213 454 217 449 217 L345 217 C336 217 335 207 339 204 L352 192 L352 185 C352 158 346 138 336 123 C324 107 305 100 279 100 L269 100 C237 100 198 115 198 185 L198 343 C198 370 202 390 213 405 C225 421 243 428 269 428 L279 428 C318 428 346 405 351 370 L338 358 C334 354 337 346 344 346 L449 346 C454 346 457 349 457 353 L457 370 C457 492 388 535 275 535 C156 535 91 488 91 370 L91 159 C91 36 164 -8 275 -8 L275 -8 Z M159 603 L221 603 C223 603 225 604 226 606 L268 655 L297 607 C298 605 300 603 303 603 L367 603 C374 603 375 611 373 614 L320 691 C319 693 316 695 314 695 L229 695 C227 695 225 694 224 692 L154 615 C149 610 153 603 159 603 L159 603 Z " />
<glyph glyph-name="ccircumflex" unicode="&#x109;" horiz-adv-x="526" d="M275 -8 C394 -8 457 42 457 159 L457 209 C457 213 454 217 449 217 L345 217 C336 217 335 207 339 204 L352 192 L352 185 C352 158 346 138 336 123 C324 107 305 100 279 100 L269 100 C237 100 198 115 198 185 L198 343 C198 370 202 390 213 405 C225 421 243 428 269 428 L279 428 C318 428 346 405 351 370 L338 358 C334 354 337 346 344 346 L449 346 C454 346 457 349 457 353 L457 370 C457 492 388 535 275 535 C156 535 91 488 91 370 L91 159 C91 36 164 -8 275 -8 L275 -8 Z M159 603 L221 603 C223 603 225 604 226 606 L268 655 L297 607 C298 605 300 603 303 603 L367 603 C374 603 375 611 373 614 L320 691 C319 693 316 695 314 695 L229 695 C227 695 225 694 224 692 L154 615 C149 610 153 603 159 603 L159 603 Z " />
<glyph glyph-name="Cdotaccent" unicode="&#x10a;" horiz-adv-x="526" d="M275 -8 C394 -8 457 42 457 159 L457 209 C457 213 454 217 449 217 L345 217 C336 217 335 207 339 204 L352 192 L352 185 C352 158 346 138 336 123 C324 107 305 100 279 100 L269 100 C237 100 198 115 198 185 L198 343 C198 370 202 390 213 405 C225 421 243 428 269 428 L279 428 C318 428 346 405 351 370 L338 358 C334 354 337 346 344 346 L449 346 C454 346 457 349 457 353 L457 370 C457 492 388 535 275 535 C156 535 91 488 91 370 L91 159 C91 36 164 -8 275 -8 L275 -8 Z M276 589 C315 589 348 621 348 660 C348 699 315 730 276 730 C238 730 206 699 206 660 C206 621 238 589 276 589 L276 589 Z " />
<glyph glyph-name="cdotaccent" unicode="&#x10b;" horiz-adv-x="526" d="M275 -8 C394 -8 457 42 457 159 L457 209 C457 213 454 217 449 217 L345 217 C336 217 335 207 339 204 L352 192 L352 185 C352 158 346 138 336 123 C324 107 305 100 279 100 L269 100 C237 100 198 115 198 185 L198 343 C198 370 202 390 213 405 C225 421 243 428 269 428 L279 428 C318 428 346 405 351 370 L338 358 C334 354 337 346 344 346 L449 346 C454 346 457 349 457 353 L457 370 C457 492 388 535 275 535 C156 535 91 488 91 370 L91 159 C91 36 164 -8 275 -8 L275 -8 Z M276 589 C315 589 348 621 348 660 C348 699 315 730 276 730 C238 730 206 699 206 660 C206 621 238 589 276 589 L276 589 Z " />
<glyph glyph-name="Ccaron" unicode="&#x10c;" horiz-adv-x="526" d="M275 -8 C394 -8 457 42 457 159 L457 209 C457 213 454 217 449 217 L345 217 C336 217 335 207 339 204 L352 192 L352 185 C352 158 346 138 336 123 C324 107 305 100 279 100 L269 100 C237 100 198 115 198 185 L198 343 C198 370 202 390 213 405 C225 421 243 428 269 428 L279 428 C318 428 346 405 351 370 L338 358 C334 354 337 346 344 346 L449 346 C454 346 457 349 457 353 L457 370 C457 492 388 535 275 535 C156 535 91 488 91 370 L91 159 C91 36 164 -8 275 -8 L275 -8 Z M372 695 L308 695 C306 695 304 694 302 691 L267 643 L232 691 C231 693 229 695 226 695 L163 695 C157 695 155 686 158 683 L220 606 C222 604 223 603 225 603 L310 603 C313 603 314 604 316 606 L377 683 C381 687 377 695 372 695 L372 695 Z " />
<glyph glyph-name="ccaron" unicode="&#x10d;" horiz-adv-x="526" d="M275 -8 C394 -8 457 42 457 159 L457 209 C457 213 454 217 449 217 L345 217 C336 217 335 207 339 204 L352 192 L352 185 C352 158 346 138 336 123 C324 107 305 100 279 100 L269 100 C237 100 198 115 198 185 L198 343 C198 370 202 390 213 405 C225 421 243 428 269 428 L279 428 C318 428 346 405 351 370 L338 358 C334 354 337 346 344 346 L449 346 C454 346 457 349 457 353 L457 370 C457 492 388 535 275 535 C156 535 91 488 91 370 L91 159 C91 36 164 -8 275 -8 L275 -8 Z M372 695 L308 695 C306 695 304 694 302 691 L267 643 L232 691 C231 693 229 695 226 695 L163 695 C157 695 155 686 158 683 L220 606 C222 604 223 603 225 603 L310 603 C313 603 314 604 316 606 L377 683 C381 687 377 695 372 695 L372 695 Z " />
<glyph glyph-name="Dcaron" unicode="&#x10e;" horiz-adv-x="542" d="M106 503 L106 25 L94 12 C89 7 93 0 99 0 L313 0 C415 0 471 61 471 158 L471 370 C471 418 459 457 435 483 C408 513 367 528 313 528 L99 528 C92 528 90 521 94 517 L106 503 Z M284 428 C340 428 366 396 366 346 L366 182 C366 131 332 100 284 100 L212 100 L212 428 L284 428 Z M368 695 L304 695 C302 695 300 694 298 691 L263 643 L228 691 C227 693 225 695 222 695 L159 695 C153 695 151 686 154 683 L216 606 C218 604 219 603 221 603 L306 603 C309 603 310 604 312 606 L373 683 C377 687 373 695 368 695 L368 695 Z " />
<glyph glyph-name="dcaron" unicode="&#x10f;" horiz-adv-x="542" d="M106 503 L106 25 L94 12 C89 7 93 0 99 0 L313 0 C415 0 471 61 471 158 L471 370 C471 418 459 457 435 483 C408 513 367 528 313 528 L99 528 C92 528 90 521 94 517 L106 503 Z M284 428 C340 428 366 396 366 346 L366 182 C366 131 332 100 284 100 L212 100 L212 428 L284 428 Z M368 695 L304 695 C302 695 300 694 298 691 L263 643 L228 691 C227 693 225 695 222 695 L159 695 C153 695 151 686 154 683 L216 606 C218 604 219 603 221 603 L306 603 C309 603 310 604 312 606 L373 683 C377 687 373 695 368 695 L368 695 Z " />
<glyph glyph-name="Dcroat" unicode="&#x110;" horiz-adv-x="566" d="M338 0 C440 0 497 61 497 158 L497 370 C497 474 435 528 338 528 L123 528 C117 528 115 521 119 517 L131 503 L131 312 L98 312 C95 312 91 308 91 304 L91 235 C91 231 96 228 98 228 L131 228 L131 25 L119 12 C115 8 118 0 123 0 L338 0 Z M332 235 L332 304 C332 309 329 312 326 312 L237 312 L237 428 L310 428 C365 428 390 395 390 346 L390 182 C390 131 357 100 310 100 L237 100 L237 228 L326 228 C330 228 332 231 332 235 L332 235 Z " />
<glyph glyph-name="dcroat" unicode="&#x111;" horiz-adv-x="566" d="M338 0 C440 0 497 61 497 158 L497 370 C497 474 435 528 338 528 L123 528 C117 528 115 521 119 517 L131 503 L131 312 L98 312 C95 312 91 308 91 304 L91 235 C91 231 96 228 98 228 L131 228 L131 25 L119 12 C115 8 118 0 123 0 L338 0 Z M332 235 L332 304 C332 309 329 312 326 312 L237 312 L237 428 L310 428 C365 428 390 395 390 346 L390 182 C390 131 357 100 310 100 L237 100 L237 228 L326 228 C330 228 332 231 332 235 L332 235 Z " />
<glyph glyph-name="Emacron" unicode="&#x112;" horiz-adv-x="463" d="M385 0 C389 0 392 4 392 7 L392 106 C392 113 385 117 380 112 L368 100 L212 100 L212 218 L329 218 L341 207 C345 203 353 206 353 212 L353 327 C353 335 344 336 341 332 L329 319 L212 319 L212 428 L368 428 L380 416 C386 410 392 416 392 422 L392 522 C392 525 389 528 385 528 L99 528 C92 528 90 521 94 517 L106 503 L106 25 L94 12 C90 7 93 0 99 0 L385 0 Z M147 676 L147 622 C147 618 151 615 155 615 L347 615 C350 615 353 618 353 622 L353 676 C353 680 350 683 347 683 L155 683 C151 683 147 680 147 676 L147 676 Z " />
<glyph glyph-name="emacron" unicode="&#x113;" horiz-adv-x="463" d="M385 0 C389 0 392 4 392 7 L392 106 C392 113 385 117 380 112 L368 100 L212 100 L212 218 L329 218 L341 207 C345 203 353 206 353 212 L353 327 C353 335 344 336 341 332 L329 319 L212 319 L212 428 L368 428 L380 416 C386 410 392 416 392 422 L392 522 C392 525 389 528 385 528 L99 528 C92 528 90 521 94 517 L106 503 L106 25 L94 12 C90 7 93 0 99 0 L385 0 Z M147 676 L147 622 C147 618 151 615 155 615 L347 615 C350 615 353 618 353 622 L353 676 C353 680 350 683 347 683 L155 683 C151 683 147 680 147 676 L147 676 Z " />
<glyph glyph-name="Ebreve" unicode="&#x114;" horiz-adv-x="463" d="M385 0 C389 0 392 4 392 7 L392 106 C392 113 385 117 380 112 L368 100 L212 100 L212 218 L329 218 L341 207 C345 203 353 206 353 212 L353 327 C353 335 344 336 341 332 L329 319 L212 319 L212 428 L368 428 L380 416 C386 410 392 416 392 422 L392 522 C392 525 389 528 385 528 L99 528 C92 528 90 521 94 517 L106 503 L106 25 L94 12 C90 7 93 0 99 0 L385 0 Z M263 698 C260 698 256 695 256 691 C256 680 248 673 239 673 C226 673 221 682 221 691 C221 695 218 698 214 698 L150 698 C146 698 143 696 143 690 C143 678 149 645 172 622 C188 605 211 596 239 596 C268 596 290 605 307 622 C329 645 334 678 334 690 C334 694 330 698 327 698 L263 698 Z " />
<glyph glyph-name="ebreve" unicode="&#x115;" horiz-adv-x="463" d="M385 0 C389 0 392 4 392 7 L392 106 C392 113 385 117 380 112 L368 100 L212 100 L212 218 L329 218 L341 207 C345 203 353 206 353 212 L353 327 C353 335 344 336 341 332 L329 319 L212 319 L212 428 L368 428 L380 416 C386 410 392 416 392 422 L392 522 C392 525 389 528 385 528 L99 528 C92 528 90 521 94 517 L106 503 L106 25 L94 12 C90 7 93 0 99 0 L385 0 Z M263 698 C260 698 256 695 256 691 C256 680 248 673 239 673 C226 673 221 682 221 691 C221 695 218 698 214 698 L150 698 C146 698 143 696 143 690 C143 678 149 645 172 622 C188 605 211 596 239 596 C268 596 290 605 307 622 C329 645 334 678 334 690 C334 694 330 698 327 698 L263 698 Z " />
<glyph glyph-name="Edotaccent" unicode="&#x116;" horiz-adv-x="463" d="M385 0 C389 0 392 4 392 7 L392 106 C392 113 385 117 380 112 L368 100 L212 100 L212 218 L329 218 L341 207 C345 203 353 206 353 212 L353 327 C353 335 344 336 341 332 L329 319 L212 319 L212 428 L368 428 L380 416 C386 410 392 416 392 422 L392 522 C392 525 389 528 385 528 L99 528 C92 528 90 521 94 517 L106 503 L106 25 L94 12 C90 7 93 0 99 0 L385 0 Z M238 589 C277 589 310 621 310 660 C310 699 277 730 238 730 C200 730 168 699 168 660 C168 621 200 589 238 589 L238 589 Z " />
<glyph glyph-name="edotaccent" unicode="&#x117;" horiz-adv-x="463" d="M385 0 C389 0 392 4 392 7 L392 106 C392 113 385 117 380 112 L368 100 L212 100 L212 218 L329 218 L341 207 C345 203 353 206 353 212 L353 327 C353 335 344 336 341 332 L329 319 L212 319 L212 428 L368 428 L380 416 C386 410 392 416 392 422 L392 522 C392 525 389 528 385 528 L99 528 C92 528 90 521 94 517 L106 503 L106 25 L94 12 C90 7 93 0 99 0 L385 0 Z M238 589 C277 589 310 621 310 660 C310 699 277 730 238 730 C200 730 168 699 168 660 C168 621 200 589 238 589 L238 589 Z " />
<glyph glyph-name="Eogonek" unicode="&#x118;" horiz-adv-x="463" d="M385 528 L98 528 C92 528 89 520 93 517 L106 503 L106 25 L93 12 C89 8 93 0 98 0 L203 0 L203 -24 L197 -24 C147 -24 134 -53 134 -95 L134 -109 C134 -165 166 -186 214 -186 L253 -186 C257 -186 260 -183 260 -180 L260 -122 C260 -116 256 -115 253 -115 L243 -115 C230 -115 206 -114 206 -105 C206 -97 213 -96 218 -96 C243 -96 256 -94 265 -86 L266 -85 C275 -75 276 -58 276 -31 L276 0 L385 0 C389 0 391 4 391 7 L391 106 C391 114 384 116 380 112 L367 100 L211 100 L211 218 L329 218 L341 207 C346 202 353 207 353 212 L353 327 C353 333 345 335 341 332 L329 319 L211 319 L211 428 L367 428 L380 416 C385 411 391 415 391 422 L391 522 C391 525 389 528 385 528 L385 528 Z " />
<glyph glyph-name="eogonek" unicode="&#x119;" horiz-adv-x="463" d="M385 528 L98 528 C92 528 89 520 93 517 L106 503 L106 25 L93 12 C89 8 93 0 98 0 L203 0 L203 -24 L197 -24 C147 -24 134 -53 134 -95 L134 -109 C134 -165 166 -186 214 -186 L253 -186 C257 -186 260 -183 260 -180 L260 -122 C260 -116 256 -115 253 -115 L243 -115 C230 -115 206 -114 206 -105 C206 -97 213 -96 218 -96 C243 -96 256 -94 265 -86 L266 -85 C275 -75 276 -58 276 -31 L276 0 L385 0 C389 0 391 4 391 7 L391 106 C391 114 384 116 380 112 L367 100 L211 100 L211 218 L329 218 L341 207 C346 202 353 207 353 212 L353 327 C353 333 345 335 341 332 L329 319 L211 319 L211 428 L367 428 L380 416 C385 411 391 415 391 422 L391 522 C391 525 389 528 385 528 L385 528 Z " />
<glyph glyph-name="Ecaron" unicode="&#x11a;" horiz-adv-x="463" d="M385 0 C389 0 392 4 392 7 L392 106 C392 113 385 117 380 112 L368 100 L212 100 L212 218 L329 218 L341 207 C345 203 353 206 353 212 L353 327 C353 335 344 336 341 332 L329 319 L212 319 L212 428 L368 428 L380 416 C386 410 392 416 392 422 L392 522 C392 525 389 528 385 528 L99 528 C92 528 90 521 94 517 L106 503 L106 25 L94 12 C90 7 93 0 99 0 L385 0 Z M354 695 L290 695 C288 695 286 694 284 691 L249 643 L214 691 C213 693 211 695 208 695 L145 695 C139 695 137 686 140 683 L202 606 C204 604 205 603 207 603 L292 603 C295 603 296 604 298 606 L359 683 C363 687 359 695 354 695 L354 695 Z " />
<glyph glyph-name="ecaron" unicode="&#x11b;" horiz-adv-x="463" d="M385 0 C389 0 392 4 392 7 L392 106 C392 113 385 117 380 112 L368 100 L212 100 L212 218 L329 218 L341 207 C345 203 353 206 353 212 L353 327 C353 335 344 336 341 332 L329 319 L212 319 L212 428 L368 428 L380 416 C386 410 392 416 392 422 L392 522 C392 525 389 528 385 528 L99 528 C92 528 90 521 94 517 L106 503 L106 25 L94 12 C90 7 93 0 99 0 L385 0 Z M354 695 L290 695 C288 695 286 694 284 691 L249 643 L214 691 C213 693 211 695 208 695 L145 695 C139 695 137 686 140 683 L202 606 C204 604 205 603 207 603 L292 603 C295 603 296 604 298 606 L359 683 C363 687 359 695 354 695 L354 695 Z " />
<glyph glyph-name="Gcircumflex" unicode="&#x11c;" horiz-adv-x="527" d="M457 370 C457 492 387 535 275 535 C156 535 91 486 91 370 L91 159 C91 36 164 -8 275 -8 C394 -8 457 42 457 159 L457 285 C457 288 454 292 449 292 L269 292 C264 292 260 288 260 283 L260 185 C260 180 269 176 273 180 L286 192 L351 192 L351 185 C351 134 328 100 279 100 L269 100 C236 100 198 115 198 185 L198 343 C198 370 202 390 213 405 C225 421 243 428 269 428 L279 428 C320 428 343 405 351 370 L338 358 C333 353 337 346 344 346 L449 346 C454 346 457 349 457 353 L457 370 Z M168 603 L230 603 C232 603 234 604 235 606 L277 655 L306 607 C307 605 309 603 312 603 L376 603 C383 603 384 611 382 614 L329 691 C328 693 325 695 323 695 L238 695 C236 695 234 694 233 692 L163 615 C158 610 162 603 168 603 L168 603 Z " />
<glyph glyph-name="gcircumflex" unicode="&#x11d;" horiz-adv-x="527" d="M457 370 C457 492 387 535 275 535 C156 535 91 486 91 370 L91 159 C91 36 164 -8 275 -8 C394 -8 457 42 457 159 L457 285 C457 288 454 292 449 292 L269 292 C264 292 260 288 260 283 L260 185 C260 180 269 176 273 180 L286 192 L351 192 L351 185 C351 134 328 100 279 100 L269 100 C236 100 198 115 198 185 L198 343 C198 370 202 390 213 405 C225 421 243 428 269 428 L279 428 C320 428 343 405 351 370 L338 358 C333 353 337 346 344 346 L449 346 C454 346 457 349 457 353 L457 370 Z M168 603 L230 603 C232 603 234 604 235 606 L277 655 L306 607 C307 605 309 603 312 603 L376 603 C383 603 384 611 382 614 L329 691 C328 693 325 695 323 695 L238 695 C236 695 234 694 233 692 L163 615 C158 610 162 603 168 603 L168 603 Z " />
<glyph glyph-name="Gbreve" unicode="&#x11e;" horiz-adv-x="527" d="M457 370 C457 492 387 535 275 535 C156 535 91 486 91 370 L91 159 C91 36 164 -8 275 -8 C394 -8 457 42 457 159 L457 285 C457 288 454 292 449 292 L269 292 C264 292 260 288 260 283 L260 185 C260 180 269 176 273 180 L286 192 L351 192 L351 185 C351 134 328 100 279 100 L269 100 C236 100 198 115 198 185 L198 343 C198 370 202 390 213 405 C225 421 243 428 269 428 L279 428 C320 428 343 405 351 370 L338 358 C333 353 337 346 344 346 L449 346 C454 346 457 349 457 353 L457 370 Z M296 698 C293 698 289 695 289 691 C289 680 281 673 272 673 C259 673 254 682 254 691 C254 695 251 698 247 698 L183 698 C179 698 176 696 176 690 C176 678 182 645 205 622 C221 605 244 596 272 596 C301 596 323 605 340 622 C362 645 367 678 367 690 C367 694 363 698 360 698 L296 698 Z " />
<glyph glyph-name="gbreve" unicode="&#x11f;" horiz-adv-x="527" d="M457 370 C457 492 387 535 275 535 C156 535 91 486 91 370 L91 159 C91 36 164 -8 275 -8 C394 -8 457 42 457 159 L457 285 C457 288 454 292 449 292 L269 292 C264 292 260 288 260 283 L260 185 C260 180 269 176 273 180 L286 192 L351 192 L351 185 C351 134 328 100 279 100 L269 100 C236 100 198 115 198 185 L198 343 C198 370 202 390 213 405 C225 421 243 428 269 428 L279 428 C320 428 343 405 351 370 L338 358 C333 353 337 346 344 346 L449 346 C454 346 457 349 457 353 L457 370 Z M296 698 C293 698 289 695 289 691 C289 680 281 673 272 673 C259 673 254 682 254 691 C254 695 251 698 247 698 L183 698 C179 698 176 696 176 690 C176 678 182 645 205 622 C221 605 244 596 272 596 C301 596 323 605 340 622 C362 645 367 678 367 690 C367 694 363 698 360 698 L296 698 Z " />
<glyph glyph-name="Gdotaccent" unicode="&#x120;" horiz-adv-x="527" d="M457 370 C457 492 387 535 275 535 C156 535 91 486 91 370 L91 159 C91 36 164 -8 275 -8 C394 -8 457 42 457 159 L457 285 C457 288 454 292 449 292 L269 292 C264 292 260 288 260 283 L260 185 C260 180 269 176 273 180 L286 192 L351 192 L351 185 C351 134 328 100 279 100 L269 100 C236 100 198 115 198 185 L198 343 C198 370 202 390 213 405 C225 421 243 428 269 428 L279 428 C320 428 343 405 351 370 L338 358 C333 353 337 346 344 346 L449 346 C454 346 457 349 457 353 L457 370 Z M279 589 C318 589 351 621 351 660 C351 699 318 730 279 730 C241 730 209 699 209 660 C209 621 241 589 279 589 L279 589 Z " />
<glyph glyph-name="gdotaccent" unicode="&#x121;" horiz-adv-x="527" d="M457 370 C457 492 387 535 275 535 C156 535 91 486 91 370 L91 159 C91 36 164 -8 275 -8 C394 -8 457 42 457 159 L457 285 C457 288 454 292 449 292 L269 292 C264 292 260 288 260 283 L260 185 C260 180 269 176 273 180 L286 192 L351 192 L351 185 C351 134 328 100 279 100 L269 100 C236 100 198 115 198 185 L198 343 C198 370 202 390 213 405 C225 421 243 428 269 428 L279 428 C320 428 343 405 351 370 L338 358 C333 353 337 346 344 346 L449 346 C454 346 457 349 457 353 L457 370 Z M279 589 C318 589 351 621 351 660 C351 699 318 730 279 730 C241 730 209 699 209 660 C209 621 241 589 279 589 L279 589 Z " />
<glyph glyph-name="uni0122" unicode="&#x122;" horiz-adv-x="527" d="M457 370 C457 492 387 535 275 535 C156 535 91 486 91 370 L91 159 C91 36 164 -8 275 -8 C394 -8 457 42 457 159 L457 285 C457 288 454 292 449 292 L269 292 C264 292 260 288 260 283 L260 185 C260 180 269 176 273 180 L286 192 L351 192 L351 185 C351 134 328 100 279 100 L269 100 C236 100 198 115 198 185 L198 343 C198 370 202 390 213 405 C225 421 243 428 269 428 L279 428 C320 428 343 405 351 370 L338 358 C333 353 337 346 344 346 L449 346 C454 346 457 349 457 353 L457 370 Z M276 -55 C237 -55 204 -86 204 -125 C204 -157 228 -184 255 -193 L230 -257 C228 -262 230 -267 237 -267 L291 -267 C294 -267 297 -265 298 -262 L343 -143 C345 -138 347 -130 347 -123 C347 -84 314 -55 276 -55 L276 -55 Z " />
<glyph glyph-name="uni0123" unicode="&#x123;" horiz-adv-x="527" d="M457 370 C457 492 387 535 275 535 C156 535 91 486 91 370 L91 159 C91 36 164 -8 275 -8 C394 -8 457 42 457 159 L457 285 C457 288 454 292 449 292 L269 292 C264 292 260 288 260 283 L260 185 C260 180 269 176 273 180 L286 192 L351 192 L351 185 C351 134 328 100 279 100 L269 100 C236 100 198 115 198 185 L198 343 C198 370 202 390 213 405 C225 421 243 428 269 428 L279 428 C320 428 343 405 351 370 L338 358 C333 353 337 346 344 346 L449 346 C454 346 457 349 457 353 L457 370 Z M276 -55 C237 -55 204 -86 204 -125 C204 -157 228 -184 255 -193 L230 -257 C228 -262 230 -267 237 -267 L291 -267 C294 -267 297 -265 298 -262 L343 -143 C345 -138 347 -130 347 -123 C347 -84 314 -55 276 -55 L276 -55 Z " />
<glyph glyph-name="Hcircumflex" unicode="&#x124;" horiz-adv-x="532" d="M106 25 L94 12 C90 7 93 0 99 0 L218 0 C225 0 227 9 224 12 L211 25 L211 220 L341 220 L341 25 L329 12 C325 7 329 0 334 0 L454 0 C460 0 463 8 459 12 L446 25 L446 503 L459 517 C463 522 459 528 454 528 L334 528 C328 528 325 521 329 517 L341 503 L341 320 L211 320 L211 503 L224 517 C228 521 224 528 218 528 L99 528 C92 528 90 521 94 517 L106 503 L106 25 Z M170 603 L232 603 C234 603 236 604 237 606 L279 655 L308 607 C309 605 311 603 314 603 L378 603 C385 603 386 611 384 614 L331 691 C330 693 327 695 325 695 L240 695 C238 695 236 694 235 692 L165 615 C160 610 164 603 170 603 L170 603 Z " />
<glyph glyph-name="hcircumflex" unicode="&#x125;" horiz-adv-x="532" d="M106 25 L94 12 C90 7 93 0 99 0 L218 0 C225 0 227 9 224 12 L211 25 L211 220 L341 220 L341 25 L329 12 C325 7 329 0 334 0 L454 0 C460 0 463 8 459 12 L446 25 L446 503 L459 517 C463 522 459 528 454 528 L334 528 C328 528 325 521 329 517 L341 503 L341 320 L211 320 L211 503 L224 517 C228 521 224 528 218 528 L99 528 C92 528 90 521 94 517 L106 503 L106 25 Z M170 603 L232 603 C234 603 236 604 237 606 L279 655 L308 607 C309 605 311 603 314 603 L378 603 C385 603 386 611 384 614 L331 691 C330 693 327 695 325 695 L240 695 C238 695 236 694 235 692 L165 615 C160 610 164 603 170 603 L170 603 Z " />
<glyph glyph-name="Hbar" unicode="&#x126;" horiz-adv-x="593" d="M517 441 L478 441 L478 503 L490 517 C495 520 490 528 484 528 L365 528 C358 528 355 521 360 517 L371 503 L371 441 L243 441 L243 503 L255 517 C259 521 256 528 250 528 L130 528 C123 528 121 521 124 517 L137 503 L137 441 L98 441 C95 441 91 438 91 434 L91 365 C91 361 96 358 98 358 L137 358 L137 25 L124 12 C120 8 123 0 130 0 L250 0 C257 0 258 9 255 12 L243 25 L243 220 L371 220 L371 25 L360 12 C356 7 359 0 365 0 L484 0 C492 0 493 9 490 12 L478 25 L478 358 L517 358 C520 358 523 361 523 365 L523 434 C523 438 519 441 517 441 L517 441 Z M371 320 L243 320 L243 358 L371 358 L371 320 Z " />
<glyph glyph-name="hbar" unicode="&#x127;" horiz-adv-x="593" d="M517 441 L478 441 L478 503 L490 517 C495 520 490 528 484 528 L365 528 C358 528 355 521 360 517 L371 503 L371 441 L243 441 L243 503 L255 517 C259 521 256 528 250 528 L130 528 C123 528 121 521 124 517 L137 503 L137 441 L98 441 C95 441 91 438 91 434 L91 365 C91 361 96 358 98 358 L137 358 L137 25 L124 12 C120 8 123 0 130 0 L250 0 C257 0 258 9 255 12 L243 25 L243 220 L371 220 L371 25 L360 12 C356 7 359 0 365 0 L484 0 C492 0 493 9 490 12 L478 25 L478 358 L517 358 C520 358 523 361 523 365 L523 434 C523 438 519 441 517 441 L517 441 Z M371 320 L243 320 L243 358 L371 358 L371 320 Z " />
<glyph glyph-name="Itilde" unicode="&#x128;" horiz-adv-x="384" d="M94 12 C90 7 93 0 99 0 L218 0 C225 0 227 9 224 12 L211 25 L211 503 L224 517 C228 521 224 528 218 528 L99 528 C92 528 90 521 94 517 L106 503 L106 25 L94 12 Z M200 703 C167 701 150 670 136 670 C122 670 118 685 118 689 C118 693 115 695 111 695 L59 695 C54 695 51 691 51 687 C51 646 75 602 123 602 C156 602 170 633 187 633 C197 633 205 625 205 616 C205 612 210 610 212 610 L265 610 C270 610 272 614 272 618 C272 659 241 703 200 703 L200 703 Z " />
<glyph glyph-name="itilde" unicode="&#x129;" horiz-adv-x="384" d="M94 12 C90 7 93 0 99 0 L218 0 C225 0 227 9 224 12 L211 25 L211 503 L224 517 C228 521 224 528 218 528 L99 528 C92 528 90 521 94 517 L106 503 L106 25 L94 12 Z M200 703 C167 701 150 670 136 670 C122 670 118 685 118 689 C118 693 115 695 111 695 L59 695 C54 695 51 691 51 687 C51 646 75 602 123 602 C156 602 170 633 187 633 C197 633 205 625 205 616 C205 612 210 610 212 610 L265 610 C270 610 272 614 272 618 C272 659 241 703 200 703 L200 703 Z " />
<glyph glyph-name="Imacron" unicode="&#x12a;" horiz-adv-x="367" d="M94 12 C90 7 93 0 99 0 L218 0 C225 0 227 9 224 12 L211 25 L211 503 L224 517 C228 521 224 528 218 528 L99 528 C92 528 90 521 94 517 L106 503 L106 25 L94 12 Z M53 676 L53 622 C53 618 57 615 61 615 L253 615 C256 615 259 618 259 622 L259 676 C259 680 256 683 253 683 L61 683 C57 683 53 680 53 676 L53 676 Z " />
<glyph glyph-name="imacron" unicode="&#x12b;" horiz-adv-x="367" d="M94 12 C90 7 93 0 99 0 L218 0 C225 0 227 9 224 12 L211 25 L211 503 L224 517 C228 521 224 528 218 528 L99 528 C92 528 90 521 94 517 L106 503 L106 25 L94 12 Z M53 676 L53 622 C53 618 57 615 61 615 L253 615 C256 615 259 618 259 622 L259 676 C259 680 256 683 253 683 L61 683 C57 683 53 680 53 676 L53 676 Z " />
<glyph glyph-name="Ibreve" unicode="&#x12c;" horiz-adv-x="353" d="M94 12 C90 7 93 0 99 0 L218 0 C225 0 227 9 224 12 L211 25 L211 503 L224 517 C228 521 224 528 218 528 L99 528 C92 528 90 521 94 517 L106 503 L106 25 L94 12 Z M181 698 C178 698 174 695 174 691 C174 680 166 673 157 673 C144 673 139 682 139 691 C139 695 136 698 132 698 L68 698 C64 698 61 696 61 690 C61 678 67 645 90 622 C106 605 129 596 157 596 C186 596 208 605 225 622 C247 645 252 678 252 690 C252 694 248 698 245 698 L181 698 Z " />
<glyph glyph-name="ibreve" unicode="&#x12d;" horiz-adv-x="353" d="M94 12 C90 7 93 0 99 0 L218 0 C225 0 227 9 224 12 L211 25 L211 503 L224 517 C228 521 224 528 218 528 L99 528 C92 528 90 521 94 517 L106 503 L106 25 L94 12 Z M181 698 C178 698 174 695 174 691 C174 680 166 673 157 673 C144 673 139 682 139 691 C139 695 136 698 132 698 L68 698 C64 698 61 696 61 690 C61 678 67 645 90 622 C106 605 129 596 157 596 C186 596 208 605 225 622 C247 645 252 678 252 690 C252 694 248 698 245 698 L181 698 Z " />
<glyph glyph-name="Iogonek" unicode="&#x12e;" horiz-adv-x="332" d="M260 517 C264 522 260 528 256 528 L135 528 C129 528 127 521 130 517 L142 503 L142 25 L130 12 C126 7 130 0 135 0 L161 0 L161 -24 L154 -24 C106 -24 91 -54 91 -95 L91 -109 C91 -162 122 -186 171 -186 L211 -186 C216 -186 218 -182 218 -180 L218 -122 C218 -117 214 -115 211 -115 L200 -115 C187 -115 163 -114 163 -105 C163 -97 171 -96 176 -96 C229 -96 234 -76 234 -31 L234 0 L256 0 C261 0 263 8 260 12 L248 25 L248 503 L260 517 Z " />
<glyph glyph-name="iogonek" unicode="&#x12f;" horiz-adv-x="332" d="M260 517 C264 522 260 528 256 528 L135 528 C129 528 127 521 130 517 L142 503 L142 25 L130 12 C126 7 130 0 135 0 L161 0 L161 -24 L154 -24 C106 -24 91 -54 91 -95 L91 -109 C91 -162 122 -186 171 -186 L211 -186 C216 -186 218 -182 218 -180 L218 -122 C218 -117 214 -115 211 -115 L200 -115 C187 -115 163 -114 163 -105 C163 -97 171 -96 176 -96 C229 -96 234 -76 234 -31 L234 0 L256 0 C261 0 263 8 260 12 L248 25 L248 503 L260 517 Z " />
<glyph glyph-name="Idotaccent" unicode="&#x130;" horiz-adv-x="306" d="M94 12 C90 7 93 0 99 0 L218 0 C225 0 227 9 224 12 L211 25 L211 503 L224 517 C228 521 224 528 218 528 L99 528 C92 528 90 521 94 517 L106 503 L106 25 L94 12 Z M165 589 C204 589 237 621 237 660 C237 699 204 730 165 730 C127 730 95 699 95 660 C95 621 127 589 165 589 L165 589 Z " />
<glyph glyph-name="dotlessi" unicode="&#x131;" horiz-adv-x="306" d="M94 12 C90 7 93 0 99 0 L218 0 C225 0 227 9 224 12 L211 25 L211 503 L224 517 C228 521 224 528 218 528 L99 528 C92 528 90 521 94 517 L106 503 L106 25 L94 12 Z M165 589 C204 589 237 621 237 660 C237 699 204 730 165 730 C127 730 95 699 95 660 C95 621 127 589 165 589 L165 589 Z " />
<glyph glyph-name="IJ" unicode="&#x132;" horiz-adv-x="669" d="M94 12 C90 7 93 0 99 0 L218 0 C225 0 227 9 224 12 L211 25 L211 503 L224 517 C228 521 224 528 218 528 L99 528 C92 528 90 521 94 517 L106 503 L106 25 L94 12 Z M591 528 L471 528 C464 528 462 520 465 517 L478 504 L478 189 C478 155 471 100 431 100 C398 100 380 119 369 166 L370 183 C370 190 365 194 359 190 L265 123 C262 121 261 117 263 114 C278 81 301 51 325 29 C354 6 387 -7 420 -7 L440 -7 C522 -7 584 60 584 138 L584 504 L596 517 C600 521 598 528 591 528 L591 528 Z " />
<glyph glyph-name="ij" unicode="&#x133;" horiz-adv-x="669" d="M94 12 C90 7 93 0 99 0 L218 0 C225 0 227 9 224 12 L211 25 L211 503 L224 517 C228 521 224 528 218 528 L99 528 C92 528 90 521 94 517 L106 503 L106 25 L94 12 Z M591 528 L471 528 C464 528 462 520 465 517 L478 504 L478 189 C478 155 471 100 431 100 C398 100 380 119 369 166 L370 183 C370 190 365 194 359 190 L265 123 C262 121 261 117 263 114 C278 81 301 51 325 29 C354 6 387 -7 420 -7 L440 -7 C522 -7 584 60 584 138 L584 504 L596 517 C600 521 598 528 591 528 L591 528 Z " />
<glyph glyph-name="Jcircumflex" unicode="&#x134;" horiz-adv-x="498" d="M420 528 L300 528 C293 528 291 520 294 517 L307 504 L307 189 C307 155 300 100 260 100 C227 100 209 119 198 166 L199 183 C199 190 194 194 188 190 L94 123 C91 121 90 117 92 114 C107 81 130 51 154 29 C183 6 216 -7 249 -7 L269 -7 C351 -7 413 60 413 138 L413 504 L425 517 C429 521 427 528 420 528 L420 528 Z M213 603 L275 603 C277 603 279 604 280 606 L322 655 L351 607 C352 605 354 603 357 603 L421 603 C428 603 429 611 427 614 L374 691 C373 693 370 695 368 695 L283 695 C281 695 279 694 278 692 L208 615 C203 610 207 603 213 603 L213 603 Z " />
<glyph glyph-name="jcircumflex" unicode="&#x135;" horiz-adv-x="498" d="M420 528 L300 528 C293 528 291 520 294 517 L307 504 L307 189 C307 155 300 100 260 100 C227 100 209 119 198 166 L199 183 C199 190 194 194 188 190 L94 123 C91 121 90 117 92 114 C107 81 130 51 154 29 C183 6 216 -7 249 -7 L269 -7 C351 -7 413 60 413 138 L413 504 L425 517 C429 521 427 528 420 528 L420 528 Z M213 603 L275 603 C277 603 279 604 280 606 L322 655 L351 607 C352 605 354 603 357 603 L421 603 C428 603 429 611 427 614 L374 691 C373 693 370 695 368 695 L283 695 C281 695 279 694 278 692 L208 615 C203 610 207 603 213 603 L213 603 Z " />
<glyph glyph-name="uni0136" unicode="&#x136;" horiz-adv-x="537" d="M451 25 L322 343 L437 503 L449 517 C453 522 449 528 445 528 L316 528 C310 528 308 522 312 517 L322 504 L211 355 L211 503 L224 517 C228 521 224 528 218 528 L99 528 C92 528 90 521 94 517 L106 503 L106 25 L94 12 C90 7 93 0 99 0 L218 0 C225 0 227 9 224 12 L211 25 L211 188 L252 244 L328 24 L315 12 C311 9 314 0 320 0 L459 0 C465 0 468 10 465 12 L451 25 Z M269 -58 C230 -58 197 -89 197 -128 C197 -160 221 -187 248 -196 L223 -260 C221 -265 223 -270 230 -270 L284 -270 C287 -270 290 -268 291 -265 L336 -146 C338 -141 340 -133 340 -126 C340 -87 307 -58 269 -58 L269 -58 Z " />
<glyph glyph-name="uni0137" unicode="&#x137;" horiz-adv-x="537" d="M451 25 L322 343 L437 503 L449 517 C453 522 449 528 445 528 L316 528 C310 528 308 522 312 517 L322 504 L211 355 L211 503 L224 517 C228 521 224 528 218 528 L99 528 C92 528 90 521 94 517 L106 503 L106 25 L94 12 C90 7 93 0 99 0 L218 0 C225 0 227 9 224 12 L211 25 L211 188 L252 244 L328 24 L315 12 C311 9 314 0 320 0 L459 0 C465 0 468 10 465 12 L451 25 Z M269 -58 C230 -58 197 -89 197 -128 C197 -160 221 -187 248 -196 L223 -260 C221 -265 223 -270 230 -270 L284 -270 C287 -270 290 -268 291 -265 L336 -146 C338 -141 340 -133 340 -126 C340 -87 307 -58 269 -58 L269 -58 Z " />
<glyph glyph-name="kgreenlandic" unicode="&#x138;" horiz-adv-x="537" d="M451 25 L322 343 L437 503 L438 503 L449 517 C451 517 451 519 451 522 C451 525 448 528 445 528 L316 528 C313 528 312 526 310 524 C309 522 310 518 312 517 L322 504 L211 355 L211 503 L224 517 C226 518 226 522 225 524 C224 526 221 528 218 528 L99 528 C96 528 93 526 92 524 C91 522 91 518 94 517 L106 503 L106 25 L94 12 C91 10 91 7 92 4 C93 2 96 0 99 0 L218 0 C221 0 224 2 225 4 C226 7 226 10 224 12 L211 25 L211 188 L252 244 L328 24 L315 12 C313 10 313 7 313 4 C315 2 318 0 320 0 L459 0 C462 0 465 2 465 4 C466 7 465 10 465 12 L451 25 Z " />
<glyph glyph-name="Lacute" unicode="&#x139;" horiz-adv-x="463" d="M367 101 L211 101 L211 504 L224 517 C228 521 225 528 218 528 L99 528 C92 528 90 522 94 517 L106 504 L106 25 L94 12 C90 7 93 0 99 0 L385 0 C389 0 391 4 391 7 L391 107 C391 114 383 116 380 113 L367 101 Z M159 619 C158 615 163 611 166 611 L195 611 C201 611 201 613 204 616 C204 616 205 617 247 678 C252 685 244 689 241 689 L179 689 C174 689 172 686 172 684 L159 619 Z " />
<glyph glyph-name="lacute" unicode="&#x13a;" horiz-adv-x="463" d="M367 101 L211 101 L211 504 L224 517 C228 521 225 528 218 528 L99 528 C92 528 90 522 94 517 L106 504 L106 25 L94 12 C90 7 93 0 99 0 L385 0 C389 0 391 4 391 7 L391 107 C391 114 383 116 380 113 L367 101 Z M159 619 C158 615 163 611 166 611 L195 611 C201 611 201 613 204 616 C204 616 205 617 247 678 C252 685 244 689 241 689 L179 689 C174 689 172 686 172 684 L159 619 Z " />
<glyph glyph-name="uni013B" unicode="&#x13b;" horiz-adv-x="463" d="M367 101 L211 101 L211 504 L224 517 C228 521 225 528 218 528 L99 528 C92 528 90 522 94 517 L106 504 L106 25 L94 12 C90 7 93 0 99 0 L385 0 C389 0 391 4 391 7 L391 107 C391 114 383 116 380 113 L367 101 Z M236 -56 C197 -56 164 -87 164 -126 C164 -158 188 -185 215 -194 L190 -258 C188 -263 190 -268 197 -268 L251 -268 C254 -268 257 -266 258 -263 L303 -144 C305 -139 307 -131 307 -124 C307 -85 274 -56 236 -56 L236 -56 Z " />
<glyph glyph-name="uni013C" unicode="&#x13c;" horiz-adv-x="463" d="M367 101 L211 101 L211 504 L224 517 C228 521 225 528 218 528 L99 528 C92 528 90 522 94 517 L106 504 L106 25 L94 12 C90 7 93 0 99 0 L385 0 C389 0 391 4 391 7 L391 107 C391 114 383 116 380 113 L367 101 Z M236 -56 C197 -56 164 -87 164 -126 C164 -158 188 -185 215 -194 L190 -258 C188 -263 190 -268 197 -268 L251 -268 C254 -268 257 -266 258 -263 L303 -144 C305 -139 307 -131 307 -124 C307 -85 274 -56 236 -56 L236 -56 Z " />
<glyph glyph-name="Lcaron" unicode="&#x13d;" horiz-adv-x="463" d="M367 101 L211 101 L211 504 L224 517 C228 521 225 528 218 528 L99 528 C92 528 90 522 94 517 L106 504 L106 25 L94 12 C90 7 93 0 99 0 L385 0 C389 0 391 4 391 7 L391 107 C391 114 383 116 380 113 L367 101 Z M307 691 L243 691 C241 691 239 690 237 687 L202 639 L167 687 C166 689 164 691 161 691 L98 691 C92 691 90 682 93 679 L155 602 C157 600 158 599 160 599 L245 599 C248 599 249 600 251 602 L312 679 C316 683 312 691 307 691 L307 691 Z " />
<glyph glyph-name="lcaron" unicode="&#x13e;" horiz-adv-x="463" d="M367 101 L211 101 L211 504 L224 517 C228 521 225 528 218 528 L99 528 C92 528 90 522 94 517 L106 504 L106 25 L94 12 C90 7 93 0 99 0 L385 0 C389 0 391 4 391 7 L391 107 C391 114 383 116 380 113 L367 101 Z M307 691 L243 691 C241 691 239 690 237 687 L202 639 L167 687 C166 689 164 691 161 691 L98 691 C92 691 90 682 93 679 L155 602 C157 600 158 599 160 599 L245 599 C248 599 249 600 251 602 L312 679 C316 683 312 691 307 691 L307 691 Z " />
<glyph glyph-name="Ldot" unicode="&#x13f;" horiz-adv-x="495" d="M367 101 L211 101 L211 504 L224 517 C228 521 225 528 218 528 L99 528 C92 528 90 522 94 517 L106 504 L106 25 L94 12 C90 7 93 0 99 0 L385 0 C389 0 391 4 391 7 L391 107 C391 114 383 116 380 113 L367 101 Z M353 255 C392 255 425 287 425 326 C425 365 392 396 353 396 C315 396 283 365 283 326 C283 287 315 255 353 255 L353 255 Z " />
<glyph glyph-name="ldot" unicode="&#x140;" horiz-adv-x="495" d="M367 101 L211 101 L211 504 L224 517 C228 521 225 528 218 528 L99 528 C92 528 90 522 94 517 L106 504 L106 25 L94 12 C90 7 93 0 99 0 L385 0 C389 0 391 4 391 7 L391 107 C391 114 383 116 380 113 L367 101 Z M353 255 C392 255 425 287 425 326 C425 365 392 396 353 396 C315 396 283 365 283 326 C283 287 315 255 353 255 L353 255 Z " />
<glyph glyph-name="Lslash" unicode="&#x141;" horiz-adv-x="560" d="M465 101 L311 101 L311 288 L421 452 C424 456 419 460 415 460 L324 460 C321 460 318 458 316 455 L311 446 L311 503 L322 517 C326 523 323 528 317 528 L198 528 C192 528 188 521 192 517 L204 503 L204 289 L93 123 C89 119 93 113 97 113 L188 113 C191 113 194 115 196 118 L204 131 L204 25 L192 12 C188 8 192 0 198 0 L484 0 C487 0 491 4 491 8 L491 108 C491 115 483 117 479 113 L465 101 Z " />
<glyph glyph-name="lslash" unicode="&#x142;" horiz-adv-x="560" d="M465 101 L311 101 L311 288 L421 452 C424 456 419 460 415 460 L324 460 C321 460 318 458 316 455 L311 446 L311 503 L322 517 C326 523 323 528 317 528 L198 528 C192 528 188 521 192 517 L204 503 L204 289 L93 123 C89 119 93 113 97 113 L188 113 C191 113 194 115 196 118 L204 131 L204 25 L192 12 C188 8 192 0 198 0 L484 0 C487 0 491 4 491 8 L491 108 C491 115 483 117 479 113 L465 101 Z " />
<glyph glyph-name="Nacute" unicode="&#x143;" horiz-adv-x="517" d="M106 25 L94 12 C90 7 93 0 99 0 L218 0 C225 0 227 9 224 12 L211 25 L211 267 L321 21 L313 12 C309 8 312 0 318 0 L438 0 C445 0 447 8 443 12 L431 25 L431 503 L443 517 C447 522 444 528 438 528 L318 528 C312 528 309 521 313 517 L325 503 L325 266 L213 524 C212 527 209 528 206 528 L99 528 C92 528 90 521 94 517 L106 503 L106 25 Z M243 619 C242 615 247 611 250 611 L279 611 C285 611 285 613 288 616 C288 616 289 617 331 678 C336 685 328 689 325 689 L263 689 C258 689 256 686 256 684 L243 619 Z " />
<glyph glyph-name="nacute" unicode="&#x144;" horiz-adv-x="517" d="M106 25 L94 12 C90 7 93 0 99 0 L218 0 C225 0 227 9 224 12 L211 25 L211 267 L321 21 L313 12 C309 8 312 0 318 0 L438 0 C445 0 447 8 443 12 L431 25 L431 503 L443 517 C447 522 444 528 438 528 L318 528 C312 528 309 521 313 517 L325 503 L325 266 L213 524 C212 527 209 528 206 528 L99 528 C92 528 90 521 94 517 L106 503 L106 25 Z M243 619 C242 615 247 611 250 611 L279 611 C285 611 285 613 288 616 C288 616 289 617 331 678 C336 685 328 689 325 689 L263 689 C258 689 256 686 256 684 L243 619 Z " />
<glyph glyph-name="uni0145" unicode="&#x145;" horiz-adv-x="517" d="M106 25 L94 12 C90 7 93 0 99 0 L218 0 C225 0 227 9 224 12 L211 25 L211 267 L321 21 L313 12 C309 8 312 0 318 0 L438 0 C445 0 447 8 443 12 L431 25 L431 503 L443 517 C447 522 444 528 438 528 L318 528 C312 528 309 521 313 517 L325 503 L325 266 L213 524 C212 527 209 528 206 528 L99 528 C92 528 90 521 94 517 L106 503 L106 25 Z M276 -58 C237 -58 204 -89 204 -128 C204 -160 228 -187 255 -196 L230 -260 C228 -265 230 -270 237 -270 L291 -270 C294 -270 297 -268 298 -265 L343 -146 C345 -141 347 -133 347 -126 C347 -87 314 -58 276 -58 L276 -58 Z " />
<glyph glyph-name="uni0146" unicode="&#x146;" horiz-adv-x="517" d="M106 25 L94 12 C90 7 93 0 99 0 L218 0 C225 0 227 9 224 12 L211 25 L211 267 L321 21 L313 12 C309 8 312 0 318 0 L438 0 C445 0 447 8 443 12 L431 25 L431 503 L443 517 C447 522 444 528 438 528 L318 528 C312 528 309 521 313 517 L325 503 L325 266 L213 524 C212 527 209 528 206 528 L99 528 C92 528 90 521 94 517 L106 503 L106 25 Z M276 -58 C237 -58 204 -89 204 -128 C204 -160 228 -187 255 -196 L230 -260 C228 -265 230 -270 237 -270 L291 -270 C294 -270 297 -268 298 -265 L343 -146 C345 -141 347 -133 347 -126 C347 -87 314 -58 276 -58 L276 -58 Z " />
<glyph glyph-name="Ncaron" unicode="&#x147;" horiz-adv-x="517" d="M106 25 L94 12 C90 7 93 0 99 0 L218 0 C225 0 227 9 224 12 L211 25 L211 267 L321 21 L313 12 C309 8 312 0 318 0 L438 0 C445 0 447 8 443 12 L431 25 L431 503 L443 517 C447 522 444 528 438 528 L318 528 C312 528 309 521 313 517 L325 503 L325 266 L213 524 C212 527 209 528 206 528 L99 528 C92 528 90 521 94 517 L106 503 L106 25 Z M371 695 L307 695 C305 695 303 694 301 691 L266 643 L231 691 C230 693 228 695 225 695 L162 695 C156 695 154 686 157 683 L219 606 C221 604 222 603 224 603 L309 603 C312 603 313 604 315 606 L376 683 C380 687 376 695 371 695 L371 695 Z " />
<glyph glyph-name="ncaron" unicode="&#x148;" horiz-adv-x="517" d="M106 25 L94 12 C90 7 93 0 99 0 L218 0 C225 0 227 9 224 12 L211 25 L211 267 L321 21 L313 12 C309 8 312 0 318 0 L438 0 C445 0 447 8 443 12 L431 25 L431 503 L443 517 C447 522 444 528 438 528 L318 528 C312 528 309 521 313 517 L325 503 L325 266 L213 524 C212 527 209 528 206 528 L99 528 C92 528 90 521 94 517 L106 503 L106 25 Z M371 695 L307 695 C305 695 303 694 301 691 L266 643 L231 691 C230 693 228 695 225 695 L162 695 C156 695 154 686 157 683 L219 606 C221 604 222 603 224 603 L309 603 C312 603 313 604 315 606 L376 683 C380 687 376 695 371 695 L371 695 Z " />
<glyph glyph-name="napostrophe" unicode="&#x149;" horiz-adv-x="546" d="M106 25 L94 12 C89 8 93 0 99 0 L218 0 C225 0 227 9 224 12 L211 25 L211 267 L321 21 L313 12 C309 8 312 0 318 0 L438 0 C445 0 448 9 443 12 L431 25 L431 503 L443 517 C448 521 444 528 438 528 L318 528 C312 528 309 521 313 517 L325 503 L325 266 L213 524 C211 526 209 528 206 528 L99 528 C92 528 89 520 94 517 L106 503 L106 25 Z M69 659 C64 659 60 655 61 650 L71 581 C72 576 74 574 78 574 L107 574 C111 574 112 576 113 581 L123 649 C124 656 120 659 116 659 L69 659 Z " />
<glyph glyph-name="Eng" unicode="&#x14a;" horiz-adv-x="516" d="M439 528 L318 528 C312 528 310 520 313 517 L326 503 L326 266 L213 524 C211 526 209 528 206 528 L99 528 C92 528 89 520 94 517 L106 503 L106 25 L94 12 C89 8 93 0 99 0 L218 0 C226 0 228 8 224 12 L212 25 L212 267 L325 12 L325 6 C325 -29 318 -83 277 -83 C263 -83 246 -80 233 -59 L235 -44 C236 -37 228 -34 223 -37 L137 -99 C133 -103 133 -107 135 -109 C142 -119 161 -143 176 -156 C204 -179 235 -190 267 -190 L287 -190 C367 -190 431 -122 431 -46 L431 503 L443 517 C448 520 444 528 439 528 L439 528 Z " />
<glyph glyph-name="eng" unicode="&#x14b;" horiz-adv-x="516" d="M439 528 L318 528 C312 528 310 520 313 517 L326 503 L326 266 L213 524 C211 526 209 528 206 528 L99 528 C92 528 89 520 94 517 L106 503 L106 25 L94 12 C89 8 93 0 99 0 L218 0 C226 0 228 8 224 12 L212 25 L212 267 L325 12 L325 6 C325 -22 321 -45 313 -60 C304 -75 294 -83 277 -83 C263 -83 246 -80 233 -59 L235 -44 C235 -37 228 -34 223 -37 L137 -99 C133 -103 133 -107 135 -109 C142 -119 161 -143 176 -156 C204 -179 235 -190 267 -190 L287 -190 C325 -190 362 -175 389 -147 C416 -120 431 -84 431 -46 L431 503 L443 517 C448 520 444 528 439 528 L439 528 Z " />
<glyph glyph-name="Omacron" unicode="&#x14c;" horiz-adv-x="527" d="M275 -8 C344 -8 391 8 422 40 C446 66 457 104 457 159 L457 370 C457 423 446 461 422 487 C392 520 344 535 275 535 C205 535 158 520 127 488 C104 461 91 423 91 370 L91 159 C91 104 104 66 127 40 C157 8 204 -8 275 -8 L275 -8 Z M351 343 L351 185 C351 159 346 138 336 123 C324 107 305 100 279 100 L269 100 C236 100 198 115 198 185 L198 343 C198 370 202 390 213 406 C225 421 243 428 269 428 L279 428 C313 428 351 414 351 343 L351 343 Z M173 676 L173 622 C173 618 177 615 181 615 L373 615 C376 615 379 618 379 622 L379 676 C379 680 376 683 373 683 L181 683 C177 683 173 680 173 676 L173 676 Z " />
<glyph glyph-name="omacron" unicode="&#x14d;" horiz-adv-x="527" d="M275 -8 C344 -8 391 8 422 40 C446 66 457 104 457 159 L457 370 C457 423 446 461 422 487 C392 520 344 535 275 535 C205 535 158 520 127 488 C104 461 91 423 91 370 L91 159 C91 104 104 66 127 40 C157 8 204 -8 275 -8 L275 -8 Z M351 343 L351 185 C351 159 346 138 336 123 C324 107 305 100 279 100 L269 100 C236 100 198 115 198 185 L198 343 C198 370 202 390 213 406 C225 421 243 428 269 428 L279 428 C313 428 351 414 351 343 L351 343 Z M173 676 L173 622 C173 618 177 615 181 615 L373 615 C376 615 379 618 379 622 L379 676 C379 680 376 683 373 683 L181 683 C177 683 173 680 173 676 L173 676 Z " />
<glyph glyph-name="Obreve" unicode="&#x14e;" horiz-adv-x="527" d="M275 -8 C344 -8 391 8 422 40 C446 66 457 104 457 159 L457 370 C457 423 446 461 422 487 C392 520 344 535 275 535 C205 535 158 520 127 488 C104 461 91 423 91 370 L91 159 C91 104 104 66 127 40 C157 8 204 -8 275 -8 L275 -8 Z M351 343 L351 185 C351 159 346 138 336 123 C324 107 305 100 279 100 L269 100 C236 100 198 115 198 185 L198 343 C198 370 202 390 213 406 C225 421 243 428 269 428 L279 428 C313 428 351 414 351 343 L351 343 Z M303 698 C300 698 296 695 296 691 C296 680 288 673 279 673 C266 673 261 682 261 691 C261 695 258 698 254 698 L190 698 C186 698 183 696 183 690 C183 678 189 645 212 622 C228 605 251 596 279 596 C308 596 330 605 347 622 C369 645 374 678 374 690 C374 694 370 698 367 698 L303 698 Z " />
<glyph glyph-name="obreve" unicode="&#x14f;" horiz-adv-x="527" d="M275 -8 C344 -8 391 8 422 40 C446 66 457 104 457 159 L457 370 C457 423 446 461 422 487 C392 520 344 535 275 535 C205 535 158 520 127 488 C104 461 91 423 91 370 L91 159 C91 104 104 66 127 40 C157 8 204 -8 275 -8 L275 -8 Z M351 343 L351 185 C351 159 346 138 336 123 C324 107 305 100 279 100 L269 100 C236 100 198 115 198 185 L198 343 C198 370 202 390 213 406 C225 421 243 428 269 428 L279 428 C313 428 351 414 351 343 L351 343 Z M303 698 C300 698 296 695 296 691 C296 680 288 673 279 673 C266 673 261 682 261 691 C261 695 258 698 254 698 L190 698 C186 698 183 696 183 690 C183 678 189 645 212 622 C228 605 251 596 279 596 C308 596 330 605 347 622 C369 645 374 678 374 690 C374 694 370 698 367 698 L303 698 Z " />
<glyph glyph-name="Ohungarumlaut" unicode="&#x150;" horiz-adv-x="527" d="M275 -8 C344 -8 391 8 422 40 C446 66 457 104 457 159 L457 370 C457 423 446 461 422 487 C392 520 344 535 275 535 C205 535 158 520 127 488 C104 461 91 423 91 370 L91 159 C91 104 104 66 127 40 C157 8 204 -8 275 -8 L275 -8 Z M351 343 L351 185 C351 159 346 138 336 123 C324 107 305 100 279 100 L269 100 C236 100 198 115 198 185 L198 343 C198 370 202 390 213 406 C225 421 243 428 269 428 L279 428 C313 428 351 414 351 343 L351 343 Z M227 609 L254 609 C258 609 260 609 261 612 L289 683 C291 689 286 693 283 693 L235 693 C232 693 229 690 229 686 L219 616 C218 610 222 609 227 609 L227 609 Z M303 693 C299 693 296 690 295 686 L286 616 C285 611 288 609 293 609 L321 609 C324 609 327 609 328 612 L355 683 C357 688 353 693 349 693 L303 693 Z " />
<glyph glyph-name="ohungarumlaut" unicode="&#x151;" horiz-adv-x="527" d="M275 -8 C344 -8 391 8 422 40 C446 66 457 104 457 159 L457 370 C457 423 446 461 422 487 C392 520 344 535 275 535 C205 535 158 520 127 488 C104 461 91 423 91 370 L91 159 C91 104 104 66 127 40 C157 8 204 -8 275 -8 L275 -8 Z M351 343 L351 185 C351 159 346 138 336 123 C324 107 305 100 279 100 L269 100 C236 100 198 115 198 185 L198 343 C198 370 202 390 213 406 C225 421 243 428 269 428 L279 428 C313 428 351 414 351 343 L351 343 Z M227 609 L254 609 C258 609 260 609 261 612 L289 683 C291 689 286 693 283 693 L235 693 C232 693 229 690 229 686 L219 616 C218 610 222 609 227 609 L227 609 Z M303 693 C299 693 296 690 295 686 L286 616 C285 611 288 609 293 609 L321 609 C324 609 327 609 328 612 L355 683 C357 688 353 693 349 693 L303 693 Z " />
<glyph glyph-name="OE" unicode="&#x152;" horiz-adv-x="707" d="M250 0 L630 0 C635 0 636 4 636 7 L636 106 C636 115 629 116 625 112 L613 100 L457 100 L457 218 L574 218 L586 207 C591 202 598 207 598 212 L598 327 C598 333 589 336 586 332 L574 319 L457 319 L457 428 L613 428 L625 416 C630 411 636 415 636 422 L636 522 C636 525 634 528 630 528 L250 528 C148 528 91 468 91 370 L91 158 C91 56 153 0 250 0 L250 0 Z M351 100 L278 100 C228 100 197 134 197 182 L197 346 C197 401 229 428 278 428 L351 428 L351 100 Z " />
<glyph glyph-name="oe" unicode="&#x153;" horiz-adv-x="707" d="M250 0 L630 0 C635 0 636 4 636 7 L636 106 C636 115 629 116 625 112 L613 100 L457 100 L457 218 L574 218 L586 207 C591 202 598 207 598 212 L598 327 C598 333 589 336 586 332 L574 319 L457 319 L457 428 L613 428 L625 416 C630 411 636 415 636 422 L636 522 C636 525 634 528 630 528 L250 528 C148 528 91 468 91 370 L91 158 C91 56 153 0 250 0 L250 0 Z M351 100 L278 100 C228 100 197 134 197 182 L197 346 C197 401 229 428 278 428 L351 428 L351 100 Z " />
<glyph glyph-name="Racute" unicode="&#x154;" horiz-adv-x="495" d="M106 503 L106 25 L94 12 C90 7 93 0 99 0 L220 0 C227 0 231 5 224 12 L211 25 L211 140 L242 140 L294 25 L284 12 C279 6 284 0 289 0 L415 0 C422 0 426 9 421 12 L407 26 L347 158 C369 168 385 186 396 209 C406 229 411 255 411 283 L411 384 C411 478 357 528 268 528 L99 528 C92 528 90 521 94 517 L106 503 Z M211 239 L211 428 L224 428 C257 428 276 424 288 414 C301 405 306 388 306 360 L306 308 C306 281 301 265 288 255 C275 244 256 239 224 239 L211 239 Z M215 619 C214 615 219 611 222 611 L251 611 C257 611 257 613 260 616 C260 616 261 617 303 678 C308 685 300 689 297 689 L235 689 C230 689 228 686 228 684 L215 619 Z " />
<glyph glyph-name="racute" unicode="&#x155;" horiz-adv-x="495" d="M106 503 L106 25 L94 12 C90 7 93 0 99 0 L220 0 C227 0 231 5 224 12 L211 25 L211 140 L242 140 L294 25 L284 12 C279 6 284 0 289 0 L415 0 C422 0 426 9 421 12 L407 26 L347 158 C369 168 385 186 396 209 C406 229 411 255 411 283 L411 384 C411 478 357 528 268 528 L99 528 C92 528 90 521 94 517 L106 503 Z M211 239 L211 428 L224 428 C257 428 276 424 288 414 C301 405 306 388 306 360 L306 308 C306 281 301 265 288 255 C275 244 256 239 224 239 L211 239 Z M215 619 C214 615 219 611 222 611 L251 611 C257 611 257 613 260 616 C260 616 261 617 303 678 C308 685 300 689 297 689 L235 689 C230 689 228 686 228 684 L215 619 Z " />
<glyph glyph-name="uni0156" unicode="&#x156;" horiz-adv-x="495" d="M106 503 L106 25 L94 12 C90 7 93 0 99 0 L220 0 C227 0 231 5 224 12 L211 25 L211 140 L242 140 L294 25 L284 12 C279 6 284 0 289 0 L415 0 C422 0 426 9 421 12 L407 26 L347 158 C369 168 385 186 396 209 C406 229 411 255 411 283 L411 384 C411 478 357 528 268 528 L99 528 C92 528 90 521 94 517 L106 503 Z M211 239 L211 428 L224 428 C257 428 276 424 288 414 C301 405 306 388 306 360 L306 308 C306 281 301 265 288 255 C275 244 256 239 224 239 L211 239 Z M262 -56 C223 -56 190 -87 190 -126 C190 -158 214 -185 241 -194 L216 -258 C214 -263 216 -268 223 -268 L277 -268 C280 -268 283 -266 284 -263 L329 -144 C331 -139 333 -131 333 -124 C333 -85 300 -56 262 -56 L262 -56 Z " />
<glyph glyph-name="uni0157" unicode="&#x157;" horiz-adv-x="495" d="M106 503 L106 25 L94 12 C90 7 93 0 99 0 L220 0 C227 0 231 5 224 12 L211 25 L211 140 L242 140 L294 25 L284 12 C279 6 284 0 289 0 L415 0 C422 0 426 9 421 12 L407 26 L347 158 C369 168 385 186 396 209 C406 229 411 255 411 283 L411 384 C411 478 357 528 268 528 L99 528 C92 528 90 521 94 517 L106 503 Z M211 239 L211 428 L224 428 C257 428 276 424 288 414 C301 405 306 388 306 360 L306 308 C306 281 301 265 288 255 C275 244 256 239 224 239 L211 239 Z M262 -56 C223 -56 190 -87 190 -126 C190 -158 214 -185 241 -194 L216 -258 C214 -263 216 -268 223 -268 L277 -268 C280 -268 283 -266 284 -263 L329 -144 C331 -139 333 -131 333 -124 C333 -85 300 -56 262 -56 L262 -56 Z " />
<glyph glyph-name="Rcaron" unicode="&#x158;" horiz-adv-x="495" d="M106 503 L106 25 L94 12 C90 7 93 0 99 0 L220 0 C227 0 231 5 224 12 L211 25 L211 140 L242 140 L294 25 L284 12 C279 6 284 0 289 0 L415 0 C422 0 426 9 421 12 L407 26 L347 158 C369 168 385 186 396 209 C406 229 411 255 411 283 L411 384 C411 478 357 528 268 528 L99 528 C92 528 90 521 94 517 L106 503 Z M211 239 L211 428 L224 428 C257 428 276 424 288 414 C301 405 306 388 306 360 L306 308 C306 281 301 265 288 255 C275 244 256 239 224 239 L211 239 Z M349 695 L285 695 C283 695 281 694 279 691 L244 643 L209 691 C208 693 206 695 203 695 L140 695 C134 695 132 686 135 683 L197 606 C199 604 200 603 202 603 L287 603 C290 603 291 604 293 606 L354 683 C358 687 354 695 349 695 L349 695 Z " />
<glyph glyph-name="rcaron" unicode="&#x159;" horiz-adv-x="495" d="M106 503 L106 25 L94 12 C90 7 93 0 99 0 L220 0 C227 0 231 5 224 12 L211 25 L211 140 L242 140 L294 25 L284 12 C279 6 284 0 289 0 L415 0 C422 0 426 9 421 12 L407 26 L347 158 C369 168 385 186 396 209 C406 229 411 255 411 283 L411 384 C411 478 357 528 268 528 L99 528 C92 528 90 521 94 517 L106 503 Z M211 239 L211 428 L224 428 C257 428 276 424 288 414 C301 405 306 388 306 360 L306 308 C306 281 301 265 288 255 C275 244 256 239 224 239 L211 239 Z M349 695 L285 695 C283 695 281 694 279 691 L244 643 L209 691 C208 693 206 695 203 695 L140 695 C134 695 132 686 135 683 L197 606 C199 604 200 603 202 603 L287 603 C290 603 291 604 293 606 L354 683 C358 687 354 695 349 695 L349 695 Z " />
<glyph glyph-name="Sacute" unicode="&#x15a;" horiz-adv-x="531" d="M143 281 C176 254 215 235 253 221 C286 209 339 188 339 151 C339 113 304 99 277 99 C244 99 214 123 200 149 L203 171 C204 180 196 181 192 178 L102 107 C99 105 98 103 99 100 C124 23 208 -8 282 -8 C349 -8 398 14 429 58 C457 97 461 143 461 167 C461 250 378 295 313 324 C279 339 210 358 210 394 C210 423 251 430 269 430 C303 430 328 411 346 387 L343 369 C342 362 348 359 353 362 L440 419 C444 421 445 424 443 427 C408 497 355 535 281 535 C188 535 91 485 91 385 C91 345 108 311 143 281 L143 281 Z M245 619 C244 615 249 611 252 611 L281 611 C287 611 287 613 290 616 C290 616 291 617 333 678 C338 685 330 689 327 689 L265 689 C260 689 258 686 258 684 L245 619 Z " />
<glyph glyph-name="sacute" unicode="&#x15b;" horiz-adv-x="531" d="M143 281 C176 254 215 235 253 221 C286 209 339 188 339 151 C339 113 304 99 277 99 C244 99 214 123 200 149 L203 171 C204 180 196 181 192 178 L102 107 C99 105 98 103 99 100 C124 23 208 -8 282 -8 C349 -8 398 14 429 58 C457 97 461 143 461 167 C461 250 378 295 313 324 C279 339 210 358 210 394 C210 423 251 430 269 430 C303 430 328 411 346 387 L343 369 C342 362 348 359 353 362 L440 419 C444 421 445 424 443 427 C408 497 355 535 281 535 C188 535 91 485 91 385 C91 345 108 311 143 281 L143 281 Z M245 619 C244 615 249 611 252 611 L281 611 C287 611 287 613 290 616 C290 616 291 617 333 678 C338 685 330 689 327 689 L265 689 C260 689 258 686 258 684 L245 619 Z " />
<glyph glyph-name="Scircumflex" unicode="&#x15c;" horiz-adv-x="531" d="M143 281 C176 254 215 235 253 221 C286 209 339 188 339 151 C339 113 304 99 277 99 C244 99 214 123 200 149 L203 171 C204 180 196 181 192 178 L102 107 C99 105 98 103 99 100 C124 23 208 -8 282 -8 C349 -8 398 14 429 58 C457 97 461 143 461 167 C461 250 378 295 313 324 C279 339 210 358 210 394 C210 423 251 430 269 430 C303 430 328 411 346 387 L343 369 C342 362 348 359 353 362 L440 419 C444 421 445 424 443 427 C408 497 355 535 281 535 C188 535 91 485 91 385 C91 345 108 311 143 281 L143 281 Z M172 603 L234 603 C236 603 238 604 239 606 L281 655 L310 607 C311 605 313 603 316 603 L380 603 C387 603 388 611 386 614 L333 691 C332 693 329 695 327 695 L242 695 C240 695 238 694 237 692 L167 615 C162 610 166 603 172 603 L172 603 Z " />
<glyph glyph-name="scircumflex" unicode="&#x15d;" horiz-adv-x="531" d="M143 281 C176 254 215 235 253 221 C286 209 339 188 339 151 C339 113 304 99 277 99 C244 99 214 123 200 149 L203 171 C204 180 196 181 192 178 L102 107 C99 105 98 103 99 100 C124 23 208 -8 282 -8 C349 -8 398 14 429 58 C457 97 461 143 461 167 C461 250 378 295 313 324 C279 339 210 358 210 394 C210 423 251 430 269 430 C303 430 328 411 346 387 L343 369 C342 362 348 359 353 362 L440 419 C444 421 445 424 443 427 C408 497 355 535 281 535 C188 535 91 485 91 385 C91 345 108 311 143 281 L143 281 Z M172 603 L234 603 C236 603 238 604 239 606 L281 655 L310 607 C311 605 313 603 316 603 L380 603 C387 603 388 611 386 614 L333 691 C332 693 329 695 327 695 L242 695 C240 695 238 694 237 692 L167 615 C162 610 166 603 172 603 L172 603 Z " />
<glyph glyph-name="Scedilla" unicode="&#x15e;" horiz-adv-x="532" d="M433 257 L423 269 C398 294 363 315 313 336 C282 349 209 369 209 409 C209 435 248 442 269 442 C295 442 318 430 332 414 C340 408 345 401 346 398 L343 380 C342 375 349 371 353 373 L440 431 C443 433 445 437 443 440 C410 506 354 547 281 547 C189 547 93 498 91 400 C89 311 179 262 253 234 C288 221 343 199 339 158 C336 124 306 111 277 111 C243 111 214 135 200 161 L203 183 C204 192 196 194 192 191 L102 120 C99 118 98 115 99 112 C123 49 183 14 247 6 L247 -21 C247 -68 259 -85 301 -85 C309 -85 317 -86 317 -93 C317 -103 294 -103 284 -103 L269 -103 C265 -103 262 -107 262 -110 L262 -167 C262 -172 267 -176 269 -176 L310 -176 C361 -176 389 -148 389 -99 L389 -84 C389 -35 370 -12 327 -12 L319 -12 L319 7 C368 13 405 35 429 70 C456 107 460 153 461 176 C462 207 453 234 433 257 L433 257 Z " />
<glyph glyph-name="scedilla" unicode="&#x15f;" horiz-adv-x="532" d="M433 257 L423 269 C398 294 363 315 313 336 C282 349 209 369 209 409 C209 435 248 442 269 442 C295 442 318 430 332 414 C340 408 345 401 346 398 L343 380 C342 375 349 371 353 373 L440 431 C443 433 445 437 443 440 C410 506 354 547 281 547 C189 547 93 498 91 400 C89 311 179 262 253 234 C288 221 343 199 339 158 C336 124 306 111 277 111 C243 111 214 135 200 161 L203 183 C204 192 196 194 192 191 L102 120 C99 118 98 115 99 112 C123 49 183 14 247 6 L247 -21 C247 -68 259 -85 301 -85 C309 -85 317 -86 317 -93 C317 -103 294 -103 284 -103 L269 -103 C265 -103 262 -107 262 -110 L262 -167 C262 -172 267 -176 269 -176 L310 -176 C361 -176 389 -148 389 -99 L389 -84 C389 -35 370 -12 327 -12 L319 -12 L319 7 C368 13 405 35 429 70 C456 107 460 153 461 176 C462 207 453 234 433 257 L433 257 Z " />
<glyph glyph-name="Scaron" unicode="&#x160;" horiz-adv-x="531" d="M143 281 C176 254 215 235 253 221 C286 209 339 188 339 151 C339 113 304 99 277 99 C244 99 214 123 200 149 L203 171 C204 180 196 181 192 178 L102 107 C99 105 98 103 99 100 C124 23 208 -8 282 -8 C349 -8 398 14 429 58 C457 97 461 143 461 167 C461 250 378 295 313 324 C279 339 210 358 210 394 C210 423 251 430 269 430 C303 430 328 411 346 387 L343 369 C342 362 348 359 353 362 L440 419 C444 421 445 424 443 427 C408 497 355 535 281 535 C188 535 91 485 91 385 C91 345 108 311 143 281 L143 281 Z M377 695 L313 695 C311 695 309 694 307 691 L272 643 L237 691 C236 693 234 695 231 695 L168 695 C162 695 160 686 163 683 L225 606 C227 604 228 603 230 603 L315 603 C318 603 319 604 321 606 L382 683 C386 687 382 695 377 695 L377 695 Z " />
<glyph glyph-name="scaron" unicode="&#x161;" horiz-adv-x="531" d="M143 281 C176 254 215 235 253 221 C286 209 339 188 339 151 C339 113 304 99 277 99 C244 99 214 123 200 149 L203 171 C204 180 196 181 192 178 L102 107 C99 105 98 103 99 100 C124 23 208 -8 282 -8 C349 -8 398 14 429 58 C457 97 461 143 461 167 C461 250 378 295 313 324 C279 339 210 358 210 394 C210 423 251 430 269 430 C303 430 328 411 346 387 L343 369 C342 362 348 359 353 362 L440 419 C444 421 445 424 443 427 C408 497 355 535 281 535 C188 535 91 485 91 385 C91 345 108 311 143 281 L143 281 Z M377 695 L313 695 C311 695 309 694 307 691 L272 643 L237 691 C236 693 234 695 231 695 L168 695 C162 695 160 686 163 683 L225 606 C227 604 228 603 230 603 L315 603 C318 603 319 604 321 606 L382 683 C386 687 382 695 377 695 L377 695 Z " />
<glyph glyph-name="uni0162" unicode="&#x162;" horiz-adv-x="508" d="M116 428 L212 428 L212 25 L200 12 C196 8 199 0 205 0 L325 0 C332 0 334 8 330 12 L318 25 L318 428 L414 428 L427 416 C431 412 439 416 439 422 L439 520 C439 525 436 528 431 528 L99 528 C95 528 91 524 91 520 L91 422 C91 416 100 412 104 416 L116 428 Z M255 -44 C216 -44 183 -75 183 -114 C183 -146 207 -173 234 -182 L209 -246 C207 -251 209 -256 216 -256 L270 -256 C273 -256 276 -254 277 -251 L322 -132 C324 -127 326 -119 326 -112 C326 -73 293 -44 255 -44 L255 -44 Z " />
<glyph glyph-name="uni0163" unicode="&#x163;" horiz-adv-x="508" d="M116 428 L212 428 L212 25 L200 12 C196 8 199 0 205 0 L325 0 C332 0 334 8 330 12 L318 25 L318 428 L414 428 L427 416 C431 412 439 416 439 422 L439 520 C439 525 436 528 431 528 L99 528 C95 528 91 524 91 520 L91 422 C91 416 100 412 104 416 L116 428 Z M255 -44 C216 -44 183 -75 183 -114 C183 -146 207 -173 234 -182 L209 -246 C207 -251 209 -256 216 -256 L270 -256 C273 -256 276 -254 277 -251 L322 -132 C324 -127 326 -119 326 -112 C326 -73 293 -44 255 -44 L255 -44 Z " />
<glyph glyph-name="Tcaron" unicode="&#x164;" horiz-adv-x="508" d="M116 428 L212 428 L212 25 L200 12 C196 8 199 0 205 0 L325 0 C332 0 334 8 330 12 L318 25 L318 428 L414 428 L427 416 C431 412 439 416 439 422 L439 520 C439 525 436 528 431 528 L99 528 C95 528 91 524 91 520 L91 422 C91 416 100 412 104 416 L116 428 Z M371 695 L307 695 C305 695 303 694 301 691 L266 643 L231 691 C230 693 228 695 225 695 L162 695 C156 695 154 686 157 683 L219 606 C221 604 222 603 224 603 L309 603 C312 603 313 604 315 606 L376 683 C380 687 376 695 371 695 L371 695 Z " />
<glyph glyph-name="tcaron" unicode="&#x165;" horiz-adv-x="508" d="M116 428 L212 428 L212 25 L200 12 C196 8 199 0 205 0 L325 0 C332 0 334 8 330 12 L318 25 L318 428 L414 428 L427 416 C431 412 439 416 439 422 L439 520 C439 525 436 528 431 528 L99 528 C95 528 91 524 91 520 L91 422 C91 416 100 412 104 416 L116 428 Z M371 695 L307 695 C305 695 303 694 301 691 L266 643 L231 691 C230 693 228 695 225 695 L162 695 C156 695 154 686 157 683 L219 606 C221 604 222 603 224 603 L309 603 C312 603 313 604 315 606 L376 683 C380 687 376 695 371 695 L371 695 Z " />
<glyph glyph-name="Tbar" unicode="&#x166;" horiz-adv-x="508" d="M431 528 L98 528 C95 528 91 525 91 522 L91 422 C91 415 100 412 104 416 L116 428 L212 428 L212 328 L134 328 C130 328 127 324 127 320 L127 252 C127 247 131 243 134 243 L212 243 L212 25 L200 12 C196 8 199 0 205 0 L325 0 C332 0 334 8 330 12 L318 25 L318 243 L396 243 C400 243 404 247 404 252 L404 320 C404 324 399 328 396 328 L318 328 L318 428 L414 428 L427 416 C432 412 439 415 439 422 L439 522 C439 523 438 525 437 526 C435 527 433 528 431 528 L431 528 Z " />
<glyph glyph-name="tbar" unicode="&#x167;" horiz-adv-x="508" d="M431 528 L98 528 C95 528 91 525 91 522 L91 422 C91 415 100 412 104 416 L116 428 L212 428 L212 328 L134 328 C130 328 127 324 127 320 L127 252 C127 247 131 243 134 243 L212 243 L212 25 L200 12 C196 8 199 0 205 0 L325 0 C332 0 334 8 330 12 L318 25 L318 243 L396 243 C400 243 404 247 404 252 L404 320 C404 324 399 328 396 328 L318 328 L318 428 L414 428 L427 416 C432 412 439 415 439 422 L439 522 C439 523 438 525 437 526 C435 527 433 528 431 528 L431 528 Z " />
<glyph glyph-name="Utilde" unicode="&#x168;" horiz-adv-x="556" d="M106 503 L106 159 C106 37 176 -8 289 -8 C408 -8 471 44 471 159 L471 503 L484 517 C488 521 484 528 479 528 L358 528 C351 528 350 520 353 517 L366 503 L366 185 C366 134 343 100 294 100 L284 100 C251 100 212 115 212 185 L212 503 L224 517 C228 521 226 528 218 528 L99 528 C92 528 90 522 94 517 L106 503 Z M336 703 C303 701 286 670 272 670 C258 670 254 685 254 689 C254 693 251 695 247 695 L195 695 C190 695 187 691 187 687 C187 646 211 602 259 602 C292 602 306 633 323 633 C333 633 341 625 341 616 C341 612 346 610 348 610 L401 610 C406 610 408 614 408 618 C408 659 377 703 336 703 L336 703 Z " />
<glyph glyph-name="utilde" unicode="&#x169;" horiz-adv-x="556" d="M106 503 L106 159 C106 37 176 -8 289 -8 C408 -8 471 44 471 159 L471 503 L484 517 C488 521 484 528 479 528 L358 528 C351 528 350 520 353 517 L366 503 L366 185 C366 134 343 100 294 100 L284 100 C251 100 212 115 212 185 L212 503 L224 517 C228 521 226 528 218 528 L99 528 C92 528 90 522 94 517 L106 503 Z M336 703 C303 701 286 670 272 670 C258 670 254 685 254 689 C254 693 251 695 247 695 L195 695 C190 695 187 691 187 687 C187 646 211 602 259 602 C292 602 306 633 323 633 C333 633 341 625 341 616 C341 612 346 610 348 610 L401 610 C406 610 408 614 408 618 C408 659 377 703 336 703 L336 703 Z " />
<glyph glyph-name="Umacron" unicode="&#x16a;" horiz-adv-x="556" d="M106 503 L106 159 C106 37 176 -8 289 -8 C408 -8 471 44 471 159 L471 503 L484 517 C488 521 484 528 479 528 L358 528 C351 528 350 520 353 517 L366 503 L366 185 C366 134 343 100 294 100 L284 100 C251 100 212 115 212 185 L212 503 L224 517 C228 521 226 528 218 528 L99 528 C92 528 90 522 94 517 L106 503 Z M187 676 L187 622 C187 618 191 615 195 615 L387 615 C390 615 393 618 393 622 L393 676 C393 680 390 683 387 683 L195 683 C191 683 187 680 187 676 L187 676 Z " />
<glyph glyph-name="umacron" unicode="&#x16b;" horiz-adv-x="556" d="M106 503 L106 159 C106 37 176 -8 289 -8 C408 -8 471 44 471 159 L471 503 L484 517 C488 521 484 528 479 528 L358 528 C351 528 350 520 353 517 L366 503 L366 185 C366 134 343 100 294 100 L284 100 C251 100 212 115 212 185 L212 503 L224 517 C228 521 226 528 218 528 L99 528 C92 528 90 522 94 517 L106 503 Z M187 676 L187 622 C187 618 191 615 195 615 L387 615 C390 615 393 618 393 622 L393 676 C393 680 390 683 387 683 L195 683 C191 683 187 680 187 676 L187 676 Z " />
<glyph glyph-name="Ubreve" unicode="&#x16c;" horiz-adv-x="556" d="M106 503 L106 159 C106 37 176 -8 289 -8 C408 -8 471 44 471 159 L471 503 L484 517 C488 521 484 528 479 528 L358 528 C351 528 350 520 353 517 L366 503 L366 185 C366 134 343 100 294 100 L284 100 C251 100 212 115 212 185 L212 503 L224 517 C228 521 226 528 218 528 L99 528 C92 528 90 522 94 517 L106 503 Z M317 698 C314 698 310 695 310 691 C310 680 302 673 293 673 C280 673 275 682 275 691 C275 695 272 698 268 698 L204 698 C200 698 197 696 197 690 C197 678 203 645 226 622 C242 605 265 596 293 596 C322 596 344 605 361 622 C383 645 388 678 388 690 C388 694 384 698 381 698 L317 698 Z " />
<glyph glyph-name="ubreve" unicode="&#x16d;" horiz-adv-x="556" d="M106 503 L106 159 C106 37 176 -8 289 -8 C408 -8 471 44 471 159 L471 503 L484 517 C488 521 484 528 479 528 L358 528 C351 528 350 520 353 517 L366 503 L366 185 C366 134 343 100 294 100 L284 100 C251 100 212 115 212 185 L212 503 L224 517 C228 521 226 528 218 528 L99 528 C92 528 90 522 94 517 L106 503 Z M317 698 C314 698 310 695 310 691 C310 680 302 673 293 673 C280 673 275 682 275 691 C275 695 272 698 268 698 L204 698 C200 698 197 696 197 690 C197 678 203 645 226 622 C242 605 265 596 293 596 C322 596 344 605 361 622 C383 645 388 678 388 690 C388 694 384 698 381 698 L317 698 Z " />
<glyph glyph-name="Uring" unicode="&#x16e;" horiz-adv-x="556" d="M106 503 L106 159 C106 37 176 -8 289 -8 C408 -8 471 44 471 159 L471 503 L484 517 C488 521 484 528 479 528 L358 528 C351 528 350 520 353 517 L366 503 L366 185 C366 134 343 100 294 100 L284 100 C251 100 212 115 212 185 L212 503 L224 517 C228 521 226 528 218 528 L99 528 C92 528 90 522 94 517 L106 503 Z M376 666 C373 718 344 740 296 740 C245 740 214 716 214 666 L214 645 C217 592 248 571 296 571 C346 571 376 596 376 645 L376 666 Z M322 656 C322 644 319 627 298 627 L293 627 C276 628 269 641 269 656 C269 668 272 684 293 684 L298 684 C316 683 322 671 322 656 L322 656 Z " />
<glyph glyph-name="uring" unicode="&#x16f;" horiz-adv-x="556" d="M106 503 L106 159 C106 37 176 -8 289 -8 C408 -8 471 44 471 159 L471 503 L484 517 C488 521 484 528 479 528 L358 528 C351 528 350 520 353 517 L366 503 L366 185 C366 134 343 100 294 100 L284 100 C251 100 212 115 212 185 L212 503 L224 517 C228 521 226 528 218 528 L99 528 C92 528 90 522 94 517 L106 503 Z M376 666 C373 718 344 740 296 740 C245 740 214 716 214 666 L214 645 C217 592 248 571 296 571 C346 571 376 596 376 645 L376 666 Z M322 656 C322 644 319 627 298 627 L293 627 C276 628 269 641 269 656 C269 668 272 684 293 684 L298 684 C316 683 322 671 322 656 L322 656 Z " />
<glyph glyph-name="Uhungarumlaut" unicode="&#x170;" horiz-adv-x="556" d="M106 503 L106 159 C106 37 176 -8 289 -8 C408 -8 471 44 471 159 L471 503 L484 517 C488 521 484 528 479 528 L358 528 C351 528 350 520 353 517 L366 503 L366 185 C366 134 343 100 294 100 L284 100 C251 100 212 115 212 185 L212 503 L224 517 C228 521 226 528 218 528 L99 528 C92 528 90 522 94 517 L106 503 Z M241 609 L268 609 C272 609 274 609 275 612 L303 683 C305 689 300 693 297 693 L249 693 C246 693 243 690 243 686 L233 616 C232 610 236 609 241 609 L241 609 Z M317 693 C313 693 310 690 309 686 L300 616 C299 611 302 609 307 609 L335 609 C338 609 341 609 342 612 L369 683 C371 688 367 693 363 693 L317 693 Z " />
<glyph glyph-name="uhungarumlaut" unicode="&#x171;" horiz-adv-x="556" d="M106 503 L106 159 C106 37 176 -8 289 -8 C408 -8 471 44 471 159 L471 503 L484 517 C488 521 484 528 479 528 L358 528 C351 528 350 520 353 517 L366 503 L366 185 C366 134 343 100 294 100 L284 100 C251 100 212 115 212 185 L212 503 L224 517 C228 521 226 528 218 528 L99 528 C92 528 90 522 94 517 L106 503 Z M241 609 L268 609 C272 609 274 609 275 612 L303 683 C305 689 300 693 297 693 L249 693 C246 693 243 690 243 686 L233 616 C232 610 236 609 241 609 L241 609 Z M317 693 C313 693 310 690 309 686 L300 616 C299 611 302 609 307 609 L335 609 C338 609 341 609 342 612 L369 683 C371 688 367 693 363 693 L317 693 Z " />
<glyph glyph-name="Uogonek" unicode="&#x172;" horiz-adv-x="557" d="M481 528 L360 528 C354 528 351 520 354 517 L368 503 L368 184 C368 134 343 99 295 99 L286 99 C235 99 213 141 213 184 L213 503 L226 516 C230 520 227 528 220 528 L100 528 C94 528 92 521 95 517 L107 503 L107 158 C107 60 154 5 247 -6 L247 -29 L240 -29 C224 -29 204 -30 188 -47 C180 -58 178 -76 178 -99 L178 -114 C178 -168 209 -191 257 -191 L296 -191 C301 -191 303 -186 303 -184 L303 -125 C303 -121 300 -119 296 -119 L286 -119 C272 -119 250 -119 250 -108 C250 -101 256 -100 266 -100 C314 -100 320 -74 320 -36 L320 -7 C427 1 473 57 473 158 L473 503 L485 517 C489 522 485 528 481 528 L481 528 Z " />
<glyph glyph-name="uogonek" unicode="&#x173;" horiz-adv-x="557" d="M481 528 L360 528 C354 528 351 520 354 517 L368 503 L368 184 C368 134 343 99 295 99 L286 99 C235 99 213 141 213 184 L213 503 L226 516 C230 520 227 528 220 528 L100 528 C94 528 92 521 95 517 L107 503 L107 158 C107 60 154 5 247 -6 L247 -29 L240 -29 C224 -29 204 -30 188 -47 C180 -58 178 -76 178 -99 L178 -114 C178 -168 209 -191 257 -191 L296 -191 C301 -191 303 -186 303 -184 L303 -125 C303 -121 300 -119 296 -119 L286 -119 C272 -119 250 -119 250 -108 C250 -101 256 -100 266 -100 C314 -100 320 -74 320 -36 L320 -7 C427 1 473 57 473 158 L473 503 L485 517 C489 522 485 528 481 528 L481 528 Z " />
<glyph glyph-name="Wcircumflex" unicode="&#x174;" horiz-adv-x="785" d="M571 24 L700 503 L713 517 C717 521 713 528 708 528 L587 528 C581 528 579 520 582 517 L594 504 L512 197 L444 503 L456 517 C460 521 457 528 450 528 L323 528 C317 528 315 521 318 517 L331 503 L363 385 L297 184 L212 504 L224 517 C228 521 224 528 218 528 L99 528 C92 528 90 521 94 517 L106 503 L235 24 L227 11 C224 6 227 0 234 0 L331 0 C333 0 336 2 337 4 L410 207 L465 5 C465 3 468 0 472 0 L574 0 C579 0 581 7 579 11 L571 24 Z M287 603 L349 603 C351 603 353 604 354 606 L396 655 L425 607 C426 605 428 603 431 603 L495 603 C502 603 503 611 501 614 L448 691 C447 693 444 695 442 695 L357 695 C355 695 353 694 352 692 L282 615 C277 610 281 603 287 603 L287 603 Z " />
<glyph glyph-name="wcircumflex" unicode="&#x175;" horiz-adv-x="785" d="M571 24 L700 503 L713 517 C717 521 713 528 708 528 L587 528 C581 528 579 520 582 517 L594 504 L512 197 L444 503 L456 517 C460 521 457 528 450 528 L323 528 C317 528 315 521 318 517 L331 503 L363 385 L297 184 L212 504 L224 517 C228 521 224 528 218 528 L99 528 C92 528 90 521 94 517 L106 503 L235 24 L227 11 C224 6 227 0 234 0 L331 0 C333 0 336 2 337 4 L410 207 L465 5 C465 3 468 0 472 0 L574 0 C579 0 581 7 579 11 L571 24 Z M287 603 L349 603 C351 603 353 604 354 606 L396 655 L425 607 C426 605 428 603 431 603 L495 603 C502 603 503 611 501 614 L448 691 C447 693 444 695 442 695 L357 695 C355 695 353 694 352 692 L282 615 C277 610 281 603 287 603 L287 603 Z " />
<glyph glyph-name="Ycircumflex" unicode="&#x176;" horiz-adv-x="519" d="M106 503 L218 250 L218 25 L207 12 C202 6 206 0 212 0 L332 0 C339 0 340 9 337 12 L325 25 L325 250 L434 503 L447 517 C451 521 447 528 442 528 L321 528 C315 528 313 520 316 517 L329 504 L271 390 L212 504 L224 517 C228 521 224 528 218 528 L99 528 C92 528 90 521 94 517 L106 503 Z M171 603 L233 603 C235 603 237 604 238 606 L280 655 L309 607 C310 605 312 603 315 603 L379 603 C386 603 387 611 385 614 L332 691 C331 693 328 695 326 695 L241 695 C239 695 237 694 236 692 L166 615 C161 610 165 603 171 603 L171 603 Z " />
<glyph glyph-name="ycircumflex" unicode="&#x177;" horiz-adv-x="519" d="M106 503 L218 250 L218 25 L207 12 C202 6 206 0 212 0 L332 0 C339 0 340 9 337 12 L325 25 L325 250 L434 503 L447 517 C451 521 447 528 442 528 L321 528 C315 528 313 520 316 517 L329 504 L271 390 L212 504 L224 517 C228 521 224 528 218 528 L99 528 C92 528 90 521 94 517 L106 503 Z M171 603 L233 603 C235 603 237 604 238 606 L280 655 L309 607 C310 605 312 603 315 603 L379 603 C386 603 387 611 385 614 L332 691 C331 693 328 695 326 695 L241 695 C239 695 237 694 236 692 L166 615 C161 610 165 603 171 603 L171 603 Z " />
<glyph glyph-name="Ydieresis" unicode="&#x178;" horiz-adv-x="519" d="M106 503 L218 250 L218 25 L207 12 C202 6 206 0 212 0 L332 0 C339 0 340 9 337 12 L325 25 L325 250 L434 503 L447 517 C451 521 447 528 442 528 L321 528 C315 528 313 520 316 517 L329 504 L271 390 L212 504 L224 517 C228 521 224 528 218 528 L99 528 C92 528 90 521 94 517 L106 503 Z M186 649 C186 628 204 609 226 609 C247 609 264 628 264 649 C264 670 247 687 226 687 C204 687 186 670 186 649 L186 649 Z M316 609 C338 609 355 628 355 649 C355 670 338 687 316 687 C295 687 278 670 278 649 C278 628 295 609 316 609 L316 609 Z " />
<glyph glyph-name="Zacute" unicode="&#x179;" horiz-adv-x="486" d="M116 428 L287 428 L94 99 C93 97 93 96 93 96 L93 7 C93 2 97 0 100 0 L409 0 C414 0 416 4 416 7 L416 106 C416 114 409 115 405 112 L392 100 L221 100 L414 429 C415 430 415 431 415 432 L415 522 C415 523 414 528 409 528 C406 528 410 528 99 528 C95 528 91 525 91 521 L91 422 C91 415 99 411 104 416 L116 428 Z M233 619 C232 615 237 611 240 611 L269 611 C275 611 275 613 278 616 C278 616 279 617 321 678 C326 685 318 689 315 689 L253 689 C248 689 246 686 246 684 L233 619 Z " />
<glyph glyph-name="zacute" unicode="&#x17a;" horiz-adv-x="486" d="M116 428 L287 428 L94 99 C93 97 93 96 93 96 L93 7 C93 2 97 0 100 0 L409 0 C414 0 416 4 416 7 L416 106 C416 114 409 115 405 112 L392 100 L221 100 L414 429 C415 430 415 431 415 432 L415 522 C415 523 414 528 409 528 C406 528 410 528 99 528 C95 528 91 525 91 521 L91 422 C91 415 99 411 104 416 L116 428 Z M233 619 C232 615 237 611 240 611 L269 611 C275 611 275 613 278 616 C278 616 279 617 321 678 C326 685 318 689 315 689 L253 689 C248 689 246 686 246 684 L233 619 Z " />
<glyph glyph-name="Zdotaccent" unicode="&#x17b;" horiz-adv-x="486" d="M116 428 L287 428 L94 99 C93 97 93 96 93 96 L93 7 C93 2 97 0 100 0 L409 0 C414 0 416 4 416 7 L416 106 C416 114 409 115 405 112 L392 100 L221 100 L414 429 C415 430 415 431 415 432 L415 522 C415 523 414 528 409 528 C406 528 410 528 99 528 C95 528 91 525 91 521 L91 422 C91 415 99 411 104 416 L116 428 Z M262 589 C301 589 334 621 334 660 C334 699 301 730 262 730 C224 730 192 699 192 660 C192 621 224 589 262 589 L262 589 Z " />
<glyph glyph-name="zdotaccent" unicode="&#x17c;" horiz-adv-x="486" d="M116 428 L287 428 L94 99 C93 97 93 96 93 96 L93 7 C93 2 97 0 100 0 L409 0 C414 0 416 4 416 7 L416 106 C416 114 409 115 405 112 L392 100 L221 100 L414 429 C415 430 415 431 415 432 L415 522 C415 523 414 528 409 528 C406 528 410 528 99 528 C95 528 91 525 91 521 L91 422 C91 415 99 411 104 416 L116 428 Z M262 589 C301 589 334 621 334 660 C334 699 301 730 262 730 C224 730 192 699 192 660 C192 621 224 589 262 589 L262 589 Z " />
<glyph glyph-name="Zcaron" unicode="&#x17d;" horiz-adv-x="486" d="M116 428 L287 428 L94 99 C93 97 93 96 93 96 L93 7 C93 2 97 0 100 0 L409 0 C414 0 416 4 416 7 L416 106 C416 114 409 115 405 112 L392 100 L221 100 L414 429 C415 430 415 431 415 432 L415 522 C415 523 414 528 409 528 C406 528 410 528 99 528 C95 528 91 525 91 521 L91 422 C91 415 99 411 104 416 L116 428 Z M362 695 L298 695 C296 695 294 694 292 691 L257 643 L222 691 C221 693 219 695 216 695 L153 695 C147 695 145 686 148 683 L210 606 C212 604 213 603 215 603 L300 603 C303 603 304 604 306 606 L367 683 C371 687 367 695 362 695 L362 695 Z " />
<glyph glyph-name="zcaron" unicode="&#x17e;" horiz-adv-x="486" d="M116 428 L287 428 L94 99 C93 97 93 96 93 96 L93 7 C93 2 97 0 100 0 L409 0 C414 0 416 4 416 7 L416 106 C416 114 409 115 405 112 L392 100 L221 100 L414 429 C415 430 415 431 415 432 L415 522 C415 523 414 528 409 528 C406 528 410 528 99 528 C95 528 91 525 91 521 L91 422 C91 415 99 411 104 416 L116 428 Z M362 695 L298 695 C296 695 294 694 292 691 L257 643 L222 691 C221 693 219 695 216 695 L153 695 C147 695 145 686 148 683 L210 606 C212 604 213 603 215 603 L300 603 C303 603 304 604 306 606 L367 683 C371 687 367 695 362 695 L362 695 Z " />
<glyph glyph-name="longs" unicode="&#x17f;" horiz-adv-x="415" d="M339 536 L312 536 C219 536 154 507 142 414 L99 414 C95 414 91 411 91 407 L91 338 C91 334 95 331 99 331 L140 331 L140 25 L127 12 C123 8 125 1 132 1 L252 1 C260 1 260 9 257 12 L245 25 L245 353 C249 399 270 429 316 429 L321 429 L334 416 C338 412 346 416 346 422 L346 528 C346 533 343 536 339 536 L339 536 Z " />
<glyph glyph-name="florin" unicode="&#x192;" horiz-adv-x="468" d="M297 250 L352 250 C355 250 359 253 359 256 L359 326 C359 330 355 332 352 332 L297 332 L297 344 C297 370 303 391 313 406 C326 422 345 429 370 429 L374 429 L388 416 C392 413 399 416 399 422 L399 528 C399 533 396 536 392 536 L365 536 C246 536 192 481 192 370 L192 332 L124 332 C122 332 118 330 118 326 L118 256 C118 253 122 250 124 250 L193 250 L193 48 C193 21 188 1 177 -13 C165 -29 146 -37 122 -37 L117 -37 L104 -25 C98 -20 91 -25 91 -30 L91 -137 C91 -141 95 -143 99 -143 L125 -143 C248 -143 299 -93 298 22 L297 250 Z " />
<glyph glyph-name="Aringacute" unicode="&#x1fa;" horiz-adv-x="570" d="M486 25 L360 494 C374 507 377 530 377 547 L377 568 C377 621 342 642 296 642 C244 642 217 615 217 568 L217 547 C217 524 224 504 233 493 L106 25 L94 12 C89 8 94 0 99 0 L219 0 C226 0 228 9 225 12 L213 24 L237 117 L355 117 L380 24 L369 12 C364 8 369 0 373 0 L493 0 C500 0 503 9 499 12 L486 25 Z M264 217 L296 337 L329 217 L264 217 Z M294 586 L298 586 C316 586 322 573 322 559 C322 546 320 529 298 529 L294 529 C276 529 271 544 271 559 C271 570 273 586 294 586 L294 586 Z M278 695 C277 691 282 687 285 687 L314 687 C320 687 320 689 323 692 C323 692 324 693 366 754 C371 761 363 765 360 765 L298 765 C293 765 291 762 291 760 L278 695 Z " />
<glyph glyph-name="aringacute" unicode="&#x1fb;" horiz-adv-x="570" d="M486 25 L360 494 C374 507 377 530 377 547 L377 568 C377 621 342 642 296 642 C244 642 217 615 217 568 L217 547 C217 524 224 504 233 493 L106 25 L94 12 C89 8 94 0 99 0 L219 0 C226 0 228 9 225 12 L213 24 L237 117 L355 117 L380 24 L369 12 C364 8 369 0 373 0 L493 0 C500 0 503 9 499 12 L486 25 Z M264 217 L296 337 L329 217 L264 217 Z M294 586 L298 586 C316 586 322 573 322 559 C322 546 320 529 298 529 L294 529 C276 529 271 544 271 559 C271 570 273 586 294 586 L294 586 Z M278 695 C277 691 282 687 285 687 L314 687 C320 687 320 689 323 692 C323 692 324 693 366 754 C371 761 363 765 360 765 L298 765 C293 765 291 762 291 760 L278 695 Z " />
<glyph glyph-name="AEacute" unicode="&#x1fc;" horiz-adv-x="733" d="M377 117 L377 25 L364 12 C360 8 364 0 370 0 L655 0 C659 0 662 4 662 7 L662 106 C662 114 655 116 651 112 L637 100 L483 100 L483 218 L599 218 L611 207 C617 202 623 204 623 212 L623 327 C623 334 614 335 611 332 L599 319 L483 319 L483 428 L637 428 L651 416 C655 411 662 415 662 422 L662 522 C662 525 659 528 655 528 L297 528 C292 528 289 520 293 517 L305 503 L106 25 L93 12 C89 8 93 0 98 0 L218 0 C225 0 227 9 224 12 L212 24 L251 117 L377 117 Z M377 421 L377 217 L292 217 L377 421 Z M426 619 C425 615 430 611 433 611 L462 611 C468 611 468 613 471 616 C471 616 472 617 514 678 C519 685 511 689 508 689 L446 689 C441 689 439 686 439 684 L426 619 Z " />
<glyph glyph-name="aeacute" unicode="&#x1fd;" horiz-adv-x="733" d="M377 117 L377 25 L364 12 C360 8 364 0 370 0 L655 0 C659 0 662 4 662 7 L662 106 C662 114 655 116 651 112 L637 100 L483 100 L483 218 L599 218 L611 207 C617 202 623 204 623 212 L623 327 C623 334 614 335 611 332 L599 319 L483 319 L483 428 L637 428 L651 416 C655 411 662 415 662 422 L662 522 C662 525 659 528 655 528 L297 528 C292 528 289 520 293 517 L305 503 L106 25 L93 12 C89 8 93 0 98 0 L218 0 C225 0 227 9 224 12 L212 24 L251 117 L377 117 Z M377 421 L377 217 L292 217 L377 421 Z M426 619 C425 615 430 611 433 611 L462 611 C468 611 468 613 471 616 C471 616 472 617 514 678 C519 685 511 689 508 689 L446 689 C441 689 439 686 439 684 L426 619 Z " />
<glyph glyph-name="Oslashacute" unicode="&#x1fe;" horiz-adv-x="526" d="M228 -48 L242 -6 C252 -7 263 -8 275 -8 C394 -8 457 45 457 159 L457 370 C457 431 442 474 408 500 L425 549 C426 553 423 559 418 559 L328 559 C324 559 321 556 320 553 L313 534 C302 535 288 536 275 536 C157 536 91 486 91 370 L91 159 C91 107 105 53 146 24 L123 -44 C122 -48 126 -53 131 -53 L221 -53 C225 -53 227 -50 228 -48 L228 -48 Z M277 101 L351 327 L351 270 L351 185 C351 133 328 101 277 101 L277 101 Z M198 270 L198 344 C198 370 202 391 213 406 C225 421 243 429 269 429 L279 429 L198 180 C198 181 198 183 198 185 L198 270 Z M255 619 C254 615 259 611 262 611 L291 611 C297 611 297 613 300 616 C300 616 301 617 343 678 C348 685 340 689 337 689 L275 689 C270 689 268 686 268 684 L255 619 Z " />
<glyph glyph-name="oslashacute" unicode="&#x1ff;" horiz-adv-x="526" d="M228 -48 L242 -6 C252 -7 263 -8 275 -8 C394 -8 457 45 457 159 L457 370 C457 431 442 474 408 500 L425 549 C426 553 423 559 418 559 L328 559 C324 559 321 556 320 553 L313 534 C302 535 288 536 275 536 C157 536 91 486 91 370 L91 159 C91 107 105 53 146 24 L123 -44 C122 -48 126 -53 131 -53 L221 -53 C225 -53 227 -50 228 -48 L228 -48 Z M277 101 L351 327 L351 270 L351 185 C351 133 328 101 277 101 L277 101 Z M198 270 L198 344 C198 370 202 391 213 406 C225 421 243 429 269 429 L279 429 L198 180 C198 181 198 183 198 185 L198 270 Z M255 619 C254 615 259 611 262 611 L291 611 C297 611 297 613 300 616 C300 616 301 617 343 678 C348 685 340 689 337 689 L275 689 C270 689 268 686 268 684 L255 619 Z " />
<glyph glyph-name="uni0218" unicode="&#x218;" horiz-adv-x="531" d="M143 281 C176 254 215 235 253 221 C286 209 339 188 339 151 C339 113 304 99 277 99 C244 99 214 123 200 149 L203 171 C204 180 196 181 192 178 L102 107 C99 105 98 103 99 100 C124 23 208 -8 282 -8 C349 -8 398 14 429 58 C457 97 461 143 461 167 C461 250 378 295 313 324 C279 339 210 358 210 394 C210 423 251 430 269 430 C303 430 328 411 346 387 L343 369 C342 362 348 359 353 362 L440 419 C444 421 445 424 443 427 C408 497 355 535 281 535 C188 535 91 485 91 385 C91 345 108 311 143 281 L143 281 Z M276 -55 C237 -55 204 -86 204 -125 C204 -157 228 -184 255 -193 L230 -257 C228 -262 230 -267 237 -267 L291 -267 C294 -267 297 -265 298 -262 L343 -143 C345 -138 347 -130 347 -123 C347 -84 314 -55 276 -55 L276 -55 Z " />
<glyph glyph-name="uni0219" unicode="&#x219;" horiz-adv-x="531" d="M143 281 C176 254 215 235 253 221 C286 209 339 188 339 151 C339 113 304 99 277 99 C244 99 214 123 200 149 L203 171 C204 180 196 181 192 178 L102 107 C99 105 98 103 99 100 C124 23 208 -8 282 -8 C349 -8 398 14 429 58 C457 97 461 143 461 167 C461 250 378 295 313 324 C279 339 210 358 210 394 C210 423 251 430 269 430 C303 430 328 411 346 387 L343 369 C342 362 348 359 353 362 L440 419 C444 421 445 424 443 427 C408 497 355 535 281 535 C188 535 91 485 91 385 C91 345 108 311 143 281 L143 281 Z M276 -55 C237 -55 204 -86 204 -125 C204 -157 228 -184 255 -193 L230 -257 C228 -262 230 -267 237 -267 L291 -267 C294 -267 297 -265 298 -262 L343 -143 C345 -138 347 -130 347 -123 C347 -84 314 -55 276 -55 L276 -55 Z " />
<glyph glyph-name="uni021A" unicode="&#x21a;" horiz-adv-x="508" d="M116 428 L212 428 L212 25 L200 12 C196 8 199 0 205 0 L325 0 C332 0 334 8 330 12 L318 25 L318 428 L414 428 L427 416 C431 412 439 416 439 422 L439 520 C439 525 436 528 431 528 L99 528 C95 528 91 524 91 520 L91 422 C91 416 100 412 104 416 L116 428 Z M255 -44 C216 -44 183 -75 183 -114 C183 -146 207 -173 234 -182 L209 -246 C207 -251 209 -256 216 -256 L270 -256 C273 -256 276 -254 277 -251 L322 -132 C324 -127 326 -119 326 -112 C326 -73 293 -44 255 -44 L255 -44 Z " />
<glyph glyph-name="uni021B" unicode="&#x21b;" horiz-adv-x="508" d="M116 428 L212 428 L212 25 L200 12 C196 8 199 0 205 0 L325 0 C332 0 334 8 330 12 L318 25 L318 428 L414 428 L427 416 C431 412 439 416 439 422 L439 520 C439 525 436 528 431 528 L99 528 C95 528 91 524 91 520 L91 422 C91 416 100 412 104 416 L116 428 Z M255 -44 C216 -44 183 -75 183 -114 C183 -146 207 -173 234 -182 L209 -246 C207 -251 209 -256 216 -256 L270 -256 C273 -256 276 -254 277 -251 L322 -132 C324 -127 326 -119 326 -112 C326 -73 293 -44 255 -44 L255 -44 Z " />
<glyph glyph-name="uni0237" unicode="&#x237;" horiz-adv-x="498" d="M420 528 L300 528 C293 528 291 520 294 517 L307 504 L307 189 C307 155 300 100 260 100 C227 100 209 119 198 166 L199 183 C199 190 194 194 188 190 L94 123 C91 121 90 117 92 114 C107 81 130 51 154 29 C183 6 216 -7 249 -7 L269 -7 C351 -7 413 60 413 138 L413 504 L425 517 C429 521 427 528 420 528 L420 528 Z " />
<glyph glyph-name="circumflex" unicode="&#x2c6;" horiz-adv-x="384" d="M99 459 L161 459 C163 459 165 460 166 462 L208 511 L237 463 C238 461 240 459 243 459 L307 459 C314 459 315 467 313 470 L260 547 C259 549 256 551 254 551 L169 551 C167 551 165 550 164 548 L94 471 C89 466 93 459 99 459 L99 459 Z " />
<glyph glyph-name="caron" unicode="&#x2c7;" horiz-adv-x="384" d="M307 551 L243 551 C241 551 239 550 237 547 L202 499 L167 547 C166 549 164 551 161 551 L98 551 C92 551 90 542 93 539 L155 462 C157 460 158 459 160 459 L245 459 C248 459 249 460 251 462 L312 539 C316 543 312 551 307 551 L307 551 Z " />
<glyph glyph-name="uni02C9" unicode="&#x2c9;" horiz-adv-x="367" d="M91 532 L91 478 C91 474 95 471 99 471 L291 471 C294 471 297 474 297 478 L297 532 C297 536 294 539 291 539 L99 539 C95 539 91 536 91 532 L91 532 Z " />
<glyph glyph-name="breve" unicode="&#x2d8;" horiz-adv-x="353" d="M212 554 C209 554 205 551 205 547 C205 536 197 529 188 529 C175 529 170 538 170 547 C170 551 167 554 163 554 L99 554 C95 554 92 552 92 546 C92 491 138 452 188 452 C242 452 283 493 283 546 C283 550 279 554 276 554 L212 554 Z " />
<glyph glyph-name="dotaccent" unicode="&#x2d9;" horiz-adv-x="303" d="M161 444 C200 444 233 476 233 515 C233 554 200 585 161 585 C123 585 91 554 91 515 C91 476 123 444 161 444 L161 444 Z " />
<glyph glyph-name="ring" unicode="&#x2da;" horiz-adv-x="322" d="M253 505 C250 557 221 579 173 579 C122 579 91 555 91 505 L91 484 C94 431 125 410 173 410 C223 410 253 435 253 484 L253 505 L253 505 Z M199 495 C199 483 196 466 175 466 L170 466 C153 467 146 480 146 495 C146 507 149 523 170 523 L175 523 C193 522 199 510 199 495 L199 495 Z " />
<glyph glyph-name="ogonek" unicode="&#x2db;" horiz-adv-x="303" d="M176 -84 L180 -84 C228 -84 233 -59 233 -20 L233 17 C233 21 229 24 226 24 L167 24 C164 24 161 21 161 17 L161 -12 L153 -12 C103 -12 91 -42 91 -83 L91 -98 C91 -150 122 -175 171 -175 L213 -175 C218 -175 220 -171 220 -167 L220 -109 C220 -103 215 -103 211 -103 C208 -103 205 -103 202 -103 C194 -103 184 -103 176 -103 C168 -103 164 -100 164 -94 C164 -88 167 -84 176 -84 L176 -84 Z " />
<glyph glyph-name="tilde" unicode="&#x2dc;" horiz-adv-x="384" d="M240 559 C207 557 190 526 176 526 C162 526 158 541 158 545 C158 549 155 551 151 551 L99 551 C94 551 91 547 91 543 C91 502 115 458 163 458 C196 458 210 489 227 489 C237 489 245 481 245 472 C245 468 250 466 252 466 L305 466 C310 466 312 470 312 474 C312 515 281 559 240 559 L240 559 Z " />
<glyph glyph-name="hungarumlaut" unicode="&#x2dd;" horiz-adv-x="298" d="M126 465 C130 465 132 465 133 468 L161 539 C163 545 158 549 155 549 L107 549 C104 549 101 546 101 542 L91 472 C90 466 95 465 99 465 L126 465 Z M175 549 C171 549 167 546 167 542 L158 472 C157 467 161 465 165 465 L193 465 C196 465 199 465 200 468 L227 539 C229 544 225 549 221 549 L175 549 Z " />
<glyph glyph-name="gravecomb" unicode="&#x300;" horiz-adv-x="238" d="M130 471 C131 468 133 467 136 467 L161 467 C165 467 169 469 168 475 L158 542 C157 546 155 549 151 549 L99 549 C95 549 90 544 93 539 L130 471 L130 471 Z " />
<glyph glyph-name="acutecomb" unicode="&#x301;" horiz-adv-x="251" d="M92 475 C91 471 96 467 99 467 L128 467 C134 467 134 469 137 472 C137 472 138 473 180 534 C185 541 177 545 174 545 L112 545 C107 545 105 542 105 540 L92 475 Z " />
<glyph glyph-name="uni0302" unicode="&#x302;" horiz-adv-x="384" d="M99 459 L161 459 C163 459 165 460 166 462 L208 511 L237 463 C238 461 240 459 243 459 L307 459 C314 459 315 467 313 470 L260 547 C259 549 256 551 254 551 L169 551 C167 551 165 550 164 548 L94 471 C89 466 93 459 99 459 L99 459 Z " />
<glyph glyph-name="tildecomb" unicode="&#x303;" horiz-adv-x="384" d="M240 559 C207 557 190 526 176 526 C162 526 158 541 158 545 C158 549 155 551 151 551 L99 551 C94 551 91 547 91 543 C91 502 115 458 163 458 C196 458 210 489 227 489 C237 489 245 481 245 472 C245 468 250 466 252 466 L305 466 C310 466 312 470 312 474 C312 515 281 559 240 559 L240 559 Z " />
<glyph glyph-name="uni0304" unicode="&#x304;" horiz-adv-x="367" d="M91 532 L91 478 C91 474 95 471 99 471 L291 471 C294 471 297 474 297 478 L297 532 C297 536 294 539 291 539 L99 539 C95 539 91 536 91 532 L91 532 Z " />
<glyph glyph-name="uni0306" unicode="&#x306;" horiz-adv-x="353" d="M212 554 C209 554 205 551 205 547 C205 536 197 529 188 529 C175 529 170 538 170 547 C170 551 167 554 163 554 L99 554 C95 554 92 552 92 546 C92 534 98 501 121 478 C137 461 160 452 188 452 C217 452 239 461 256 478 C278 501 283 534 283 546 C283 550 279 554 276 554 L212 554 Z " />
<glyph glyph-name="uni0307" unicode="&#x307;" horiz-adv-x="303" d="M161 444 C200 444 233 476 233 515 C233 554 200 585 161 585 C123 585 91 554 91 515 C91 476 123 444 161 444 L161 444 Z " />
<glyph glyph-name="uni0308" unicode="&#x308;" horiz-adv-x="330" d="M91 505 C91 484 109 465 131 465 C152 465 169 484 169 505 C169 526 152 543 131 543 C109 543 91 526 91 505 L91 505 Z M221 465 C243 465 260 484 260 505 C260 526 243 543 221 543 C200 543 183 526 183 505 C183 484 200 465 221 465 L221 465 Z " />
<glyph glyph-name="uni030A" unicode="&#x30a;" horiz-adv-x="322" d="M253 505 C250 557 221 579 173 579 C122 579 91 555 91 505 L91 484 C94 431 125 410 173 410 C223 410 253 435 253 484 L253 505 Z M199 495 C199 483 196 466 175 466 L170 466 C153 467 146 480 146 495 C146 507 149 523 170 523 L175 523 C193 522 199 510 199 495 L199 495 Z " />
<glyph glyph-name="uni030B" unicode="&#x30b;" horiz-adv-x="298" d="M99 465 L126 465 C130 465 132 465 133 468 L161 539 C163 545 158 549 155 549 L107 549 C104 549 101 546 101 542 L91 472 C90 466 94 465 99 465 L99 465 Z M175 549 C171 549 168 546 167 542 L158 472 C157 467 160 465 165 465 L193 465 C196 465 199 465 200 468 L227 539 C229 544 225 549 221 549 L175 549 Z " />
<glyph glyph-name="uni030C" unicode="&#x30c;" horiz-adv-x="384" d="M307 551 L243 551 C241 551 239 550 237 547 L202 499 L167 547 C166 549 164 551 161 551 L98 551 C92 551 90 542 93 539 L155 462 C157 460 158 459 160 459 L245 459 C248 459 249 460 251 462 L312 539 C316 543 312 551 307 551 L307 551 Z " />
<glyph glyph-name="uni0312" unicode="&#x312;" horiz-adv-x="303" d="M183 492 L208 558 C210 563 204 568 200 568 L148 568 C145 568 142 565 141 562 L94 445 C91 438 91 431 91 426 C91 387 123 354 162 354 C200 354 233 387 233 426 C233 456 210 485 183 492 L183 492 Z " />
<glyph glyph-name="uni0315" unicode="&#x315;" horiz-adv-x="303" d="M161 676 C122 676 89 645 89 606 C89 574 113 547 140 538 L115 474 C113 469 115 464 122 464 L176 464 C179 464 182 466 183 469 L228 588 C230 593 232 601 232 608 C232 647 199 676 161 676 L161 676 Z " />
<glyph glyph-name="uni0326" unicode="&#x326;" horiz-adv-x="303" d="M161 -44 C122 -44 89 -75 89 -114 C89 -146 113 -173 140 -182 L115 -246 C113 -251 115 -256 122 -256 L176 -256 C179 -256 182 -254 183 -251 L228 -132 C230 -127 232 -119 232 -112 C232 -73 199 -44 161 -44 L161 -44 Z " />
<glyph glyph-name="uni0327" unicode="&#x327;" horiz-adv-x="304" d="M171 -12 L164 -12 L164 17 C164 21 161 24 157 24 L99 24 C95 24 91 21 91 17 L91 -20 C91 -47 93 -63 102 -73 C109 -82 123 -84 145 -84 L149 -84 C158 -84 161 -86 161 -92 C161 -104 147 -103 124 -103 C118 -103 107 -102 107 -109 L107 -167 C107 -171 110 -175 115 -175 L155 -175 C207 -175 234 -148 234 -98 L234 -83 C234 -60 232 -42 223 -30 C211 -13 189 -12 171 -12 L171 -12 Z " />
<glyph glyph-name="uni0328" unicode="&#x328;" horiz-adv-x="303" d="M176 -84 L180 -84 C228 -84 233 -59 233 -20 L233 17 C233 21 229 24 226 24 L167 24 C164 24 161 21 161 17 L161 -12 L153 -12 C103 -12 91 -42 91 -83 L91 -98 C91 -150 122 -175 171 -175 L213 -175 C218 -175 220 -171 220 -167 L220 -109 C220 -103 215 -103 211 -103 C208 -103 205 -103 202 -103 C194 -103 184 -103 176 -103 C168 -103 164 -100 164 -94 C164 -88 167 -84 176 -84 L176 -84 Z " />
<glyph glyph-name="uni0344" unicode="&#x344;" horiz-adv-x="330" d="M91 505 C91 484 109 465 131 465 C152 465 169 484 169 505 C169 526 152 543 131 543 C109 543 91 526 91 505 L91 505 Z M221 465 C243 465 260 484 260 505 C260 526 243 543 221 543 C200 543 183 526 183 505 C183 484 200 465 221 465 L221 465 Z M155 571 C154 567 159 563 162 563 L191 563 C197 563 197 565 200 568 C200 568 201 569 243 630 C248 637 240 641 237 641 L175 641 C170 641 168 638 168 636 L155 571 Z " />
<glyph glyph-name="uni0374" unicode="&#x374;" horiz-adv-x="251" d="M92 475 C91 471 96 467 99 467 L128 467 C134 467 134 469 137 472 C137 472 138 473 180 534 C185 541 177 545 174 545 L112 545 C107 545 105 542 105 540 L92 475 Z " />
<glyph glyph-name="uni0375" unicode="&#x375;" horiz-adv-x="251" d="M92 -39 C91 -43 96 -47 99 -47 L128 -47 C134 -47 134 -45 137 -42 C137 -42 138 -41 180 20 C185 27 177 31 174 31 L112 31 C107 31 105 28 105 26 L92 -39 Z " />
<glyph glyph-name="uni037E" unicode="&#x37e;" horiz-adv-x="313" d="M161 198 C200 198 232 229 232 269 C232 307 200 338 161 338 C123 338 90 307 90 269 C90 229 123 198 161 198 L161 198 Z M152 134 C113 134 80 103 80 64 C80 32 104 5 131 -4 L106 -68 C104 -73 106 -78 113 -78 L167 -78 C170 -78 173 -76 174 -73 L219 46 C221 51 223 59 223 66 C223 105 190 134 152 134 L152 134 Z " />
<glyph glyph-name="tonos" unicode="&#x384;" horiz-adv-x="222" d="M99 557 C94 557 90 553 91 548 L101 479 C102 474 104 472 108 472 L137 472 C141 472 142 474 143 479 L153 547 C154 554 150 557 146 557 L99 557 Z " />
<glyph glyph-name="dieresistonos" unicode="&#x385;" horiz-adv-x="330" d="M91 505 C91 484 109 465 131 465 C152 465 169 484 169 505 C169 526 152 543 131 543 C109 543 91 526 91 505 L91 505 Z M221 465 C243 465 260 484 260 505 C260 526 243 543 221 543 C200 543 183 526 183 505 C183 484 200 465 221 465 L221 465 Z M156 653 C151 653 147 649 148 644 L158 575 C159 570 161 568 165 568 L194 568 C198 568 199 570 200 575 L210 643 C211 650 207 653 203 653 L156 653 Z " />
<glyph glyph-name="Alphatonos" unicode="&#x386;" horiz-adv-x="628" d="M156 0 L275 0 C283 0 284 9 281 12 L269 24 L294 117 L411 117 L437 24 L425 12 C420 7 424 0 429 0 L550 0 C557 0 559 9 556 12 L542 25 L413 504 L422 517 C425 521 422 528 416 528 L291 528 C283 528 281 522 284 517 L292 504 L163 25 L151 12 C146 7 150 0 156 0 L156 0 Z M320 216 L352 337 L386 216 L320 216 Z M159 522 C158 518 163 514 166 514 L195 514 C201 514 201 516 204 519 C204 519 205 520 247 581 C252 588 244 592 241 592 L179 592 C174 592 172 589 172 587 L159 522 Z " />
<glyph glyph-name="anoteleia" unicode="&#x387;" horiz-adv-x="303" d="M161 206 C200 206 233 238 233 277 C233 316 200 347 161 347 C123 347 91 316 91 277 C91 238 123 206 161 206 L161 206 Z " />
<glyph glyph-name="Epsilontonos" unicode="&#x388;" horiz-adv-x="512" d="M434 0 C438 0 441 4 441 7 L441 106 C441 113 434 117 429 112 L417 100 L261 100 L261 218 L378 218 L390 207 C394 203 402 206 402 212 L402 327 C402 335 393 336 390 332 L378 319 L261 319 L261 428 L417 428 L429 416 C435 410 441 416 441 422 L441 522 C441 525 438 528 434 528 L148 528 C141 528 139 521 143 517 L155 503 L155 25 L143 12 C139 7 142 0 148 0 L434 0 Z M25 522 C24 518 29 514 32 514 L61 514 C67 514 67 516 70 519 C70 519 71 520 113 581 C118 588 110 592 107 592 L45 592 C40 592 38 589 38 587 L25 522 Z " />
<glyph glyph-name="Etatonos" unicode="&#x389;" horiz-adv-x="630" d="M163 25 L151 12 C147 7 150 0 156 0 L275 0 C282 0 284 9 281 12 L268 25 L268 220 L398 220 L398 25 L386 12 C382 7 386 0 391 0 L511 0 C517 0 520 8 516 12 L503 25 L503 503 L516 517 C520 522 516 528 511 528 L391 528 C385 528 382 521 386 517 L398 503 L398 320 L268 320 L268 503 L281 517 C285 521 281 528 275 528 L156 528 C149 528 147 521 151 517 L163 503 L163 25 Z M34 522 C33 518 38 514 41 514 L70 514 C76 514 76 516 79 519 C79 519 80 520 122 581 C127 588 119 592 116 592 L54 592 C49 592 47 589 47 587 L34 522 Z " />
<glyph glyph-name="Iotatonos" unicode="&#x38a;" horiz-adv-x="416" d="M151 12 C147 7 150 0 156 0 L275 0 C282 0 284 9 281 12 L268 25 L268 503 L281 517 C285 521 281 528 275 528 L156 528 C149 528 147 521 151 517 L163 503 L163 25 L151 12 Z M29 522 C28 518 33 514 36 514 L65 514 C71 514 71 516 74 519 C74 519 75 520 117 581 C122 588 114 592 111 592 L49 592 C44 592 42 589 42 587 L29 522 Z " />
<glyph glyph-name="Omicrontonos" unicode="&#x38c;" horiz-adv-x="605" d="M332 -8 C401 -8 448 8 479 40 C503 66 514 104 514 159 L514 370 C514 423 503 461 479 487 C449 520 401 535 332 535 C262 535 215 520 184 488 C161 461 148 423 148 370 L148 159 C148 104 161 66 184 40 C214 8 261 -8 332 -8 L332 -8 Z M408 343 L408 185 C408 159 403 138 393 123 C381 107 362 100 336 100 L326 100 C293 100 255 115 255 185 L255 343 C255 370 259 390 270 406 C282 421 300 428 326 428 L336 428 C370 428 408 414 408 343 L408 343 Z M71 522 C70 518 75 514 78 514 L107 514 C113 514 113 516 116 519 C116 519 117 520 159 581 C164 588 156 592 153 592 L91 592 C86 592 84 589 84 587 L71 522 Z " />
<glyph glyph-name="Upsilontonos" unicode="&#x38e;" horiz-adv-x="607" d="M153 503 L265 250 L265 25 L254 12 C249 6 253 0 259 0 L379 0 C386 0 387 9 384 12 L372 25 L372 250 L481 503 L494 517 C498 521 494 528 489 528 L368 528 C362 528 360 520 363 517 L376 504 L318 390 L259 504 L271 517 C275 521 271 528 265 528 L146 528 C139 528 137 521 141 517 L153 503 Z M17 522 C16 518 21 514 24 514 L53 514 C59 514 59 516 62 519 C62 519 63 520 105 581 C110 588 102 592 99 592 L37 592 C32 592 30 589 30 587 L17 522 Z " />
<glyph glyph-name="Omegatonos" unicode="&#x38f;" horiz-adv-x="588" d="M484 100 L444 100 L476 370 C491 496 400 536 294 536 C182 536 96 488 111 370 L144 100 L116 100 L104 113 C100 118 91 113 91 107 L91 7 C91 3 96 0 98 0 L266 0 C273 0 275 8 271 12 L259 25 L217 344 C210 396 239 428 288 428 L298 428 C349 428 377 389 371 344 L329 25 L316 12 C312 8 316 0 321 0 L502 0 C506 0 508 4 508 7 L508 107 C508 114 500 116 497 113 L484 100 Z M82 522 C81 518 86 514 89 514 L118 514 C124 514 124 516 127 519 C127 519 128 520 170 581 C175 588 167 592 164 592 L102 592 C97 592 95 589 95 587 L82 522 Z " />
<glyph glyph-name="iotadieresistonos" unicode="&#x390;" horiz-adv-x="330" d="M94 12 C90 7 93 0 99 0 L218 0 C225 0 227 9 224 12 L211 25 L211 503 L224 517 C228 521 224 528 218 528 L99 528 C92 528 90 521 94 517 L106 503 L106 25 L94 12 Z M78 623 C78 602 96 583 118 583 C139 583 156 602 156 623 C156 644 139 661 118 661 C96 661 78 644 78 623 L78 623 Z M208 583 C230 583 247 602 247 623 C247 644 230 661 208 661 C187 661 170 644 170 623 C170 602 187 583 208 583 L208 583 Z M129 712 C128 708 133 704 136 704 L165 704 C171 704 171 706 174 709 C174 709 175 710 217 771 C222 778 214 782 211 782 L149 782 C144 782 142 779 142 777 L129 712 Z " />
<glyph glyph-name="Alpha" unicode="&#x391;" horiz-adv-x="571" d="M99 0 L218 0 C226 0 227 9 224 12 L212 24 L237 117 L354 117 L380 24 L368 12 C363 7 367 0 372 0 L493 0 C500 0 502 9 499 12 L485 25 L356 504 L365 517 C368 521 365 528 359 528 L234 528 C226 528 224 522 227 517 L235 504 L106 25 L94 12 C89 7 93 0 99 0 L99 0 Z M263 216 L295 337 L329 216 L263 216 Z " />
<glyph glyph-name="Beta" unicode="&#x392;" horiz-adv-x="506" d="M94 12 C89 7 93 0 99 0 L269 0 C294 0 316 2 334 6 C355 11 372 19 388 30 C420 57 435 104 435 173 C435 238 422 284 392 313 C403 333 408 360 408 391 C408 421 404 445 395 464 C388 482 375 495 359 505 C329 525 284 528 241 528 L99 528 C92 528 90 522 94 517 L106 503 L106 25 L94 12 Z M260 244 C281 244 297 237 309 226 C321 214 328 197 328 175 C328 150 320 132 303 121 C290 110 269 105 242 105 L212 105 L212 244 L241 244 C248 244 254 244 260 244 L260 244 Z M212 351 L212 423 L244 423 C262 423 276 423 286 417 C298 410 300 397 300 387 C300 359 286 351 261 351 L212 351 Z " />
<glyph glyph-name="Gamma" unicode="&#x393;" horiz-adv-x="431" d="M353 528 L98 528 C92 528 89 520 93 517 L106 503 L106 24 L93 12 C89 8 92 0 98 0 L218 0 C226 0 227 9 224 12 L211 24 L211 428 L336 428 L349 415 C353 411 361 415 361 421 L361 521 C361 525 356 528 353 528 L353 528 Z " />
<glyph glyph-name="uni0394" unicode="&#x394;" horiz-adv-x="571" d="M484 25 L356 504 L364 517 C368 523 364 528 359 528 L233 528 C226 528 223 521 226 517 L235 504 L106 25 L93 12 C89 8 93 0 98 0 L492 0 C500 0 502 8 498 12 L484 25 Z M295 337 L359 100 L232 100 L295 337 Z " />
<glyph glyph-name="Epsilon" unicode="&#x395;" horiz-adv-x="463" d="M385 0 C389 0 392 4 392 7 L392 106 C392 113 385 117 380 112 L368 100 L212 100 L212 218 L329 218 L341 207 C345 203 353 206 353 212 L353 327 C353 333 344 336 341 332 L329 319 L212 319 L212 428 L368 428 L380 416 C386 410 392 416 392 422 L392 522 C392 525 389 528 385 528 L99 528 C92 528 90 521 94 517 L106 503 L106 25 L94 12 C90 7 93 0 99 0 L385 0 Z " />
<glyph glyph-name="Zeta" unicode="&#x396;" horiz-adv-x="486" d="M116 428 L287 428 L94 99 C93 98 93 96 93 94 L93 7 C93 2 96 0 100 0 L409 0 C414 0 416 4 416 7 L416 106 C416 115 409 115 405 112 L392 100 L221 100 L414 429 C414 430 415 431 415 432 L415 522 C415 525 411 528 408 528 L99 528 C95 528 91 525 91 521 L91 422 C91 415 99 411 104 416 L116 428 Z " />
<glyph glyph-name="Eta" unicode="&#x397;" horiz-adv-x="532" d="M106 25 L94 12 C90 7 93 0 99 0 L218 0 C225 0 227 9 224 12 L211 25 L211 220 L341 220 L341 25 L329 12 C325 7 329 0 334 0 L454 0 C460 0 463 8 459 12 L446 25 L446 503 L459 517 C463 522 459 528 454 528 L334 528 C328 528 325 521 329 517 L341 503 L341 320 L211 320 L211 503 L224 517 C228 521 224 528 218 528 L99 528 C92 528 90 521 94 517 L106 503 L106 25 Z " />
<glyph glyph-name="Theta" unicode="&#x398;" horiz-adv-x="526" d="M334 207 C338 207 341 209 341 214 L341 299 C341 303 338 307 334 307 L219 307 C216 307 212 303 212 299 L212 214 C212 209 216 207 219 207 L334 207 Z M275 536 C156 536 91 488 91 370 L91 159 C91 39 162 -8 275 -8 C394 -8 457 42 457 159 L457 370 C457 492 388 536 275 536 L275 536 Z M197 270 L197 344 C197 394 218 429 269 429 L279 429 C331 429 351 389 351 344 L351 270 L351 185 C351 134 329 101 279 101 L269 101 C218 101 197 139 197 185 L197 270 Z " />
<glyph glyph-name="Iota" unicode="&#x399;" horiz-adv-x="296" d="M94 12 C90 7 93 0 99 0 L218 0 C225 0 227 9 224 12 L211 25 L211 503 L224 517 C228 521 224 528 218 528 L99 528 C92 528 90 521 94 517 L106 503 L106 25 L94 12 Z " />
<glyph glyph-name="Kappa" unicode="&#x39a;" horiz-adv-x="537" d="M451 25 L322 343 L437 503 L449 517 C453 522 449 528 445 528 L316 528 C310 528 308 522 312 517 L322 504 L211 355 L211 503 L224 517 C228 521 224 528 218 528 L99 528 C92 528 90 521 94 517 L106 503 L106 25 L94 12 C90 7 93 0 99 0 L218 0 C225 0 227 9 224 12 L211 25 L211 188 L252 244 L328 24 L315 12 C311 9 314 0 320 0 L459 0 C465 0 468 10 465 12 L451 25 Z " />
<glyph glyph-name="Lambda" unicode="&#x39b;" horiz-adv-x="571" d="M295 337 L380 24 L368 12 C363 7 367 0 372 0 L493 0 C500 0 502 9 499 12 L485 25 L356 504 L365 517 C368 521 365 528 359 528 L234 528 C226 528 224 522 227 517 L235 504 L106 25 L94 12 C89 7 93 0 99 0 L218 0 C226 0 227 9 224 12 L212 24 L295 337 Z " />
<glyph glyph-name="Mu" unicode="&#x39c;" horiz-adv-x="596" d="M94 12 C90 7 93 0 99 0 L218 0 C225 0 227 9 224 12 L211 25 L211 331 L303 214 C306 210 311 210 314 214 L406 344 L406 25 L393 12 C389 8 392 0 398 0 L518 0 C525 0 527 8 523 12 L511 25 L511 503 L523 517 C528 522 524 528 518 528 L410 528 C408 528 406 527 405 525 L313 389 L212 525 C211 527 209 528 207 528 L99 528 C92 528 90 521 94 517 L106 503 L106 25 L94 12 Z " />
<glyph glyph-name="Nu" unicode="&#x39d;" horiz-adv-x="517" d="M106 25 L94 12 C90 7 93 0 99 0 L218 0 C225 0 227 9 224 12 L211 25 L211 267 L321 21 L313 12 C309 8 312 0 318 0 L438 0 C445 0 447 8 443 12 L431 25 L431 503 L443 517 C447 522 444 528 438 528 L318 528 C312 528 309 521 313 517 L325 503 L325 266 L213 524 C212 527 209 528 206 528 L99 528 C92 528 90 521 94 517 L106 503 L106 25 Z " />
</font>
</svg>
